solid  Processed by ADMesh version 1.0.0
  facet normal  0.00000000E+00  0.00000000E+00  1.00000000E+00
    outer loop
      vertex -2.68902636E+00  7.20522463E-01  1.96850395E+00
      vertex -7.20522463E-01 -2.68902636E+00  1.96850395E+00
      vertex  2.68902636E+00 -7.20522463E-01  1.96850395E+00
    endloop
  endfacet
  facet normal  0.00000000E+00  0.00000000E+00  1.00000000E+00
    outer loop
      vertex  2.68902636E+00 -7.20522463E-01  1.96850395E+00
      vertex  7.20522463E-01  2.68902636E+00  1.96850395E+00
      vertex -2.68902636E+00  7.20522463E-01  1.96850395E+00
    endloop
  endfacet
  facet normal  0.00000000E+00 -0.00000000E+00 -1.00000000E+00
    outer loop
      vertex  7.20522463E-01  2.68902636E+00 -1.96850395E+00
      vertex  2.68902636E+00 -7.20522463E-01 -1.96850395E+00
      vertex -7.20522463E-01 -2.68902636E+00 -1.96850395E+00
    endloop
  endfacet
  facet normal  0.00000000E+00  0.00000000E+00 -1.00000000E+00
    outer loop
      vertex -7.20522463E-01 -2.68902636E+00 -1.96850395E+00
      vertex -2.68902636E+00  7.20522463E-01 -1.96850395E+00
      vertex  7.20522463E-01  2.68902636E+00 -1.96850395E+00
    endloop
  endfacet
  facet normal -8.66025388E-01 -5.00000000E-01  1.49308228E-08
    outer loop
      vertex -2.68902636E+00  7.20522463E-01 -1.96850395E+00
      vertex -7.20522463E-01 -2.68902636E+00 -1.96850395E+00
      vertex -7.20522463E-01 -2.68902636E+00  1.96850395E+00
    endloop
  endfacet
  facet normal -8.66025388E-01 -5.00000000E-01  1.49308228E-08
    outer loop
      vertex -7.20522463E-01 -2.68902636E+00  1.96850395E+00
      vertex -2.68902636E+00  7.20522463E-01  1.96850395E+00
      vertex -2.68902636E+00  7.20522463E-01 -1.96850395E+00
    endloop
  endfacet
  facet normal  8.66025388E-01  5.00000000E-01  1.49308228E-08
    outer loop
      vertex  7.20522463E-01  2.68902636E+00  1.96850395E+00
      vertex  2.68902636E+00 -7.20522463E-01  1.96850395E+00
      vertex  2.68902636E+00 -7.20522463E-01 -1.96850395E+00
    endloop
  endfacet
  facet normal  8.66025388E-01  5.00000000E-01  1.49308228E-08
    outer loop
      vertex  2.68902636E+00 -7.20522463E-01 -1.96850395E+00
      vertex  7.20522463E-01  2.68902636E+00 -1.96850395E+00
      vertex  7.20522463E-01  2.68902636E+00  1.96850395E+00
    endloop
  endfacet
  facet normal  5.00000000E-01 -8.66025388E-01  0.00000000E+00
    outer loop
      vertex -7.20522463E-01 -2.68902636E+00  1.96850395E+00
      vertex -7.20522463E-01 -2.68902636E+00 -1.96850395E+00
      vertex  2.68902636E+00 -7.20522463E-01 -1.96850395E+00
    endloop
  endfacet
  facet normal  5.00000000E-01 -8.66025388E-01  0.00000000E+00
    outer loop
      vertex  2.68902636E+00 -7.20522463E-01 -1.96850395E+00
      vertex  2.68902636E+00 -7.20522463E-01  1.96850395E+00
      vertex -7.20522463E-01 -2.68902636E+00  1.96850395E+00
    endloop
  endfacet
  facet normal -5.00000000E-01  8.66025388E-01  0.00000000E+00
    outer loop
      vertex -2.68902636E+00  7.20522463E-01 -1.96850395E+00
      vertex -2.68902636E+00  7.20522463E-01  1.96850395E+00
      vertex  7.20522463E-01  2.68902636E+00  1.96850395E+00
    endloop
  endfacet
  facet normal -5.00000000E-01  8.66025388E-01  0.00000000E+00
    outer loop
      vertex  7.20522463E-01  2.68902636E+00  1.96850395E+00
      vertex  7.20522463E-01  2.68902636E+00 -1.96850395E+00
      vertex -2.68902636E+00  7.20522463E-01 -1.96850395E+00
    endloop
  endfacet
endsolid  Processed by ADMesh version 1.0.0
