SOLID  Untitled1
  FACET NORMAL  0.00000000E+00  0.00000000E+00  1.00000000E+00
    OUTER LOOP
      VERTEX -1.96850394E+00  1.96850394E+00  1.96850394E+00
      VERTEX -1.96850394E+00 -1.96850394E+00  1.96850394E+00
      VERTEX  1.96850394E+00 -1.96850394E+00  1.96850394E+00
    ENDLOOP
  ENDFACET
  FACET NORMAL  0.00000000E+00 -0.00000000E+00  1.00000000E+00
    OUTER LOOP
      VERTEX  1.96850394E+00 -1.96850394E+00  1.96850394E+00
      VERTEX  1.96850394E+00  1.96850394E+00  1.96850394E+00
      VERTEX -1.96850394E+00  1.96850394E+00  1.96850394E+00
    ENDLOOP
  ENDFACET
  FACET NORMAL  0.00000000E+00 -0.00000000E+00 -1.00000000E+00
    OUTER LOOP
      VERTEX  1.96850394E+00  1.96850394E+00 -1.96850394E+00
      VERTEX  1.96850394E+00 -1.96850394E+00 -1.96850394E+00
      VERTEX -1.96850394E+00 -1.96850394E+00 -1.96850394E+00
    ENDLOOP
  ENDFACET
  FACET NORMAL  0.00000000E+00  0.00000000E+00 -1.00000000E+00
    OUTER LOOP
      VERTEX -1.96850394E+00 -1.96850394E+00 -1.96850394E+00
      VERTEX -1.96850394E+00  1.96850394E+00 -1.96850394E+00
      VERTEX  1.96850394E+00  1.96850394E+00 -1.96850394E+00
    ENDLOOP
  ENDFACET
  FACET NORMAL -1.00000000E+00  0.00000000E+00  0.00000000E+00
    OUTER LOOP
      VERTEX -1.96850394E+00  1.96850394E+00 -1.96850394E+00
      VERTEX -1.96850394E+00 -1.96850394E+00 -1.96850394E+00
      VERTEX -1.96850394E+00 -1.96850394E+00  1.96850394E+00
    ENDLOOP
  ENDFACET
  FACET NORMAL -1.00000000E+00  0.00000000E+00  0.00000000E+00
    OUTER LOOP
      VERTEX -1.96850394E+00 -1.96850394E+00  1.96850394E+00
      VERTEX -1.96850394E+00  1.96850394E+00  1.96850394E+00
      VERTEX -1.96850394E+00  1.96850394E+00 -1.96850394E+00
    ENDLOOP
  ENDFACET
  FACET NORMAL  1.00000000E+00  0.00000000E+00  0.00000000E+00
    OUTER LOOP
      VERTEX  1.96850394E+00  1.96850394E+00  1.96850394E+00
      VERTEX  1.96850394E+00 -1.96850394E+00  1.96850394E+00
      VERTEX  1.96850394E+00 -1.96850394E+00 -1.96850394E+00
    ENDLOOP
  ENDFACET
  FACET NORMAL  1.00000000E+00  0.00000000E+00  0.00000000E+00
    OUTER LOOP
      VERTEX  1.96850394E+00 -1.96850394E+00 -1.96850394E+00
      VERTEX  1.96850394E+00  1.96850394E+00 -1.96850394E+00
      VERTEX  1.96850394E+00  1.96850394E+00  1.96850394E+00
    ENDLOOP
  ENDFACET
  FACET NORMAL  0.00000000E+00 -1.00000000E+00  0.00000000E+00
    OUTER LOOP
      VERTEX -1.96850394E+00 -1.96850394E+00  1.96850394E+00
      VERTEX -1.96850394E+00 -1.96850394E+00 -1.96850394E+00
      VERTEX  1.96850394E+00 -1.96850394E+00 -1.96850394E+00
    ENDLOOP
  ENDFACET
  FACET NORMAL  0.00000000E+00 -1.00000000E+00  0.00000000E+00
    OUTER LOOP
      VERTEX  1.96850394E+00 -1.96850394E+00 -1.96850394E+00
      VERTEX  1.96850394E+00 -1.96850394E+00  1.96850394E+00
      VERTEX -1.96850394E+00 -1.96850394E+00  1.96850394E+00
    ENDLOOP
  ENDFACET
  FACET NORMAL  0.00000000E+00  1.00000000E+00  0.00000000E+00
    OUTER LOOP
      VERTEX -1.96850394E+00  1.96850394E+00 -1.96850394E+00
      VERTEX -1.96850394E+00  1.96850394E+00  1.96850394E+00
      VERTEX  1.96850394E+00  1.96850394E+00  1.96850394E+00
    ENDLOOP
  ENDFACET
  FACET NORMAL  0.00000000E+00  1.00000000E+00  0.00000000E+00
    OUTER LOOP
      VERTEX  1.96850394E+00  1.96850394E+00  1.96850394E+00
      VERTEX  1.96850394E+00  1.96850394E+00 -1.96850394E+00
      VERTEX -1.96850394E+00  1.96850394E+00 -1.96850394E+00
    ENDLOOP
  ENDFACET
ENDSOLID  Untitled1
