999
Created by ADMesh version 1.0.0
0
SECTION
2
HEADER
0
ENDSEC
0
SECTION
2
TABLES
0
TABLE
2
LAYER
70
1
0
LAYER
2
0
70
0
62
7
6
CONTINUOUS
0
ENDTAB
0
ENDSEC
0
SECTION
2
BLOCKS
0
ENDSEC
0
SECTION
2
ENTITIES
0
3DFACE
8
0
10
-500.000000
20
1300.000000
30
150.000000
11
-500.000000
21
1350.000000
31
213.397461
12
-500.000000
22
1406.441528
32
150.000000
13
-500.000000
23
1406.441528
33
150.000000
0
3DFACE
8
0
10
-500.000000
20
1300.000000
30
150.000000
11
-500.000000
21
1406.441528
31
150.000000
12
-500.000000
22
1350.000000
32
86.602539
13
-500.000000
23
1350.000000
33
86.602539
0
3DFACE
8
0
10
-500.000000
20
200.522278
30
150.000000
11
-500.000000
21
154.903809
31
83.771324
12
-500.000000
22
94.385078
32
150.000000
13
-500.000000
23
94.385078
33
150.000000
0
3DFACE
8
0
10
-500.000000
20
200.522278
30
150.000000
11
-500.000000
21
94.385078
31
150.000000
12
-500.000000
22
154.903809
32
216.228683
13
-500.000000
23
154.903809
33
216.228683
0
3DFACE
8
0
10
-500.000000
20
1150.000000
30
213.397461
11
-500.000000
21
1200.000000
31
300.000000
12
-500.000000
22
1250.000000
32
213.397461
13
-500.000000
23
1250.000000
33
213.397461
0
3DFACE
8
0
10
-500.000000
20
850.000000
30
213.397461
11
-500.000000
21
900.000000
31
300.000000
12
-500.000000
22
950.000000
32
213.397461
13
-500.000000
23
950.000000
33
213.397461
0
3DFACE
8
0
10
-500.000000
20
1150.000000
30
213.397461
11
-500.000000
21
1100.000000
31
300.000000
12
-500.000000
22
1200.000000
32
300.000000
13
-500.000000
23
1200.000000
33
300.000000
0
3DFACE
8
0
10
-500.000000
20
550.000000
30
213.397461
11
-500.000000
21
600.000000
31
300.000000
12
-500.000000
22
650.000000
32
213.397461
13
-500.000000
23
650.000000
33
213.397461
0
3DFACE
8
0
10
-500.000000
20
850.000000
30
86.602539
11
-500.000000
21
950.000000
31
86.602539
12
-500.000000
22
900.000000
32
0.000000
13
-500.000000
23
900.000000
33
0.000000
0
3DFACE
8
0
10
-500.000000
20
1350.000000
30
213.397461
11
-500.000000
21
1300.000000
31
300.000000
12
-500.000000
22
1400.000000
32
300.000000
13
-500.000000
23
1400.000000
33
300.000000
0
3DFACE
8
0
10
-500.000000
20
550.000000
30
213.397461
11
-500.000000
21
500.000000
31
300.000000
12
-500.000000
22
600.000000
32
300.000000
13
-500.000000
23
600.000000
33
300.000000
0
3DFACE
8
0
10
-500.000000
20
1050.000000
30
213.397461
11
-500.000000
21
1000.000000
31
300.000000
12
-500.000000
22
1100.000000
32
300.000000
13
-500.000000
23
1100.000000
33
300.000000
0
3DFACE
8
0
10
-500.000000
20
850.000000
30
213.397461
11
-500.000000
21
800.000000
31
300.000000
12
-500.000000
22
900.000000
32
300.000000
13
-500.000000
23
900.000000
33
300.000000
0
3DFACE
8
0
10
-500.000000
20
350.000000
30
213.397461
11
-500.000000
21
400.000000
31
300.000000
12
-500.000000
22
450.000000
32
213.397461
13
-500.000000
23
450.000000
33
213.397461
0
3DFACE
8
0
10
-500.000000
20
850.000000
30
86.602539
11
-500.000000
21
900.000000
31
0.000000
12
-500.000000
22
800.000000
32
0.000000
13
-500.000000
23
800.000000
33
0.000000
0
3DFACE
8
0
10
-500.000000
20
350.000000
30
213.397461
11
-500.000000
21
300.000000
31
300.000000
12
-500.000000
22
400.000000
32
300.000000
13
-500.000000
23
400.000000
33
300.000000
0
3DFACE
8
0
10
-500.000000
20
1050.000000
30
86.602539
11
-500.000000
21
1100.000000
31
0.000000
12
-500.000000
22
1000.000000
32
0.000000
13
-500.000000
23
1000.000000
33
0.000000
0
3DFACE
8
0
10
-500.000000
20
650.000000
30
86.602539
11
-500.000000
21
700.000000
31
0.000000
12
-500.000000
22
600.000000
32
0.000000
13
-500.000000
23
600.000000
33
0.000000
0
3DFACE
8
0
10
-500.000000
20
1350.000000
30
86.602539
11
-500.000000
21
1400.000000
31
0.000000
12
-500.000000
22
1300.000000
32
0.000000
13
-500.000000
23
1300.000000
33
0.000000
0
3DFACE
8
0
10
-500.000000
20
251.471008
30
215.986481
11
-500.000000
21
200.000000
31
300.000000
12
-500.000000
22
300.000000
32
300.000000
13
-500.000000
23
300.000000
33
300.000000
0
3DFACE
8
0
10
-500.000000
20
1250.000000
30
213.397461
11
-500.000000
21
1200.000000
31
300.000000
12
-500.000000
22
1300.000000
32
300.000000
13
-500.000000
23
1300.000000
33
300.000000
0
3DFACE
8
0
10
-500.000000
20
650.000000
30
213.397461
11
-500.000000
21
600.000000
31
300.000000
12
-500.000000
22
700.000000
32
300.000000
13
-500.000000
23
700.000000
33
300.000000
0
3DFACE
8
0
10
-500.000000
20
950.000000
30
213.397461
11
-500.000000
21
900.000000
31
300.000000
12
-500.000000
22
1000.000000
32
300.000000
13
-500.000000
23
1000.000000
33
300.000000
0
3DFACE
8
0
10
-500.000000
20
450.000000
30
213.397461
11
-500.000000
21
400.000000
31
300.000000
12
-500.000000
22
500.000000
32
300.000000
13
-500.000000
23
500.000000
33
300.000000
0
3DFACE
8
0
10
-500.000000
20
1150.000000
30
213.397461
11
-500.000000
21
1050.000000
31
213.397461
12
-500.000000
22
1100.000000
32
300.000000
13
-500.000000
23
1100.000000
33
300.000000
0
3DFACE
8
0
10
-500.000000
20
350.000000
30
213.397461
11
-500.000000
21
251.471008
31
215.986481
12
-500.000000
22
300.000000
32
300.000000
13
-500.000000
23
300.000000
33
300.000000
0
3DFACE
8
0
10
-500.000000
20
750.000000
30
213.397461
11
-500.000000
21
650.000000
31
213.397461
12
-500.000000
22
700.000000
32
300.000000
13
-500.000000
23
700.000000
33
300.000000
0
3DFACE
8
0
10
-500.000000
20
94.385078
30
150.000000
11
-500.000000
21
0.000000
31
100.000000
12
-500.000000
22
0.000000
32
200.000000
13
-500.000000
23
0.000000
33
200.000000
0
3DFACE
8
0
10
-500.000000
20
750.000000
30
213.397461
11
-500.000000
21
700.000000
31
300.000000
12
-500.000000
22
800.000000
32
300.000000
13
-500.000000
23
800.000000
33
300.000000
0
3DFACE
8
0
10
-500.000000
20
1350.000000
30
213.397461
11
-500.000000
21
1250.000000
31
213.397461
12
-500.000000
22
1300.000000
32
300.000000
13
-500.000000
23
1300.000000
33
300.000000
0
3DFACE
8
0
10
-500.000000
20
550.000000
30
213.397461
11
-500.000000
21
450.000000
31
213.397461
12
-500.000000
22
500.000000
32
300.000000
13
-500.000000
23
500.000000
33
300.000000
0
3DFACE
8
0
10
-500.000000
20
1050.000000
30
213.397461
11
-500.000000
21
950.000000
31
213.397461
12
-500.000000
22
1000.000000
32
300.000000
13
-500.000000
23
1000.000000
33
300.000000
0
3DFACE
8
0
10
-500.000000
20
1050.000000
30
86.602539
11
-500.000000
21
1000.000000
31
0.000000
12
-500.000000
22
950.000000
32
86.602539
13
-500.000000
23
950.000000
33
86.602539
0
3DFACE
8
0
10
-500.000000
20
650.000000
30
86.602539
11
-500.000000
21
600.000000
31
0.000000
12
-500.000000
22
550.000000
32
86.602539
13
-500.000000
23
550.000000
33
86.602539
0
3DFACE
8
0
10
-500.000000
20
1050.000000
30
86.602539
11
-500.000000
21
1150.000000
31
86.602539
12
-500.000000
22
1100.000000
32
0.000000
13
-500.000000
23
1100.000000
33
0.000000
0
3DFACE
8
0
10
-500.000000
20
650.000000
30
86.602539
11
-500.000000
21
750.000000
31
86.602539
12
-500.000000
22
700.000000
32
0.000000
13
-500.000000
23
700.000000
33
0.000000
0
3DFACE
8
0
10
-500.000000
20
1250.000000
30
86.602539
11
-500.000000
21
1200.000000
31
0.000000
12
-500.000000
22
1150.000000
32
86.602539
13
-500.000000
23
1150.000000
33
86.602539
0
3DFACE
8
0
10
-500.000000
20
850.000000
30
213.397461
11
-500.000000
21
750.000000
31
213.397461
12
-500.000000
22
800.000000
32
300.000000
13
-500.000000
23
800.000000
33
300.000000
0
3DFACE
8
0
10
-500.000000
20
251.471008
30
84.013519
11
-500.000000
21
300.000000
31
0.000000
12
-500.000000
22
200.000000
32
0.000000
13
-500.000000
23
200.000000
33
0.000000
0
3DFACE
8
0
10
-500.000000
20
1250.000000
30
86.602539
11
-500.000000
21
1350.000000
31
86.602539
12
-500.000000
22
1300.000000
32
0.000000
13
-500.000000
23
1300.000000
33
0.000000
0
3DFACE
8
0
10
-500.000000
20
1250.000000
30
86.602539
11
-500.000000
21
1300.000000
31
0.000000
12
-500.000000
22
1200.000000
32
0.000000
13
-500.000000
23
1200.000000
33
0.000000
0
3DFACE
8
0
10
-500.000000
20
450.000000
30
86.602539
11
-500.000000
21
400.000000
31
0.000000
12
-500.000000
22
350.000000
32
86.602539
13
-500.000000
23
350.000000
33
86.602539
0
3DFACE
8
0
10
-500.000000
20
450.000000
30
86.602539
11
-500.000000
21
500.000000
31
0.000000
12
-500.000000
22
400.000000
32
0.000000
13
-500.000000
23
400.000000
33
0.000000
0
3DFACE
8
0
10
-500.000000
20
550.000000
30
86.602539
11
-500.000000
21
600.000000
31
0.000000
12
-500.000000
22
500.000000
32
0.000000
13
-500.000000
23
500.000000
33
0.000000
0
3DFACE
8
0
10
-500.000000
20
1150.000000
30
86.602539
11
-500.000000
21
1200.000000
31
0.000000
12
-500.000000
22
1100.000000
32
0.000000
13
-500.000000
23
1100.000000
33
0.000000
0
3DFACE
8
0
10
-500.000000
20
750.000000
30
86.602539
11
-500.000000
21
800.000000
31
0.000000
12
-500.000000
22
700.000000
32
0.000000
13
-500.000000
23
700.000000
33
0.000000
0
3DFACE
8
0
10
-500.000000
20
950.000000
30
86.602539
11
-500.000000
21
1000.000000
31
0.000000
12
-500.000000
22
900.000000
32
0.000000
13
-500.000000
23
900.000000
33
0.000000
0
3DFACE
8
0
10
-500.000000
20
350.000000
30
86.602539
11
-500.000000
21
400.000000
31
0.000000
12
-500.000000
22
300.000000
32
0.000000
13
-500.000000
23
300.000000
33
0.000000
0
3DFACE
8
0
10
-500.000000
20
450.000000
30
86.602539
11
-500.000000
21
550.000000
31
86.602539
12
-500.000000
22
500.000000
32
0.000000
13
-500.000000
23
500.000000
33
0.000000
0
3DFACE
8
0
10
-500.000000
20
850.000000
30
86.602539
11
-500.000000
21
800.000000
31
0.000000
12
-500.000000
22
750.000000
32
86.602539
13
-500.000000
23
750.000000
33
86.602539
0
3DFACE
8
0
10
-500.000000
20
251.471008
30
84.013519
11
-500.000000
21
350.000000
31
86.602539
12
-500.000000
22
300.000000
32
0.000000
13
-500.000000
23
300.000000
33
0.000000
0
3DFACE
8
0
10
-500.000000
20
154.903809
30
83.771324
11
-500.000000
21
200.000000
31
0.000000
12
-500.000000
22
100.000000
32
0.000000
13
-500.000000
23
100.000000
33
0.000000
0
3DFACE
8
0
10
-500.000000
20
154.903809
30
216.228683
11
-500.000000
21
100.000000
31
300.000000
12
-500.000000
22
200.000000
32
300.000000
13
-500.000000
23
200.000000
33
300.000000
0
3DFACE
8
0
10
-500.000000
20
154.903809
30
216.228683
11
-500.000000
21
200.000000
31
300.000000
12
-500.000000
22
251.471008
32
215.986481
13
-500.000000
23
251.471008
33
215.986481
0
3DFACE
8
0
10
-500.000000
20
154.903809
30
83.771324
11
-500.000000
21
251.471008
31
84.013519
12
-500.000000
22
200.000000
32
0.000000
13
-500.000000
23
200.000000
33
0.000000
0
3DFACE
8
0
10
-500.000000
20
1406.441528
30
150.000000
11
-500.000000
21
1500.000000
31
200.000000
12
-500.000000
22
1500.000000
32
100.000000
13
-500.000000
23
1500.000000
33
100.000000
0
3DFACE
8
0
10
-500.000000
20
73.205078
30
226.794922
11
-500.000000
21
0.000000
31
300.000000
12
-500.000000
22
100.000000
32
300.000000
13
-500.000000
23
100.000000
33
300.000000
0
3DFACE
8
0
10
-500.000000
20
73.205078
30
73.205078
11
-500.000000
21
100.000000
31
0.000000
12
-500.000000
22
0.000000
32
0.000000
13
-500.000000
23
0.000000
33
0.000000
0
3DFACE
8
0
10
-500.000000
20
73.205078
30
226.794922
11
-500.000000
21
0.000000
31
200.000000
12
-500.000000
22
0.000000
32
300.000000
13
-500.000000
23
0.000000
33
300.000000
0
3DFACE
8
0
10
-500.000000
20
73.205078
30
73.205078
11
-500.000000
21
0.000000
31
0.000000
12
-500.000000
22
0.000000
32
100.000000
13
-500.000000
23
0.000000
33
100.000000
0
3DFACE
8
0
10
-500.000000
20
1427.304077
30
72.695923
11
-500.000000
21
1500.000000
31
100.000000
12
-500.000000
22
1500.000000
32
0.000000
13
-500.000000
23
1500.000000
33
0.000000
0
3DFACE
8
0
10
-500.000000
20
1427.304077
30
72.695923
11
-500.000000
21
1500.000000
31
0.000000
12
-500.000000
22
1400.000000
32
0.000000
13
-500.000000
23
1400.000000
33
0.000000
0
3DFACE
8
0
10
-500.000000
20
1427.304077
30
227.304077
11
-500.000000
21
1400.000000
31
300.000000
12
-500.000000
22
1500.000000
32
300.000000
13
-500.000000
23
1500.000000
33
300.000000
0
3DFACE
8
0
10
-500.000000
20
1427.304077
30
227.304077
11
-500.000000
21
1500.000000
31
300.000000
12
-500.000000
22
1500.000000
32
200.000000
13
-500.000000
23
1500.000000
33
200.000000
0
3DFACE
8
0
10
-500.000000
20
1100.000000
30
150.000000
11
-500.000000
21
1200.000000
31
150.000000
12
-500.000000
22
1150.000000
32
86.602539
13
-500.000000
23
1150.000000
33
86.602539
0
3DFACE
8
0
10
-500.000000
20
1200.000000
30
150.000000
11
-500.000000
21
1150.000000
31
213.397461
12
-500.000000
22
1250.000000
32
213.397461
13
-500.000000
23
1250.000000
33
213.397461
0
3DFACE
8
0
10
-500.000000
20
900.000000
30
150.000000
11
-500.000000
21
950.000000
31
86.602539
12
-500.000000
22
850.000000
32
86.602539
13
-500.000000
23
850.000000
33
86.602539
0
3DFACE
8
0
10
-500.000000
20
800.000000
30
150.000000
11
-500.000000
21
850.000000
31
213.397461
12
-500.000000
22
900.000000
32
150.000000
13
-500.000000
23
900.000000
33
150.000000
0
3DFACE
8
0
10
-500.000000
20
600.000000
30
150.000000
11
-500.000000
21
650.000000
31
213.397461
12
-500.000000
22
700.000000
32
150.000000
13
-500.000000
23
700.000000
33
150.000000
0
3DFACE
8
0
10
-500.000000
20
800.000000
30
150.000000
11
-500.000000
21
900.000000
31
150.000000
12
-500.000000
22
850.000000
32
86.602539
13
-500.000000
23
850.000000
33
86.602539
0
3DFACE
8
0
10
-500.000000
20
600.000000
30
150.000000
11
-500.000000
21
700.000000
31
150.000000
12
-500.000000
22
650.000000
32
86.602539
13
-500.000000
23
650.000000
33
86.602539
0
3DFACE
8
0
10
-500.000000
20
600.000000
30
150.000000
11
-500.000000
21
550.000000
31
213.397461
12
-500.000000
22
650.000000
32
213.397461
13
-500.000000
23
650.000000
33
213.397461
0
3DFACE
8
0
10
-500.000000
20
1100.000000
30
150.000000
11
-500.000000
21
1150.000000
31
213.397461
12
-500.000000
22
1200.000000
32
150.000000
13
-500.000000
23
1200.000000
33
150.000000
0
3DFACE
8
0
10
-500.000000
20
900.000000
30
150.000000
11
-500.000000
21
850.000000
31
213.397461
12
-500.000000
22
950.000000
32
213.397461
13
-500.000000
23
950.000000
33
213.397461
0
3DFACE
8
0
10
-500.000000
20
1200.000000
30
150.000000
11
-500.000000
21
1250.000000
31
86.602539
12
-500.000000
22
1150.000000
32
86.602539
13
-500.000000
23
1150.000000
33
86.602539
0
3DFACE
8
0
10
-500.000000
20
400.000000
30
150.000000
11
-500.000000
21
450.000000
31
86.602539
12
-500.000000
22
350.000000
32
86.602539
13
-500.000000
23
350.000000
33
86.602539
0
3DFACE
8
0
10
-500.000000
20
400.000000
30
150.000000
11
-500.000000
21
350.000000
31
213.397461
12
-500.000000
22
450.000000
32
213.397461
13
-500.000000
23
450.000000
33
213.397461
0
3DFACE
8
0
10
-500.000000
20
1100.000000
30
150.000000
11
-500.000000
21
1150.000000
31
86.602539
12
-500.000000
22
1050.000000
32
86.602539
13
-500.000000
23
1050.000000
33
86.602539
0
3DFACE
8
0
10
-500.000000
20
700.000000
30
150.000000
11
-500.000000
21
750.000000
31
86.602539
12
-500.000000
22
650.000000
32
86.602539
13
-500.000000
23
650.000000
33
86.602539
0
3DFACE
8
0
10
-500.000000
20
300.000000
30
150.000000
11
-500.000000
21
251.471008
31
215.986481
12
-500.000000
22
350.000000
32
213.397461
13
-500.000000
23
350.000000
33
213.397461
0
3DFACE
8
0
10
-500.000000
20
500.000000
30
150.000000
11
-500.000000
21
550.000000
31
86.602539
12
-500.000000
22
450.000000
32
86.602539
13
-500.000000
23
450.000000
33
86.602539
0
3DFACE
8
0
10
-500.000000
20
500.000000
30
150.000000
11
-500.000000
21
600.000000
31
150.000000
12
-500.000000
22
550.000000
32
86.602539
13
-500.000000
23
550.000000
33
86.602539
0
3DFACE
8
0
10
-500.000000
20
700.000000
30
150.000000
11
-500.000000
21
650.000000
31
213.397461
12
-500.000000
22
750.000000
32
213.397461
13
-500.000000
23
750.000000
33
213.397461
0
3DFACE
8
0
10
-500.000000
20
1300.000000
30
150.000000
11
-500.000000
21
1200.000000
31
150.000000
12
-500.000000
22
1250.000000
32
213.397461
13
-500.000000
23
1250.000000
33
213.397461
0
3DFACE
8
0
10
-500.000000
20
600.000000
30
150.000000
11
-500.000000
21
650.000000
31
86.602539
12
-500.000000
22
550.000000
32
86.602539
13
-500.000000
23
550.000000
33
86.602539
0
3DFACE
8
0
10
-500.000000
20
1300.000000
30
150.000000
11
-500.000000
21
1250.000000
31
86.602539
12
-500.000000
22
1200.000000
32
150.000000
13
-500.000000
23
1200.000000
33
150.000000
0
3DFACE
8
0
10
-500.000000
20
1000.000000
30
150.000000
11
-500.000000
21
1050.000000
31
86.602539
12
-500.000000
22
950.000000
32
86.602539
13
-500.000000
23
950.000000
33
86.602539
0
3DFACE
8
0
10
-500.000000
20
1000.000000
30
150.000000
11
-500.000000
21
950.000000
31
86.602539
12
-500.000000
22
900.000000
32
150.000000
13
-500.000000
23
900.000000
33
150.000000
0
3DFACE
8
0
10
-500.000000
20
500.000000
30
150.000000
11
-500.000000
21
550.000000
31
213.397461
12
-500.000000
22
600.000000
32
150.000000
13
-500.000000
23
600.000000
33
150.000000
0
3DFACE
8
0
10
-500.000000
20
500.000000
30
150.000000
11
-500.000000
21
450.000000
31
86.602539
12
-500.000000
22
400.000000
32
150.000000
13
-500.000000
23
400.000000
33
150.000000
0
3DFACE
8
0
10
-500.000000
20
500.000000
30
150.000000
11
-500.000000
21
400.000000
31
150.000000
12
-500.000000
22
450.000000
32
213.397461
13
-500.000000
23
450.000000
33
213.397461
0
3DFACE
8
0
10
-500.000000
20
1000.000000
30
150.000000
11
-500.000000
21
900.000000
31
150.000000
12
-500.000000
22
950.000000
32
213.397461
13
-500.000000
23
950.000000
33
213.397461
0
3DFACE
8
0
10
-500.000000
20
1300.000000
30
150.000000
11
-500.000000
21
1350.000000
31
86.602539
12
-500.000000
22
1250.000000
32
86.602539
13
-500.000000
23
1250.000000
33
86.602539
0
3DFACE
8
0
10
-500.000000
20
300.000000
30
150.000000
11
-500.000000
21
400.000000
31
150.000000
12
-500.000000
22
350.000000
32
86.602539
13
-500.000000
23
350.000000
33
86.602539
0
3DFACE
8
0
10
-500.000000
20
300.000000
30
150.000000
11
-500.000000
21
350.000000
31
213.397461
12
-500.000000
22
400.000000
32
150.000000
13
-500.000000
23
400.000000
33
150.000000
0
3DFACE
8
0
10
-500.000000
20
1000.000000
30
150.000000
11
-500.000000
21
950.000000
31
213.397461
12
-500.000000
22
1050.000000
32
213.397461
13
-500.000000
23
1050.000000
33
213.397461
0
3DFACE
8
0
10
-500.000000
20
500.000000
30
150.000000
11
-500.000000
21
450.000000
31
213.397461
12
-500.000000
22
550.000000
32
213.397461
13
-500.000000
23
550.000000
33
213.397461
0
3DFACE
8
0
10
-500.000000
20
800.000000
30
150.000000
11
-500.000000
21
750.000000
31
213.397461
12
-500.000000
22
850.000000
32
213.397461
13
-500.000000
23
850.000000
33
213.397461
0
3DFACE
8
0
10
-500.000000
20
1100.000000
30
150.000000
11
-500.000000
21
1000.000000
31
150.000000
12
-500.000000
22
1050.000000
32
213.397461
13
-500.000000
23
1050.000000
33
213.397461
0
3DFACE
8
0
10
-500.000000
20
1300.000000
30
150.000000
11
-500.000000
21
1250.000000
31
213.397461
12
-500.000000
22
1350.000000
32
213.397461
13
-500.000000
23
1350.000000
33
213.397461
0
3DFACE
8
0
10
-500.000000
20
1100.000000
30
150.000000
11
-500.000000
21
1050.000000
31
86.602539
12
-500.000000
22
1000.000000
32
150.000000
13
-500.000000
23
1000.000000
33
150.000000
0
3DFACE
8
0
10
-500.000000
20
300.000000
30
150.000000
11
-500.000000
21
350.000000
31
86.602539
12
-500.000000
22
251.471008
32
84.013519
13
-500.000000
23
251.471008
33
84.013519
0
3DFACE
8
0
10
-500.000000
20
1100.000000
30
150.000000
11
-500.000000
21
1050.000000
31
213.397461
12
-500.000000
22
1150.000000
32
213.397461
13
-500.000000
23
1150.000000
33
213.397461
0
3DFACE
8
0
10
-500.000000
20
800.000000
30
150.000000
11
-500.000000
21
850.000000
31
86.602539
12
-500.000000
22
750.000000
32
86.602539
13
-500.000000
23
750.000000
33
86.602539
0
3DFACE
8
0
10
-500.000000
20
800.000000
30
150.000000
11
-500.000000
21
750.000000
31
86.602539
12
-500.000000
22
700.000000
32
150.000000
13
-500.000000
23
700.000000
33
150.000000
0
3DFACE
8
0
10
-500.000000
20
800.000000
30
150.000000
11
-500.000000
21
700.000000
31
150.000000
12
-500.000000
22
750.000000
32
213.397461
13
-500.000000
23
750.000000
33
213.397461
0
3DFACE
8
0
10
-500.000000
20
73.205078
30
73.205078
11
-500.000000
21
154.903809
31
83.771324
12
-500.000000
22
100.000000
32
0.000000
13
-500.000000
23
100.000000
33
0.000000
0
3DFACE
8
0
10
-500.000000
20
73.205078
30
226.794922
11
-500.000000
21
100.000000
31
300.000000
12
-500.000000
22
154.903809
32
216.228683
13
-500.000000
23
154.903809
33
216.228683
0
3DFACE
8
0
10
-500.000000
20
200.522278
30
150.000000
11
-500.000000
21
300.000000
31
150.000000
12
-500.000000
22
251.471008
32
84.013519
13
-500.000000
23
251.471008
33
84.013519
0
3DFACE
8
0
10
-500.000000
20
200.522278
30
150.000000
11
-500.000000
21
251.471008
31
215.986481
12
-500.000000
22
300.000000
32
150.000000
13
-500.000000
23
300.000000
33
150.000000
0
3DFACE
8
0
10
-500.000000
20
1427.304077
30
227.304077
11
-500.000000
21
1350.000000
31
213.397461
12
-500.000000
22
1400.000000
32
300.000000
13
-500.000000
23
1400.000000
33
300.000000
0
3DFACE
8
0
10
-500.000000
20
1427.304077
30
72.695923
11
-500.000000
21
1400.000000
31
0.000000
12
-500.000000
22
1350.000000
32
86.602539
13
-500.000000
23
1350.000000
33
86.602539
0
3DFACE
8
0
10
-500.000000
20
73.205078
30
226.794922
11
-500.000000
21
94.385078
31
150.000000
12
-500.000000
22
0.000000
32
200.000000
13
-500.000000
23
0.000000
33
200.000000
0
3DFACE
8
0
10
-500.000000
20
73.205078
30
73.205078
11
-500.000000
21
0.000000
31
100.000000
12
-500.000000
22
94.385078
32
150.000000
13
-500.000000
23
94.385078
33
150.000000
0
3DFACE
8
0
10
-500.000000
20
200.522278
30
150.000000
11
-500.000000
21
251.471008
31
84.013519
12
-500.000000
22
154.903809
32
83.771324
13
-500.000000
23
154.903809
33
83.771324
0
3DFACE
8
0
10
-500.000000
20
200.522278
30
150.000000
11
-500.000000
21
154.903809
31
216.228683
12
-500.000000
22
251.471008
32
215.986481
13
-500.000000
23
251.471008
33
215.986481
0
3DFACE
8
0
10
-500.000000
20
73.205078
30
73.205078
11
-500.000000
21
94.385078
31
150.000000
12
-500.000000
22
154.903809
32
83.771324
13
-500.000000
23
154.903809
33
83.771324
0
3DFACE
8
0
10
-500.000000
20
73.205078
30
226.794922
11
-500.000000
21
154.903809
31
216.228683
12
-500.000000
22
94.385078
32
150.000000
13
-500.000000
23
94.385078
33
150.000000
0
3DFACE
8
0
10
-500.000000
20
1427.304077
30
227.304077
11
-500.000000
21
1406.441528
31
150.000000
12
-500.000000
22
1350.000000
32
213.397461
13
-500.000000
23
1350.000000
33
213.397461
0
3DFACE
8
0
10
-500.000000
20
1427.304077
30
72.695923
11
-500.000000
21
1350.000000
31
86.602539
12
-500.000000
22
1406.441528
32
150.000000
13
-500.000000
23
1406.441528
33
150.000000
0
3DFACE
8
0
10
-500.000000
20
1427.304077
30
72.695923
11
-500.000000
21
1406.441528
31
150.000000
12
-500.000000
22
1500.000000
32
100.000000
13
-500.000000
23
1500.000000
33
100.000000
0
3DFACE
8
0
10
-500.000000
20
1427.304077
30
227.304077
11
-500.000000
21
1500.000000
31
200.000000
12
-500.000000
22
1406.441528
32
150.000000
13
-500.000000
23
1406.441528
33
150.000000
0
3DFACE
8
0
10
-315.089081
20
1269.578125
30
35.897533
11
-409.045135
21
1257.393677
31
-25.087318
12
-360.638184
22
1342.576904
32
9.254337
13
-360.638184
23
1342.576904
33
9.254337
0
3DFACE
8
0
10
197.334808
20
1184.421509
30
27.599653
11
275.089081
21
1136.709351
31
49.125191
12
211.694595
22
1073.910278
32
36.404545
13
211.694595
23
1073.910278
33
36.404545
0
3DFACE
8
0
10
197.334808
20
1184.421509
30
27.599653
11
211.694595
21
1073.910278
31
36.404545
12
145.095917
22
1114.544556
32
-13.339838
13
145.095917
23
1114.544556
33
-13.339838
0
3DFACE
8
0
10
-269.109039
20
831.288635
30
49.945812
11
-272.906830
21
956.642883
31
49.465244
12
-189.774963
22
883.407410
32
22.394384
13
-189.774963
23
883.407410
33
22.394384
0
3DFACE
8
0
10
275.089081
20
1136.709351
30
49.125191
11
354.533417
21
1095.729370
31
13.312553
12
301.588745
22
1022.263794
32
41.691860
13
301.588745
23
1022.263794
33
41.691860
0
3DFACE
8
0
10
450.893402
20
1426.008057
30
-49.074783
11
439.881348
21
1500.000000
31
-44.523674
12
500.000000
22
1500.000000
32
0.000000
13
500.000000
23
1500.000000
33
0.000000
0
3DFACE
8
0
10
-269.109039
20
831.288635
30
49.945812
11
-348.653534
21
900.053955
31
17.105902
12
-272.906830
22
956.642883
32
49.465244
13
-272.906830
23
956.642883
33
49.465244
0
3DFACE
8
0
10
-456.744812
20
68.197090
30
-50.401909
11
-439.881348
21
0.000000
31
-44.523674
12
-500.000000
22
0.000000
32
0.000000
13
-500.000000
23
0.000000
33
0.000000
0
3DFACE
8
0
10
211.694595
20
1073.910278
30
36.404545
11
275.089081
21
1136.709351
31
49.125191
12
301.588745
22
1022.263794
32
41.691860
13
301.588745
23
1022.263794
33
41.691860
0
3DFACE
8
0
10
-315.089081
20
1269.578125
30
35.897533
11
-343.482880
21
1187.350952
31
20.336706
12
-409.045135
22
1257.393677
32
-25.087318
13
-409.045135
23
1257.393677
33
-25.087318
0
3DFACE
8
0
10
-183.949341
20
1086.650146
30
18.160389
11
-122.852684
21
1027.230103
31
-32.382366
12
-185.419601
22
988.518799
32
19.245737
13
-185.419601
23
988.518799
33
19.245737
0
3DFACE
8
0
10
-319.657867
20
228.225571
30
33.678963
11
-362.590820
21
156.724335
31
7.933153
12
-410.769348
22
241.450531
32
-26.298376
13
-410.769348
23
241.450531
33
-26.298376
0
3DFACE
8
0
10
396.076080
20
1257.160156
30
-15.812101
11
500.000000
21
1200.000000
31
0.000000
12
418.257111
22
1151.760986
32
-31.452759
13
418.257111
23
1151.760986
33
-31.452759
0
3DFACE
8
0
10
396.221130
20
242.824982
30
-15.916788
11
418.962067
21
348.203644
31
-31.927240
12
500.000000
22
300.000000
32
0.000000
13
500.000000
23
300.000000
33
0.000000
0
3DFACE
8
0
10
272.564453
20
471.616760
30
49.514416
11
353.472443
21
509.107574
31
14.005828
12
349.742554
22
413.449371
32
16.412539
13
349.742554
23
413.449371
33
16.412539
0
3DFACE
8
0
10
-435.460419
20
1348.319702
30
-42.180450
11
-360.638184
21
1342.576904
31
9.254337
12
-409.045135
22
1257.393677
32
-25.087318
13
-409.045135
23
1257.393677
33
-25.087318
0
3DFACE
8
0
10
-436.217194
20
143.808578
30
-42.597443
11
-410.769348
21
241.450531
31
-26.298376
12
-362.590820
22
156.724335
32
7.933153
13
-362.590820
23
156.724335
33
7.933153
0
3DFACE
8
0
10
-185.419601
20
988.518799
30
19.245737
11
-189.774963
21
883.407410
31
22.394384
12
-272.906830
22
956.642883
32
49.465244
13
-272.906830
23
956.642883
33
49.465244
0
3DFACE
8
0
10
450.893402
20
1426.008057
30
-49.074783
11
500.000000
21
1500.000000
31
0.000000
12
500.000000
22
1400.000000
32
0.000000
13
500.000000
23
1400.000000
33
0.000000
0
3DFACE
8
0
10
342.300354
20
321.229218
30
21.060726
11
418.962067
21
348.203644
31
-31.927240
12
396.221130
22
242.824982
32
-15.916788
13
396.221130
23
242.824982
33
-15.916788
0
3DFACE
8
0
10
341.602997
20
1189.446899
30
21.485001
11
396.076080
21
1257.160156
31
-15.812101
12
418.257111
22
1151.760986
32
-31.452759
13
418.257111
23
1151.760986
33
-31.452759
0
3DFACE
8
0
10
-456.744812
20
68.197090
30
-50.401909
11
-500.000000
21
0.000000
31
0.000000
12
-500.000000
22
100.000000
32
0.000000
13
-500.000000
23
100.000000
33
0.000000
0
3DFACE
8
0
10
33.847843
20
477.863861
30
-93.032539
11
-7.305057
21
394.347443
31
-99.645790
12
-60.263165
22
486.469452
32
-79.765358
13
-60.263165
23
486.469452
33
-79.765358
0
3DFACE
8
0
10
-87.692780
20
385.484314
30
-60.955849
11
-60.263165
21
486.469452
31
-79.765358
12
-7.305057
22
394.347443
32
-99.645790
13
-7.305057
23
394.347443
33
-99.645790
0
3DFACE
8
0
10
-183.949341
20
1086.650146
30
18.160389
11
-185.419601
21
988.518799
31
19.245737
12
-239.738327
22
1047.936401
32
48.104298
13
-239.738327
23
1047.936401
33
48.104298
0
3DFACE
8
0
10
-319.657867
20
228.225571
30
33.678963
11
-410.769348
21
241.450531
31
-26.298376
12
-345.509521
22
311.350342
32
19.082754
13
-345.509521
23
311.350342
33
19.082754
0
3DFACE
8
0
10
365.271484
20
796.088135
30
6.102748
11
356.254456
21
699.074524
31
12.180142
12
291.005188
22
742.595886
32
45.344524
13
291.005188
23
742.595886
33
45.344524
0
3DFACE
8
0
10
-349.648468
20
800.565308
30
16.472620
11
-348.653534
21
900.053955
31
17.105902
12
-269.109039
22
831.288635
32
49.945812
13
-269.109039
23
831.288635
33
49.945812
0
3DFACE
8
0
10
262.153564
20
315.354309
30
50.441147
11
314.526154
21
235.903473
31
36.162334
12
229.116257
22
236.267303
32
44.680611
13
229.116257
23
236.267303
33
44.680611
0
3DFACE
8
0
10
353.472443
20
509.107574
30
14.005828
11
423.045868
21
449.148102
31
-34.629768
12
349.742554
22
413.449371
32
16.412539
13
349.742554
23
413.449371
33
16.412539
0
3DFACE
8
0
10
353.472443
20
509.107574
30
14.005828
11
423.144867
21
552.120728
31
-34.694202
12
423.045868
22
449.148102
32
-34.629768
13
423.045868
23
449.148102
33
-34.629768
0
3DFACE
8
0
10
289.731140
20
383.812836
30
45.726242
11
272.564453
21
471.616760
31
49.514416
12
349.742554
22
413.449371
32
16.412539
13
349.742554
23
413.449371
33
16.412539
0
3DFACE
8
0
10
366.766113
20
997.239990
30
5.074306
11
352.622559
21
891.562866
31
14.558449
12
303.702667
22
950.145874
32
40.864525
13
303.702667
23
950.145874
33
40.864525
0
3DFACE
8
0
10
-349.025909
20
592.647644
30
16.869312
11
-350.099670
21
700.140320
31
16.184240
12
-269.270599
22
641.394470
32
49.928310
13
-269.270599
23
641.394470
33
49.928310
0
3DFACE
8
0
10
18.861301
20
1195.741821
30
-97.727013
11
84.753853
21
1256.633667
31
-63.158497
12
88.305832
22
1157.848877
32
-60.491642
13
88.305832
23
1157.848877
33
-60.491642
0
3DFACE
8
0
10
-420.042267
20
852.610413
30
-32.649979
11
-419.693573
21
750.000000
31
-32.417259
12
-500.000000
22
800.000000
32
0.000000
13
-500.000000
23
800.000000
33
0.000000
0
3DFACE
8
0
10
113.052437
20
639.471558
30
-40.654240
11
75.482071
21
559.383118
31
-69.839264
12
23.538706
22
638.296021
32
-96.514000
13
23.538706
23
638.296021
33
-96.514000
0
3DFACE
8
0
10
262.153564
20
315.354309
30
50.441147
11
342.300354
21
321.229218
31
21.060726
12
314.526154
22
235.903473
32
36.162334
13
314.526154
23
235.903473
33
36.162334
0
3DFACE
8
0
10
-183.949341
20
1086.650146
30
18.160389
11
-121.757996
21
1112.832886
31
-33.313290
12
-122.852684
22
1027.230103
32
-32.382366
13
-122.852684
23
1027.230103
33
-32.382366
0
3DFACE
8
0
10
-107.000435
20
1201.912476
30
-45.671291
11
-121.757996
21
1112.832886
31
-33.313290
12
-188.341812
22
1184.646362
32
21.369637
13
-188.341812
23
1184.646362
33
21.369637
0
3DFACE
8
0
10
-349.648468
20
800.565308
30
16.472620
11
-419.693573
21
750.000000
31
-32.417259
12
-420.042267
22
852.610413
32
-32.649979
13
-420.042267
23
852.610413
33
-32.649979
0
3DFACE
8
0
10
365.271484
20
796.088135
30
6.102748
11
291.005188
21
742.595886
31
45.344524
12
304.865570
22
823.864990
32
40.396229
13
304.865570
23
823.864990
33
40.396229
0
3DFACE
8
0
10
437.798737
20
1346.668335
30
-43.448494
11
360.103241
21
1345.820923
31
9.614418
12
393.481689
22
1422.285522
32
-13.938547
13
393.481689
23
1422.285522
33
-13.938547
0
3DFACE
8
0
10
437.800171
20
153.330811
30
-43.449249
11
398.010681
21
74.304131
31
-17.207432
12
360.105804
22
154.190506
32
9.612695
13
360.105804
23
154.190506
33
9.612695
0
3DFACE
8
0
10
-349.025909
20
592.647644
30
16.869312
11
-419.379242
21
646.837524
31
-32.206978
12
-350.099670
22
700.140320
32
16.184240
13
-350.099670
23
700.140320
33
16.184240
0
3DFACE
8
0
10
-393.855469
20
78.200935
30
-14.208560
11
-362.836212
21
0.000000
31
7.766373
12
-439.881348
22
0.000000
32
-44.523674
13
-439.881348
23
0.000000
33
-44.523674
0
3DFACE
8
0
10
-398.026794
20
1425.453857
30
-17.219042
11
-439.881348
21
1500.000000
31
-44.523674
12
-362.836212
22
1500.000000
32
7.766373
13
-362.836212
23
1500.000000
33
7.766373
0
3DFACE
8
0
10
393.481689
20
1422.285522
30
-13.938547
11
362.836212
21
1500.000000
31
7.766372
12
439.881348
22
1500.000000
32
-44.523674
13
439.881348
23
1500.000000
33
-44.523674
0
3DFACE
8
0
10
398.010681
20
74.304131
30
-17.207432
11
439.881348
21
0.000000
31
-44.523674
12
362.836212
22
0.000000
32
7.766372
13
362.836212
23
0.000000
33
7.766372
0
3DFACE
8
0
10
-393.855469
20
78.200935
30
-14.208560
11
-362.590820
21
156.724335
31
7.933153
12
-323.100616
22
79.015404
32
31.928349
13
-323.100616
23
79.015404
33
31.928349
0
3DFACE
8
0
10
-398.026794
20
1425.453857
30
-17.219042
11
-323.100616
21
1420.984619
31
31.928349
12
-360.638184
22
1342.576904
32
9.254337
13
-360.638184
23
1342.576904
33
9.254337
0
3DFACE
8
0
10
398.010681
20
74.304131
30
-17.207432
11
323.100616
21
79.015404
31
31.928349
12
360.105804
22
154.190506
32
9.612695
13
360.105804
23
154.190506
33
9.612695
0
3DFACE
8
0
10
393.481689
20
1422.285522
30
-13.938547
11
360.103241
21
1345.820923
31
9.614418
12
323.100616
22
1420.984619
32
31.928349
13
323.100616
23
1420.984619
33
31.928349
0
3DFACE
8
0
10
-435.460419
20
1348.319702
30
-42.180450
11
-398.026794
21
1425.453857
31
-17.219042
12
-360.638184
22
1342.576904
32
9.254337
13
-360.638184
23
1342.576904
33
9.254337
0
3DFACE
8
0
10
-436.217194
20
143.808578
30
-42.597443
11
-362.590820
21
156.724335
31
7.933153
12
-393.855469
22
78.200935
32
-14.208560
13
-393.855469
23
78.200935
33
-14.208560
0
3DFACE
8
0
10
474.302124
20
88.510086
30
-49.415653
11
500.000000
21
0.000000
31
0.000000
12
439.881348
22
0.000000
32
-44.523674
13
439.881348
23
0.000000
33
-44.523674
0
3DFACE
8
0
10
-419.379242
20
646.837524
30
-32.206978
11
-500.000000
21
700.000000
31
0.000000
12
-419.693573
22
750.000000
32
-32.417259
13
-419.693573
23
750.000000
33
-32.417259
0
3DFACE
8
0
10
-349.648468
20
800.565308
30
16.472620
11
-268.853058
21
738.793579
31
49.973003
12
-350.099670
22
700.140320
32
16.184240
13
-350.099670
23
700.140320
33
16.184240
0
3DFACE
8
0
10
-474.056610
20
1411.736206
30
-49.510918
11
-500.000000
21
1500.000000
31
0.000000
12
-439.881348
22
1500.000000
32
-44.523674
13
-439.881348
23
1500.000000
33
-44.523674
0
3DFACE
8
0
10
-349.648468
20
800.565308
30
16.472620
11
-420.042267
21
852.610413
31
-32.649979
12
-348.653534
22
900.053955
32
17.105902
13
-348.653534
23
900.053955
33
17.105902
0
3DFACE
8
0
10
135.318573
20
1198.931885
30
-21.714800
11
88.305832
21
1157.848877
31
-60.491642
12
84.753853
22
1256.633667
32
-63.158497
13
84.753853
23
1256.633667
33
-63.158497
0
3DFACE
8
0
10
423.045868
20
449.148102
30
-34.629768
11
423.144867
21
552.120728
31
-34.694202
12
500.000000
22
500.000000
32
0.000000
13
500.000000
23
500.000000
33
0.000000
0
3DFACE
8
0
10
-87.692780
20
385.484314
30
-60.955849
11
-134.272308
21
446.614319
31
-22.612568
12
-60.263165
22
486.469452
32
-79.765358
13
-60.263165
23
486.469452
33
-79.765358
0
3DFACE
8
0
10
-350.099670
20
700.140320
30
16.184240
11
-419.379242
21
646.837524
31
-32.206978
12
-419.693573
22
750.000000
32
-32.417259
13
-419.693573
23
750.000000
33
-32.417259
0
3DFACE
8
0
10
183.608047
20
639.684143
30
17.906895
11
272.215363
21
644.582642
31
49.563370
12
222.770630
22
560.816406
32
42.015995
13
222.770630
23
560.816406
33
42.015995
0
3DFACE
8
0
10
366.766113
20
997.239990
30
5.074306
11
303.702667
21
950.145874
31
40.864525
12
301.588745
22
1022.263794
32
41.691860
13
301.588745
23
1022.263794
33
41.691860
0
3DFACE
8
0
10
-183.949341
20
1086.650146
30
18.160389
11
-188.341812
21
1184.646362
31
21.369637
12
-121.757996
22
1112.832886
32
-33.313290
13
-121.757996
23
1112.832886
33
-33.313290
0
3DFACE
8
0
10
423.060913
20
651.407166
30
-34.639553
11
500.000000
21
600.000000
31
0.000000
12
423.144867
22
552.120728
32
-34.694202
13
423.144867
23
552.120728
33
-34.694202
0
3DFACE
8
0
10
427.447998
20
847.889160
30
-37.438736
11
428.021637
21
948.255371
31
-37.795464
12
500.000000
22
900.000000
32
0.000000
13
500.000000
23
900.000000
33
0.000000
0
3DFACE
8
0
10
183.608047
20
639.684143
30
17.906895
11
113.052437
21
639.471558
31
-40.654240
12
151.900360
22
728.005188
32
-7.558205
13
151.900360
23
728.005188
33
-7.558205
0
3DFACE
8
0
10
427.567413
20
1050.478394
30
-37.513187
11
500.000000
21
1000.000000
31
0.000000
12
428.021637
22
948.255371
32
-37.795464
13
428.021637
23
948.255371
33
-37.795464
0
3DFACE
8
0
10
-349.648468
20
800.565308
30
16.472620
11
-269.109039
21
831.288635
31
49.945812
12
-268.853058
22
738.793579
32
49.973003
13
-268.853058
23
738.793579
33
49.973003
0
3DFACE
8
0
10
-435.460419
20
1348.319702
30
-42.180450
11
-409.045135
21
1257.393677
31
-25.087318
12
-500.000000
22
1300.000000
32
0.000000
13
-500.000000
23
1300.000000
33
0.000000
0
3DFACE
8
0
10
-436.217194
20
143.808578
30
-42.597443
11
-500.000000
21
200.000000
31
0.000000
12
-410.769348
22
241.450531
32
-26.298376
13
-410.769348
23
241.450531
33
-26.298376
0
3DFACE
8
0
10
-183.949341
20
1086.650146
30
18.160389
11
-239.738327
21
1047.936401
31
48.104298
12
-267.879272
22
1127.353516
32
50.070316
13
-267.879272
23
1127.353516
33
50.070316
0
3DFACE
8
0
10
366.766113
20
997.239990
30
5.074306
11
428.021637
21
948.255371
31
-37.795464
12
352.622559
22
891.562866
32
14.558449
13
352.622559
23
891.562866
33
14.558449
0
3DFACE
8
0
10
-239.738327
20
1047.936401
30
48.104298
11
-185.419601
21
988.518799
31
19.245737
12
-272.906830
22
956.642883
32
49.465244
13
-272.906830
23
956.642883
33
49.465244
0
3DFACE
8
0
10
-349.648468
20
800.565308
30
16.472620
11
-350.099670
21
700.140320
31
16.184240
12
-419.693573
22
750.000000
32
-32.417259
13
-419.693573
23
750.000000
33
-32.417259
0
3DFACE
8
0
10
355.131622
20
603.269043
30
12.920018
11
423.060913
21
651.407166
31
-34.639553
12
423.144867
22
552.120728
32
-34.694202
13
423.144867
23
552.120728
33
-34.694202
0
3DFACE
8
0
10
-419.379242
20
646.837524
30
-32.206978
11
-418.847351
21
546.520935
31
-31.850164
12
-500.000000
22
600.000000
32
0.000000
13
-500.000000
23
600.000000
33
0.000000
0
3DFACE
8
0
10
349.742554
20
413.449371
30
16.412539
11
418.962067
21
348.203644
31
-31.927240
12
342.300354
22
321.229218
32
21.060726
13
342.300354
23
321.229218
33
21.060726
0
3DFACE
8
0
10
-420.042267
20
852.610413
30
-32.649979
11
-500.000000
21
800.000000
31
0.000000
12
-500.000000
22
900.000000
32
0.000000
13
-500.000000
23
900.000000
33
0.000000
0
3DFACE
8
0
10
-183.949341
20
1086.650146
30
18.160389
11
-267.879272
21
1127.353516
31
50.070316
12
-188.341812
22
1184.646362
32
21.369637
13
-188.341812
23
1184.646362
33
21.369637
0
3DFACE
8
0
10
80.632065
20
705.708435
30
-66.181007
11
113.052437
21
639.471558
31
-40.654240
12
23.538706
22
638.296021
32
-96.514000
13
23.538706
23
638.296021
33
-96.514000
0
3DFACE
8
0
10
-421.120972
20
1149.047729
30
-33.366241
11
-420.957581
21
1051.051758
31
-33.258121
12
-500.000000
22
1100.000000
32
0.000000
13
-500.000000
23
1100.000000
33
0.000000
0
3DFACE
8
0
10
-421.121277
20
350.952148
30
-33.366451
11
-500.000000
21
400.000000
31
0.000000
12
-420.958557
22
448.950439
32
-33.258759
13
-420.958557
23
448.950439
33
-33.258759
0
3DFACE
8
0
10
-409.045135
20
1257.393677
30
-25.087318
11
-500.000000
21
1200.000000
31
0.000000
12
-500.000000
22
1300.000000
32
0.000000
13
-500.000000
23
1300.000000
33
0.000000
0
3DFACE
8
0
10
-410.769348
20
241.450531
30
-26.298376
11
-500.000000
21
200.000000
31
0.000000
12
-500.000000
22
300.000000
32
0.000000
13
-500.000000
23
300.000000
33
0.000000
0
3DFACE
8
0
10
-419.379242
20
646.837524
30
-32.206978
11
-500.000000
21
600.000000
31
0.000000
12
-500.000000
22
700.000000
32
0.000000
13
-500.000000
23
700.000000
33
0.000000
0
3DFACE
8
0
10
-268.853058
20
738.793579
30
49.973003
11
-269.270599
21
641.394470
31
49.928310
12
-350.099670
22
700.140320
32
16.184240
13
-350.099670
23
700.140320
33
16.184240
0
3DFACE
8
0
10
427.447998
20
847.889160
30
-37.438736
11
500.000000
21
800.000000
31
0.000000
12
426.302673
22
749.750671
32
-36.719711
13
426.302673
23
749.750671
33
-36.719711
0
3DFACE
8
0
10
423.060913
20
651.407166
30
-34.639553
11
426.302673
21
749.750671
31
-36.719711
12
500.000000
22
700.000000
32
0.000000
13
500.000000
23
700.000000
33
0.000000
0
3DFACE
8
0
10
-420.674713
20
953.754333
30
-33.070614
11
-500.000000
21
900.000000
31
0.000000
12
-500.000000
22
1000.000000
32
0.000000
13
-500.000000
23
1000.000000
33
0.000000
0
3DFACE
8
0
10
-418.847351
20
546.520935
30
-31.850164
11
-500.000000
21
500.000000
31
0.000000
12
-500.000000
22
600.000000
32
0.000000
13
-500.000000
23
600.000000
33
0.000000
0
3DFACE
8
0
10
-194.754532
20
313.078308
30
25.862556
11
-120.907570
21
307.071930
31
-34.035473
12
-157.682526
22
230.266479
32
-2.701449
13
-157.682526
23
230.266479
33
-2.701449
0
3DFACE
8
0
10
-354.743591
20
1099.167114
30
13.174774
11
-420.957581
21
1051.051758
31
-33.258121
12
-421.120972
22
1149.047729
32
-33.366241
13
-421.120972
23
1149.047729
33
-33.366241
0
3DFACE
8
0
10
-351.234192
20
400.000000
30
15.455886
11
-421.121277
21
350.952148
31
-33.366451
12
-420.958557
22
448.950439
32
-33.258759
13
-420.958557
23
448.950439
33
-33.258759
0
3DFACE
8
0
10
354.533417
20
1095.729370
30
13.312553
11
341.602997
21
1189.446899
31
21.485001
12
418.257111
22
1151.760986
32
-31.452759
13
418.257111
23
1151.760986
33
-31.452759
0
3DFACE
8
0
10
-349.025909
20
592.647644
30
16.869312
11
-418.847351
21
546.520935
31
-31.850164
12
-419.379242
22
646.837524
32
-32.206978
13
-419.379242
23
646.837524
33
-32.206978
0
3DFACE
8
0
10
-420.042267
20
852.610413
30
-32.649979
11
-500.000000
21
900.000000
31
0.000000
12
-420.674713
22
953.754333
32
-33.070614
13
-420.674713
23
953.754333
33
-33.070614
0
3DFACE
8
0
10
83.818962
20
77.209297
30
-63.851051
11
118.230904
21
155.236343
31
-36.302090
12
152.975327
22
77.545700
32
-6.650720
13
152.975327
23
77.545700
33
-6.650720
0
3DFACE
8
0
10
-153.710052
20
1422.946655
30
-6.031590
11
-84.449867
21
1423.400635
31
-63.384125
12
-118.662254
22
1346.326904
32
-35.937527
13
-118.662254
23
1346.326904
33
-35.937527
0
3DFACE
8
0
10
427.567413
20
1050.478394
30
-37.513187
11
418.257111
21
1151.760986
31
-31.452759
12
500.000000
22
1100.000000
32
0.000000
13
500.000000
23
1100.000000
33
0.000000
0
3DFACE
8
0
10
356.254456
20
699.074524
30
12.180142
11
426.302673
21
749.750671
31
-36.719711
12
423.060913
22
651.407166
32
-34.639553
13
423.060913
23
651.407166
33
-34.639553
0
3DFACE
8
0
10
426.302673
20
749.750671
30
-36.719711
11
500.000000
21
800.000000
31
0.000000
12
500.000000
22
700.000000
32
0.000000
13
500.000000
23
700.000000
33
0.000000
0
3DFACE
8
0
10
423.144867
20
552.120728
30
-34.694202
11
500.000000
21
600.000000
31
0.000000
12
500.000000
22
500.000000
32
0.000000
13
500.000000
23
500.000000
33
0.000000
0
3DFACE
8
0
10
428.021637
20
948.255371
30
-37.795464
11
500.000000
21
1000.000000
31
0.000000
12
500.000000
22
900.000000
32
0.000000
13
500.000000
23
900.000000
33
0.000000
0
3DFACE
8
0
10
153.723892
20
1422.749756
30
-6.019926
11
118.357285
21
1345.685303
31
-36.195309
12
84.428368
22
1423.084717
32
-63.400063
13
84.428368
23
1423.084717
33
-63.400063
0
3DFACE
8
0
10
-122.852684
20
1027.230103
30
-32.382366
11
-58.869678
21
970.575256
31
-80.600273
12
-124.110893
22
928.095947
32
-31.310717
13
-124.110893
23
928.095947
33
-31.310717
0
3DFACE
8
0
10
314.526154
20
235.903473
30
36.162334
11
342.300354
21
321.229218
31
21.060726
12
396.221130
22
242.824982
32
-15.916788
13
396.221130
23
242.824982
33
-15.916788
0
3DFACE
8
0
10
354.533417
20
1095.729370
30
13.312553
11
418.257111
21
1151.760986
31
-31.452759
12
427.567413
22
1050.478394
32
-37.513187
13
427.567413
23
1050.478394
33
-37.513187
0
3DFACE
8
0
10
320.563049
20
1272.213867
30
33.225098
11
396.076080
21
1257.160156
31
-15.812101
12
341.602997
22
1189.446899
32
21.485001
13
341.602997
23
1189.446899
33
21.485001
0
3DFACE
8
0
10
418.257111
20
1151.760986
30
-31.452759
11
500.000000
21
1200.000000
31
0.000000
12
500.000000
22
1100.000000
32
0.000000
13
500.000000
23
1100.000000
33
0.000000
0
3DFACE
8
0
10
418.962067
20
348.203644
30
-31.927240
11
500.000000
21
400.000000
31
0.000000
12
500.000000
22
300.000000
32
0.000000
13
500.000000
23
300.000000
33
0.000000
0
3DFACE
8
0
10
83.818962
20
77.209297
30
-63.851051
11
152.975327
21
77.545700
31
-6.650720
12
120.437492
22
0.000000
32
-34.434265
13
120.437492
23
0.000000
33
-34.434265
0
3DFACE
8
0
10
-421.120972
20
1149.047729
30
-33.366241
11
-500.000000
21
1100.000000
31
0.000000
12
-500.000000
22
1200.000000
32
0.000000
13
-500.000000
23
1200.000000
33
0.000000
0
3DFACE
8
0
10
-420.957581
20
1051.051758
30
-33.258121
11
-500.000000
21
1000.000000
31
0.000000
12
-500.000000
22
1100.000000
32
0.000000
13
-500.000000
23
1100.000000
33
0.000000
0
3DFACE
8
0
10
-420.958557
20
448.950439
30
-33.258759
11
-500.000000
21
400.000000
31
0.000000
12
-500.000000
22
500.000000
32
0.000000
13
-500.000000
23
500.000000
33
0.000000
0
3DFACE
8
0
10
-421.121277
20
350.952148
30
-33.366451
11
-500.000000
21
300.000000
31
0.000000
12
-500.000000
22
400.000000
32
0.000000
13
-500.000000
23
400.000000
33
0.000000
0
3DFACE
8
0
10
-419.693573
20
750.000000
30
-32.417259
11
-500.000000
21
700.000000
31
0.000000
12
-500.000000
22
800.000000
32
0.000000
13
-500.000000
23
800.000000
33
0.000000
0
3DFACE
8
0
10
-410.769348
20
241.450531
30
-26.298376
11
-500.000000
21
300.000000
31
0.000000
12
-421.121277
22
350.952148
32
-33.366451
13
-421.121277
23
350.952148
33
-33.366451
0
3DFACE
8
0
10
-409.045135
20
1257.393677
30
-25.087318
11
-421.120972
21
1149.047729
31
-33.366241
12
-500.000000
22
1200.000000
32
0.000000
13
-500.000000
23
1200.000000
33
0.000000
0
3DFACE
8
0
10
474.302124
20
88.510086
30
-49.415653
11
398.010681
21
74.304131
31
-17.207432
12
437.800171
22
153.330811
32
-43.449249
13
437.800171
23
153.330811
33
-43.449249
0
3DFACE
8
0
10
474.302124
20
88.510086
30
-49.415653
11
439.881348
21
0.000000
31
-44.523674
12
398.010681
22
74.304131
32
-17.207432
13
398.010681
23
74.304131
33
-17.207432
0
3DFACE
8
0
10
-418.847351
20
546.520935
30
-31.850164
11
-420.958557
21
448.950439
31
-33.258759
12
-500.000000
22
500.000000
32
0.000000
13
-500.000000
23
500.000000
33
0.000000
0
3DFACE
8
0
10
-420.674713
20
953.754333
30
-33.070614
11
-500.000000
21
1000.000000
31
0.000000
12
-420.957581
22
1051.051758
32
-33.258121
13
-420.957581
23
1051.051758
33
-33.258121
0
3DFACE
8
0
10
427.447998
20
847.889160
30
-37.438736
11
500.000000
21
900.000000
31
0.000000
12
500.000000
22
800.000000
32
0.000000
13
500.000000
23
800.000000
33
0.000000
0
3DFACE
8
0
10
423.060913
20
651.407166
30
-34.639553
11
500.000000
21
700.000000
31
0.000000
12
500.000000
22
600.000000
32
0.000000
13
500.000000
23
600.000000
33
0.000000
0
3DFACE
8
0
10
353.472443
20
509.107574
30
14.005828
11
355.131622
21
603.269043
31
12.920018
12
423.144867
22
552.120728
32
-34.694202
13
423.144867
23
552.120728
33
-34.694202
0
3DFACE
8
0
10
-474.056610
20
1411.736206
30
-49.510918
11
-439.881348
21
1500.000000
31
-44.523674
12
-398.026794
22
1425.453857
32
-17.219042
13
-398.026794
23
1425.453857
33
-17.219042
0
3DFACE
8
0
10
211.694595
20
1073.910278
30
36.404545
11
301.588745
21
1022.263794
31
41.691860
12
228.245682
22
967.821106
32
44.340881
13
228.245682
23
967.821106
33
44.340881
0
3DFACE
8
0
10
-343.482880
20
1187.350952
30
20.336706
11
-354.743591
21
1099.167114
31
13.174774
12
-421.120972
22
1149.047729
32
-33.366241
13
-421.120972
23
1149.047729
33
-33.366241
0
3DFACE
8
0
10
-345.509521
20
311.350342
30
19.082754
11
-421.121277
21
350.952148
31
-33.366451
12
-351.234192
22
400.000000
32
15.455886
13
-351.234192
23
400.000000
33
15.455886
0
3DFACE
8
0
10
427.567413
20
1050.478394
30
-37.513187
11
500.000000
21
1100.000000
31
0.000000
12
500.000000
22
1000.000000
32
0.000000
13
500.000000
23
1000.000000
33
0.000000
0
3DFACE
8
0
10
-153.710052
20
1422.946655
30
-6.031590
11
-189.518127
21
1344.608521
31
22.211586
12
-233.390472
22
1422.603394
32
46.222755
13
-233.390472
23
1422.603394
33
46.222755
0
3DFACE
8
0
10
153.723892
20
1422.749756
30
-6.019926
11
233.390472
21
1422.603394
31
46.222755
12
189.798950
22
1344.378418
32
22.411444
13
189.798950
23
1344.378418
33
22.411444
0
3DFACE
8
0
10
-134.272308
20
446.614319
30
-22.612568
11
-129.077271
21
541.609924
31
-27.066736
12
-60.263165
22
486.469452
32
-79.765358
13
-60.263165
23
486.469452
33
-79.765358
0
3DFACE
8
0
10
-267.879272
20
1127.353516
30
50.070316
11
-354.743591
21
1099.167114
31
13.174774
12
-343.482880
22
1187.350952
32
20.336706
13
-343.482880
23
1187.350952
33
20.336706
0
3DFACE
8
0
10
153.777176
20
1016.410278
30
-5.975073
11
93.116852
21
968.656128
31
-56.795261
12
93.361359
22
1062.877319
32
-56.604977
13
93.361359
23
1062.877319
33
-56.604977
0
3DFACE
8
0
10
-124.110893
20
928.095947
30
-31.310717
11
-189.774963
21
883.407410
31
22.394384
12
-185.419601
22
988.518799
32
19.245737
13
-185.419601
23
988.518799
33
19.245737
0
3DFACE
8
0
10
153.777176
20
1016.410278
30
-5.975073
11
155.410294
21
920.559875
31
-4.602514
12
93.116852
22
968.656128
32
-56.795261
13
93.116852
23
968.656128
33
-56.795261
0
3DFACE
8
0
10
423.045868
20
449.148102
30
-34.629768
11
418.962067
21
348.203644
31
-31.927240
12
349.742554
22
413.449371
32
16.412539
13
349.742554
23
413.449371
33
16.412539
0
3DFACE
8
0
10
474.302124
20
88.510086
30
-49.415653
11
500.000000
21
100.000000
31
0.000000
12
500.000000
22
0.000000
32
0.000000
13
500.000000
23
0.000000
33
0.000000
0
3DFACE
8
0
10
-354.600739
20
1003.201355
30
13.268435
11
-420.957581
21
1051.051758
31
-33.258121
12
-354.743591
22
1099.167114
32
13.174774
13
-354.743591
23
1099.167114
33
13.174774
0
3DFACE
8
0
10
-409.045135
20
1257.393677
30
-25.087318
11
-343.482880
21
1187.350952
31
20.336706
12
-421.120972
22
1149.047729
32
-33.366241
13
-421.120972
23
1149.047729
33
-33.366241
0
3DFACE
8
0
10
-410.769348
20
241.450531
30
-26.298376
11
-421.121277
21
350.952148
31
-33.366451
12
-345.509521
22
311.350342
32
19.082754
13
-345.509521
23
311.350342
33
19.082754
0
3DFACE
8
0
10
-350.286530
20
496.665588
30
16.064585
11
-351.234192
21
400.000000
31
15.455886
12
-420.958557
22
448.950439
32
-33.258759
13
-420.958557
23
448.950439
33
-33.258759
0
3DFACE
8
0
10
-393.855469
20
78.200935
30
-14.208560
11
-323.100616
21
79.015404
31
31.928349
12
-362.836212
22
0.000000
32
7.766373
13
-362.836212
23
0.000000
33
7.766373
0
3DFACE
8
0
10
-398.026794
20
1425.453857
30
-17.219042
11
-362.836212
21
1500.000000
31
7.766373
12
-323.100616
22
1420.984619
32
31.928349
13
-323.100616
23
1420.984619
33
31.928349
0
3DFACE
8
0
10
-124.110893
20
928.095947
30
-31.310717
11
-58.869678
21
970.575256
31
-80.600273
12
-60.077114
22
875.813782
32
-79.877602
13
-60.077114
23
875.813782
33
-79.877602
0
3DFACE
8
0
10
355.131622
20
603.269043
30
12.920018
11
356.254456
21
699.074524
31
12.180142
12
423.060913
22
651.407166
32
-34.639553
13
423.060913
23
651.407166
33
-34.639553
0
3DFACE
8
0
10
-196.524567
20
401.705658
30
27.058798
11
-273.524994
21
447.455719
31
49.373573
12
-194.147842
22
494.617065
32
25.447998
13
-194.147842
23
494.617065
33
25.447998
0
3DFACE
8
0
10
-134.272308
20
446.614319
30
-22.612568
11
-196.524567
21
401.705658
31
27.058798
12
-194.147842
22
494.617065
32
25.447998
13
-194.147842
23
494.617065
33
25.447998
0
3DFACE
8
0
10
16.147268
20
736.489990
30
-98.319122
11
23.538706
21
638.296021
31
-96.514000
12
-61.923599
22
684.403992
32
-78.753204
13
-61.923599
23
684.403992
33
-78.753204
0
3DFACE
8
0
10
-51.466896
20
1151.809814
30
-84.802628
11
21.825710
21
1110.378052
31
-96.985962
12
-56.577549
22
1065.178589
32
-81.944077
13
-56.577549
23
1065.178589
33
-81.944077
0
3DFACE
8
0
10
-474.056610
20
1411.736206
30
-49.510918
11
-398.026794
21
1425.453857
31
-17.219042
12
-435.460419
22
1348.319702
32
-42.180450
13
-435.460419
23
1348.319702
33
-42.180450
0
3DFACE
8
0
10
-273.387817
20
359.914154
30
49.394234
11
-273.524994
21
447.455719
31
49.373573
12
-196.524567
22
401.705658
32
27.058798
13
-196.524567
23
401.705658
33
27.058798
0
3DFACE
8
0
10
-56.577549
20
1065.178589
30
-81.944077
11
21.401455
21
1016.736389
31
-97.097946
12
-58.869678
22
970.575256
32
-80.600273
13
-58.869678
23
970.575256
33
-80.600273
0
3DFACE
8
0
10
21.825710
20
1110.378052
30
-96.985962
11
21.401455
21
1016.736389
31
-97.097946
12
-56.577549
22
1065.178589
32
-81.944077
13
-56.577549
23
1065.178589
33
-81.944077
0
3DFACE
8
0
10
-60.077114
20
875.813782
30
-79.877602
11
-60.892540
21
780.293152
31
-79.383896
12
-126.341484
22
829.049988
32
-29.407024
13
-126.341484
23
829.049988
33
-29.407024
0
3DFACE
8
0
10
-474.056610
20
1411.736206
30
-49.510918
11
-500.000000
21
1400.000000
31
0.000000
12
-500.000000
22
1500.000000
32
0.000000
13
-500.000000
23
1500.000000
33
0.000000
0
3DFACE
8
0
10
21.401455
20
1016.736389
30
-97.097946
11
20.455147
21
922.240784
31
-97.340637
12
-58.869678
22
970.575256
32
-80.600273
13
-58.869678
23
970.575256
33
-80.600273
0
3DFACE
8
0
10
393.481689
20
1422.285522
30
-13.938547
11
323.100616
21
1420.984619
31
31.928349
12
362.836212
22
1500.000000
32
7.766372
13
362.836212
23
1500.000000
33
7.766372
0
3DFACE
8
0
10
398.010681
20
74.304131
30
-17.207432
11
362.836212
21
0.000000
31
7.766372
12
323.100616
22
79.015404
32
31.928349
13
323.100616
23
79.015404
33
31.928349
0
3DFACE
8
0
10
-58.869678
20
970.575256
30
-80.600273
11
20.455147
21
922.240784
31
-97.340637
12
-60.077114
22
875.813782
32
-79.877602
13
-60.077114
23
875.813782
33
-79.877602
0
3DFACE
8
0
10
-273.524994
20
447.455719
30
49.373573
11
-351.234192
21
400.000000
31
15.455886
12
-350.286530
22
496.665588
32
16.064585
13
-350.286530
23
496.665588
33
16.064585
0
3DFACE
8
0
10
211.694595
20
1073.910278
30
36.404545
11
228.245682
21
967.821106
31
44.340881
12
153.777176
22
1016.410278
32
-5.975073
13
153.777176
23
1016.410278
33
-5.975073
0
3DFACE
8
0
10
-60.263165
20
486.469452
30
-79.765358
11
-129.077271
21
541.609924
31
-27.066736
12
-65.785843
22
590.756042
32
-76.328537
13
-65.785843
23
590.756042
33
-76.328537
0
3DFACE
8
0
10
77.860603
20
395.928162
30
-68.166702
11
33.847843
21
477.863861
31
-93.032539
12
113.211090
22
477.842651
32
-40.521637
13
113.211090
23
477.842651
33
-40.521637
0
3DFACE
8
0
10
118.357285
20
1345.685303
30
-36.195309
11
189.798950
21
1344.378418
31
22.411444
12
154.651291
22
1269.513306
32
-5.239810
13
154.651291
23
1269.513306
33
-5.239810
0
3DFACE
8
0
10
118.230904
20
155.236343
30
-36.302090
11
80.583656
21
234.059570
31
-66.216019
12
152.114349
22
234.910141
32
-7.377415
13
152.114349
23
234.910141
33
-7.377415
0
3DFACE
8
0
10
93.116852
20
968.656128
30
-56.795261
11
155.410294
21
920.559875
31
-4.602514
12
92.227524
22
873.840088
32
-57.485455
13
92.227524
23
873.840088
33
-57.485455
0
3DFACE
8
0
10
118.230904
20
155.236343
30
-36.302090
11
152.114349
21
234.910141
31
-7.377415
12
189.977066
22
156.116211
32
22.537973
13
189.977066
23
156.116211
33
22.537973
0
3DFACE
8
0
10
-323.100616
20
79.015404
30
31.928349
11
-279.567688
21
0.000000
31
48.286869
12
-362.836212
22
0.000000
32
7.766373
13
-362.836212
23
0.000000
33
7.766373
0
3DFACE
8
0
10
-323.100616
20
1420.984619
30
31.928349
11
-362.836212
21
1500.000000
31
7.766373
12
-279.567688
22
1500.000000
32
48.286869
13
-279.567688
23
1500.000000
33
48.286869
0
3DFACE
8
0
10
77.860603
20
395.928162
30
-68.166702
11
113.211090
21
477.842651
31
-40.521637
12
148.667419
22
397.137177
32
-10.297945
13
148.667419
23
397.137177
33
-10.297945
0
3DFACE
8
0
10
-118.662254
20
1346.326904
30
-35.937527
11
-152.725525
21
1265.570435
31
-6.861436
12
-189.518127
22
1344.608521
32
22.211586
13
-189.518127
23
1344.608521
33
22.211586
0
3DFACE
8
0
10
20.455147
20
922.240784
30
-97.340637
11
19.874670
21
827.275208
31
-97.484619
12
-60.077114
22
875.813782
32
-79.877602
13
-60.077114
23
875.813782
33
-79.877602
0
3DFACE
8
0
10
19.874670
20
827.275208
30
-97.484619
11
-60.892540
21
780.293152
31
-79.383896
12
-60.077114
22
875.813782
32
-79.877602
13
-60.077114
23
875.813782
33
-79.877602
0
3DFACE
8
0
10
-124.110893
20
928.095947
30
-31.310717
11
-60.077114
21
875.813782
31
-79.877602
12
-126.341484
22
829.049988
32
-29.407024
13
-126.341484
23
829.049988
33
-29.407024
0
3DFACE
8
0
10
-273.181763
20
543.598511
30
49.424931
11
-273.524994
21
447.455719
31
49.373573
12
-350.286530
22
496.665588
32
16.064585
13
-350.286530
23
496.665588
33
16.064585
0
3DFACE
8
0
10
272.215363
20
644.582642
30
49.563370
11
356.254456
21
699.074524
31
12.180142
12
355.131622
22
603.269043
32
12.920018
13
355.131622
23
603.269043
33
12.920018
0
3DFACE
8
0
10
-134.272308
20
446.614319
30
-22.612568
11
-194.147842
21
494.617065
31
25.447998
12
-129.077271
22
541.609924
32
-27.066736
13
-129.077271
23
541.609924
33
-27.066736
0
3DFACE
8
0
10
-60.892540
20
780.293152
30
-79.383896
11
-61.923599
21
684.403992
31
-78.753204
12
-127.254997
22
733.348694
32
-28.626162
13
-127.254997
23
733.348694
33
-28.626162
0
3DFACE
8
0
10
-5.767492
20
232.549698
30
-99.778084
11
38.547623
21
313.451080
31
-91.102356
12
80.583656
22
234.059570
32
-66.216019
13
80.583656
23
234.059570
33
-66.216019
0
3DFACE
8
0
10
153.777176
20
1016.410278
30
-5.975073
11
228.245682
21
967.821106
31
44.340881
12
155.410294
22
920.559875
32
-4.602514
13
155.410294
23
920.559875
33
-4.602514
0
3DFACE
8
0
10
-194.147842
20
494.617065
30
25.447998
11
-273.524994
21
447.455719
31
49.373573
12
-273.181763
22
543.598511
32
49.424931
13
-273.181763
23
543.598511
33
49.424931
0
3DFACE
8
0
10
-272.906830
20
956.642883
30
49.465244
11
-348.653534
21
900.053955
31
17.105902
12
-354.600739
22
1003.201355
32
13.268435
13
-354.600739
23
1003.201355
33
13.268435
0
3DFACE
8
0
10
77.860603
20
395.928162
30
-68.166702
11
148.667419
21
397.137177
31
-10.297945
12
115.492859
22
315.292755
32
-38.609196
13
115.492859
23
315.292755
33
-38.609196
0
3DFACE
8
0
10
80.583656
20
234.059570
30
-66.216019
11
115.492859
21
315.292755
31
-38.609196
12
152.114349
22
234.910141
32
-7.377415
13
152.114349
23
234.910141
33
-7.377415
0
3DFACE
8
0
10
-126.341484
20
829.049988
30
-29.407024
11
-60.892540
21
780.293152
31
-79.383896
12
-127.254997
22
733.348694
32
-28.626162
13
-127.254997
23
733.348694
33
-28.626162
0
3DFACE
8
0
10
323.100616
20
79.015404
30
31.928349
11
362.836212
21
0.000000
31
7.766372
12
279.567688
22
0.000000
32
48.286869
13
279.567688
23
0.000000
33
48.286869
0
3DFACE
8
0
10
323.100616
20
1420.984619
30
31.928349
11
279.567688
21
1500.000000
31
48.286869
12
362.836212
22
1500.000000
32
7.766372
13
362.836212
23
1500.000000
33
7.766372
0
3DFACE
8
0
10
-420.674713
20
953.754333
30
-33.070614
11
-420.957581
21
1051.051758
31
-33.258121
12
-354.600739
22
1003.201355
32
13.268435
13
-354.600739
23
1003.201355
33
13.268435
0
3DFACE
8
0
10
88.305832
20
1157.848877
30
-60.491642
11
93.361359
21
1062.877319
31
-56.604977
12
21.825710
22
1110.378052
32
-96.985962
13
21.825710
23
1110.378052
33
-96.985962
0
3DFACE
8
0
10
-418.847351
20
546.520935
30
-31.850164
11
-350.286530
21
496.665588
31
16.064585
12
-420.958557
22
448.950439
32
-33.258759
13
-420.958557
23
448.950439
33
-33.258759
0
3DFACE
8
0
10
77.860603
20
395.928162
30
-68.166702
11
-7.305057
21
394.347443
31
-99.645790
12
33.847843
22
477.863861
32
-93.032539
13
33.847843
23
477.863861
33
-93.032539
0
3DFACE
8
0
10
-348.653534
20
900.053955
30
17.105902
11
-420.674713
21
953.754333
31
-33.070614
12
-354.600739
22
1003.201355
32
13.268435
13
-354.600739
23
1003.201355
33
13.268435
0
3DFACE
8
0
10
155.410294
20
920.559875
30
-4.602514
11
154.539093
21
825.711609
31
-5.334110
12
92.227524
22
873.840088
32
-57.485455
13
92.227524
23
873.840088
33
-57.485455
0
3DFACE
8
0
10
153.723892
20
1422.749756
30
-6.019926
11
189.798950
21
1344.378418
31
22.411444
12
118.357285
22
1345.685303
32
-36.195309
13
118.357285
23
1345.685303
33
-36.195309
0
3DFACE
8
0
10
-90.445747
20
229.755310
30
-58.858990
11
-49.999420
21
310.115112
31
-85.586899
12
-5.767492
22
232.549698
32
-99.778084
13
-5.767492
23
232.549698
33
-99.778084
0
3DFACE
8
0
10
228.245682
20
967.821106
30
44.340881
11
243.565811
21
874.871277
31
48.985222
12
155.410294
22
920.559875
32
-4.602514
13
155.410294
23
920.559875
33
-4.602514
0
3DFACE
8
0
10
-129.077271
20
541.609924
30
-27.066736
11
-194.147842
21
494.617065
31
25.447998
12
-193.207230
22
590.573303
32
24.800777
13
-193.207230
23
590.573303
33
24.800777
0
3DFACE
8
0
10
84.753853
20
1256.633667
30
-63.158497
11
118.357285
21
1345.685303
31
-36.195309
12
154.651291
22
1269.513306
32
-5.239810
13
154.651291
23
1269.513306
33
-5.239810
0
3DFACE
8
0
10
-193.207230
20
590.573303
30
24.800777
11
-194.147842
21
494.617065
31
25.447998
12
-273.181763
22
543.598511
32
49.424931
13
-273.181763
23
543.598511
33
49.424931
0
3DFACE
8
0
10
-124.110893
20
928.095947
30
-31.310717
11
-126.341484
21
829.049988
31
-29.407024
12
-189.774963
22
883.407410
32
22.394384
13
-189.774963
23
883.407410
33
22.394384
0
3DFACE
8
0
10
-65.785843
20
590.756042
30
-76.328537
11
-129.077271
21
541.609924
31
-27.066736
12
-128.202545
22
637.499634
32
-27.815557
13
-128.202545
23
637.499634
33
-27.815557
0
3DFACE
8
0
10
-307.057037
20
1050.169678
30
39.488876
11
-267.879272
21
1127.353516
31
50.070316
12
-239.738327
22
1047.936401
32
48.104298
13
-239.738327
23
1047.936401
33
48.104298
0
3DFACE
8
0
10
23.538706
20
638.296021
30
-96.514000
11
-65.785843
21
590.756042
31
-76.328537
12
-61.923599
22
684.403992
32
-78.753204
13
-61.923599
23
684.403992
33
-78.753204
0
3DFACE
8
0
10
-153.710052
20
1422.946655
30
-6.031590
11
-118.662254
21
1346.326904
31
-35.937527
12
-189.518127
22
1344.608521
32
22.211586
13
-189.518127
23
1344.608521
33
22.211586
0
3DFACE
8
0
10
92.227524
20
873.840088
30
-57.485455
11
19.874670
21
827.275208
31
-97.484619
12
20.455147
22
922.240784
32
-97.340637
13
20.455147
23
922.240784
33
-97.340637
0
3DFACE
8
0
10
-128.202545
20
637.499634
30
-27.815557
11
-129.077271
21
541.609924
31
-27.066736
12
-193.207230
22
590.573303
32
24.800777
13
-193.207230
23
590.573303
33
24.800777
0
3DFACE
8
0
10
151.900360
20
728.005188
30
-7.558205
11
90.652229
21
782.156677
31
-58.700462
12
154.539093
22
825.711609
32
-5.334110
13
154.539093
23
825.711609
33
-5.334110
0
3DFACE
8
0
10
221.974976
20
782.623718
30
41.652073
11
151.900360
21
728.005188
31
-7.558205
12
154.539093
22
825.711609
32
-5.334110
13
154.539093
23
825.711609
33
-5.334110
0
3DFACE
8
0
10
-61.923599
20
684.403992
30
-78.753204
11
-65.785843
21
590.756042
31
-76.328537
12
-128.202545
22
637.499634
32
-27.815557
13
-128.202545
23
637.499634
33
-27.815557
0
3DFACE
8
0
10
183.608047
20
639.684143
30
17.906895
11
222.770630
21
560.816406
31
42.015995
12
147.201691
22
560.286926
32
-11.544621
13
147.201691
23
560.286926
33
-11.544621
0
3DFACE
8
0
10
-153.710052
20
1422.946655
30
-6.031590
11
-120.437492
21
1500.000000
31
-34.434269
12
-84.449867
22
1423.400635
32
-63.384125
13
-84.449867
23
1423.400635
33
-63.384125
0
3DFACE
8
0
10
93.116852
20
968.656128
30
-56.795261
11
20.455147
21
922.240784
31
-97.340637
12
21.401455
22
1016.736389
32
-97.097946
13
21.401455
23
1016.736389
33
-97.097946
0
3DFACE
8
0
10
-420.042267
20
852.610413
30
-32.649979
11
-420.674713
21
953.754333
31
-33.070614
12
-348.653534
22
900.053955
32
17.105902
13
-348.653534
23
900.053955
33
17.105902
0
3DFACE
8
0
10
423.045868
20
449.148102
30
-34.629768
11
500.000000
21
500.000000
31
0.000000
12
500.000000
22
400.000000
32
0.000000
13
500.000000
23
400.000000
33
0.000000
0
3DFACE
8
0
10
243.565811
20
874.871277
30
48.985222
11
154.539093
21
825.711609
31
-5.334110
12
155.410294
22
920.559875
32
-4.602514
13
155.410294
23
920.559875
33
-4.602514
0
3DFACE
8
0
10
183.608047
20
639.684143
30
17.906895
11
147.201691
21
560.286926
31
-11.544621
12
113.052437
22
639.471558
32
-40.654240
13
113.052437
23
639.471558
33
-40.654240
0
3DFACE
8
0
10
-189.774963
20
883.407410
30
22.394384
11
-126.341484
21
829.049988
31
-29.407024
12
-191.155487
22
782.313293
32
23.370548
13
-191.155487
23
782.313293
33
23.370548
0
3DFACE
8
0
10
-82.215591
20
1274.569580
30
-65.029343
11
-152.725525
21
1265.570435
31
-6.861436
12
-118.662254
22
1346.326904
32
-35.937527
13
-118.662254
23
1346.326904
33
-35.937527
0
3DFACE
8
0
10
423.045868
20
449.148102
30
-34.629768
11
500.000000
21
400.000000
31
0.000000
12
418.962067
22
348.203644
32
-31.927240
13
418.962067
23
348.203644
33
-31.927240
0
3DFACE
8
0
10
-269.270599
20
641.394470
30
49.928310
11
-193.207230
21
590.573303
31
24.800777
12
-273.181763
22
543.598511
32
49.424931
13
-273.181763
23
543.598511
33
49.424931
0
3DFACE
8
0
10
-127.254997
20
733.348694
30
-28.626162
11
-61.923599
21
684.403992
31
-78.753204
12
-128.202545
22
637.499634
32
-27.815557
13
-128.202545
23
637.499634
33
-27.815557
0
3DFACE
8
0
10
154.539093
20
825.711609
30
-5.334110
11
90.652229
21
782.156677
31
-58.700462
12
92.227524
22
873.840088
32
-57.485455
13
92.227524
23
873.840088
33
-57.485455
0
3DFACE
8
0
10
-191.751709
20
687.231079
30
23.788731
11
-128.202545
21
637.499634
31
-27.815557
12
-193.207230
22
590.573303
32
24.800777
13
-193.207230
23
590.573303
33
24.800777
0
3DFACE
8
0
10
33.847843
20
477.863861
30
-93.032539
11
75.482071
21
559.383118
31
-69.839264
12
113.211090
22
477.842651
32
-40.521637
13
113.211090
23
477.842651
33
-40.521637
0
3DFACE
8
0
10
93.361359
20
1062.877319
30
-56.604977
11
21.401455
21
1016.736389
31
-97.097946
12
21.825710
22
1110.378052
32
-96.985962
13
21.825710
23
1110.378052
33
-96.985962
0
3DFACE
8
0
10
-191.751709
20
687.231079
30
23.788731
11
-127.254997
21
733.348694
31
-28.626162
12
-128.202545
22
637.499634
32
-27.815557
13
-128.202545
23
637.499634
33
-27.815557
0
3DFACE
8
0
10
93.116852
20
968.656128
30
-56.795261
11
92.227524
21
873.840088
31
-57.485455
12
20.455147
22
922.240784
32
-97.340637
13
20.455147
23
922.240784
33
-97.340637
0
3DFACE
8
0
10
38.547623
20
313.451080
30
-91.102356
11
115.492859
21
315.292755
31
-38.609196
12
80.583656
22
234.059570
32
-66.216019
13
80.583656
23
234.059570
33
-66.216019
0
3DFACE
8
0
10
221.974976
20
782.623718
30
41.652073
11
154.539093
21
825.711609
31
-5.334110
12
243.565811
22
874.871277
32
48.985222
13
243.565811
23
874.871277
33
48.985222
0
3DFACE
8
0
10
303.702667
20
950.145874
30
40.864525
11
243.565811
21
874.871277
31
48.985222
12
228.245682
22
967.821106
32
44.340881
13
228.245682
23
967.821106
33
44.340881
0
3DFACE
8
0
10
16.147268
20
736.489990
30
-98.319122
11
-61.923599
21
684.403992
31
-78.753204
12
-60.892540
22
780.293152
32
-79.383896
13
-60.892540
23
780.293152
33
-79.383896
0
3DFACE
8
0
10
-121.757996
20
1112.832886
30
-33.313290
11
-51.466896
21
1151.809814
31
-84.802628
12
-56.577549
22
1065.178589
32
-81.944077
13
-56.577549
23
1065.178589
33
-81.944077
0
3DFACE
8
0
10
-191.751709
20
687.231079
30
23.788731
11
-193.207230
21
590.573303
31
24.800777
12
-269.270599
22
641.394470
32
49.928310
13
-269.270599
23
641.394470
33
49.928310
0
3DFACE
8
0
10
-191.155487
20
782.313293
30
23.370548
11
-126.341484
21
829.049988
31
-29.407024
12
-127.254997
22
733.348694
32
-28.626162
13
-127.254997
23
733.348694
33
-28.626162
0
3DFACE
8
0
10
153.777176
20
1016.410278
30
-5.975073
11
93.361359
21
1062.877319
31
-56.604977
12
145.095917
22
1114.544556
32
-13.339838
13
145.095917
23
1114.544556
33
-13.339838
0
3DFACE
8
0
10
-191.751709
20
687.231079
30
23.788731
11
-191.155487
21
782.313293
31
23.370548
12
-127.254997
22
733.348694
32
-28.626162
13
-127.254997
23
733.348694
33
-28.626162
0
3DFACE
8
0
10
221.974976
20
782.623718
30
41.652073
11
243.565811
21
874.871277
31
48.985222
12
304.865570
22
823.864990
32
40.396229
13
304.865570
23
823.864990
33
40.396229
0
3DFACE
8
0
10
-191.751709
20
687.231079
30
23.788731
11
-268.853058
21
738.793579
31
49.973003
12
-191.155487
22
782.313293
32
23.370548
13
-191.155487
23
782.313293
33
23.370548
0
3DFACE
8
0
10
-349.025909
20
592.647644
30
16.869312
11
-269.270599
21
641.394470
31
49.928310
12
-273.181763
22
543.598511
32
49.424931
13
-273.181763
23
543.598511
33
49.424931
0
3DFACE
8
0
10
90.652229
20
782.156677
30
-58.700462
11
19.874670
21
827.275208
31
-97.484619
12
92.227524
22
873.840088
32
-57.485455
13
92.227524
23
873.840088
33
-57.485455
0
3DFACE
8
0
10
154.651291
20
1269.513306
30
-5.239810
11
189.798950
21
1344.378418
31
22.411444
12
231.214554
22
1270.487915
32
45.464195
13
231.214554
23
1270.487915
33
45.464195
0
3DFACE
8
0
10
-268.853058
20
738.793579
30
49.973003
11
-269.109039
21
831.288635
31
49.945812
12
-191.155487
22
782.313293
32
23.370548
13
-191.155487
23
782.313293
33
23.370548
0
3DFACE
8
0
10
301.588745
20
1022.263794
30
41.691860
11
303.702667
21
950.145874
31
40.864525
12
228.245682
22
967.821106
32
44.340881
13
228.245682
23
967.821106
33
44.340881
0
3DFACE
8
0
10
-43.360432
20
1347.737793
30
-88.919418
11
-118.662254
21
1346.326904
31
-35.937527
12
-84.449867
22
1423.400635
32
-63.384125
13
-84.449867
23
1423.400635
33
-63.384125
0
3DFACE
8
0
10
42.798950
20
154.799255
30
-89.184471
11
-48.439083
21
152.715622
31
-86.402275
12
-5.767492
22
232.549698
32
-99.778084
13
-5.767492
23
232.549698
33
-99.778084
0
3DFACE
8
0
10
-273.387817
20
359.914154
30
49.394234
11
-345.509521
21
311.350342
31
19.082754
12
-351.234192
22
400.000000
32
15.455886
13
-351.234192
23
400.000000
33
15.455886
0
3DFACE
8
0
10
-269.109039
20
831.288635
30
49.945812
11
-189.774963
21
883.407410
31
22.394384
12
-191.155487
22
782.313293
32
23.370548
13
-191.155487
23
782.313293
33
23.370548
0
3DFACE
8
0
10
222.770630
20
560.816406
30
42.015995
11
183.226929
21
477.825409
31
17.623154
12
147.201691
22
560.286926
32
-11.544621
13
147.201691
23
560.286926
33
-11.544621
0
3DFACE
8
0
10
-349.025909
20
592.647644
30
16.869312
11
-273.181763
21
543.598511
31
49.424931
12
-350.286530
22
496.665588
32
16.064585
13
-350.286530
23
496.665588
33
16.064585
0
3DFACE
8
0
10
152.114349
20
234.910141
30
-7.377415
11
229.116257
21
236.267303
31
44.680611
12
189.977066
22
156.116211
32
22.537973
13
189.977066
23
156.116211
33
22.537973
0
3DFACE
8
0
10
93.116852
20
968.656128
30
-56.795261
11
21.401455
21
1016.736389
31
-97.097946
12
93.361359
22
1062.877319
32
-56.604977
13
93.361359
23
1062.877319
33
-56.604977
0
3DFACE
8
0
10
-49.999420
20
310.115112
30
-85.586899
11
38.547623
21
313.451080
31
-91.102356
12
-5.767492
22
232.549698
32
-99.778084
13
-5.767492
23
232.549698
33
-99.778084
0
3DFACE
8
0
10
-152.725525
20
1265.570435
30
-6.861436
11
-228.148453
21
1269.925171
31
44.302418
12
-189.518127
22
1344.608521
32
22.211586
13
-189.518127
23
1344.608521
33
22.211586
0
3DFACE
8
0
10
16.147268
20
736.489990
30
-98.319122
11
19.874670
21
827.275208
31
-97.484619
12
90.652229
22
782.156677
32
-58.700462
13
90.652229
23
782.156677
33
-58.700462
0
3DFACE
8
0
10
145.095917
20
1114.544556
30
-13.339838
11
93.361359
21
1062.877319
31
-56.604977
12
88.305832
22
1157.848877
32
-60.491642
13
88.305832
23
1157.848877
33
-60.491642
0
3DFACE
8
0
10
-189.518127
20
1344.608521
30
22.211586
11
-273.178680
21
1343.628906
31
49.425385
12
-233.390472
22
1422.603394
32
46.222755
13
-233.390472
23
1422.603394
33
46.222755
0
3DFACE
8
0
10
113.052437
20
639.471558
30
-40.654240
11
147.201691
21
560.286926
31
-11.544621
12
75.482071
22
559.383118
32
-69.839264
13
75.482071
23
559.383118
33
-69.839264
0
3DFACE
8
0
10
147.201691
20
560.286926
30
-11.544621
11
183.226929
21
477.825409
31
17.623154
12
113.211090
22
477.842651
32
-40.521637
13
113.211090
23
477.842651
33
-40.521637
0
3DFACE
8
0
10
-84.449867
20
1423.400635
30
-63.384125
11
-120.437492
21
1500.000000
31
-34.434269
12
-44.683025
22
1500.000000
32
-88.284500
13
-44.683025
23
1500.000000
33
-88.284500
0
3DFACE
8
0
10
-191.751709
20
687.231079
30
23.788731
11
-269.270599
21
641.394470
31
49.928310
12
-268.853058
22
738.793579
32
49.973003
13
-268.853058
23
738.793579
33
49.973003
0
3DFACE
8
0
10
-120.907570
20
307.071930
30
-34.035473
11
-49.999420
21
310.115112
31
-85.586899
12
-90.445747
22
229.755310
32
-58.858990
13
-90.445747
23
229.755310
33
-58.858990
0
3DFACE
8
0
10
-349.025909
20
592.647644
30
16.869312
11
-350.286530
21
496.665588
31
16.064585
12
-418.847351
22
546.520935
32
-31.850164
13
-418.847351
23
546.520935
33
-31.850164
0
3DFACE
8
0
10
189.798950
20
1344.378418
30
22.411444
11
233.390472
21
1422.603394
31
46.222755
12
276.440613
22
1343.173096
32
48.891842
13
276.440613
23
1343.173096
33
48.891842
0
3DFACE
8
0
10
113.211090
20
477.842651
30
-40.521637
11
183.226929
21
477.825409
31
17.623154
12
148.667419
22
397.137177
32
-10.297945
13
148.667419
23
397.137177
33
-10.297945
0
3DFACE
8
0
10
275.089081
20
1136.709351
30
49.125191
11
341.602997
21
1189.446899
31
21.485001
12
354.533417
22
1095.729370
32
13.312553
13
354.533417
23
1095.729370
33
13.312553
0
3DFACE
8
0
10
75.482071
20
559.383118
30
-69.839264
11
147.201691
21
560.286926
31
-11.544621
12
113.211090
22
477.842651
32
-40.521637
13
113.211090
23
477.842651
33
-40.521637
0
3DFACE
8
0
10
115.492859
20
315.292755
30
-38.609196
11
185.245163
21
317.516541
31
19.117531
12
152.114349
22
234.910141
32
-7.377415
13
152.114349
23
234.910141
33
-7.377415
0
3DFACE
8
0
10
16.147268
20
736.489990
30
-98.319122
11
-60.892540
21
780.293152
31
-79.383896
12
19.874670
22
827.275208
32
-97.484619
13
19.874670
23
827.275208
33
-97.484619
0
3DFACE
8
0
10
-153.710052
20
1422.946655
30
-6.031590
11
-233.390472
21
1422.603394
31
46.222755
12
-192.639053
22
1500.000000
32
24.407225
13
-192.639053
23
1500.000000
33
24.407225
0
3DFACE
8
0
10
77.860603
20
395.928162
30
-68.166702
11
115.492859
21
315.292755
31
-38.609196
12
38.547623
22
313.451080
32
-91.102356
13
38.547623
23
313.451080
33
-91.102356
0
3DFACE
8
0
10
352.622559
20
891.562866
30
14.558449
11
428.021637
21
948.255371
31
-37.795464
12
427.447998
22
847.889160
32
-37.438736
13
427.447998
23
847.889160
33
-37.438736
0
3DFACE
8
0
10
84.428368
20
1423.084717
30
-63.400063
11
44.683029
21
1500.000000
31
-88.284500
12
120.437492
22
1500.000000
32
-34.434265
13
120.437492
23
1500.000000
33
-34.434265
0
3DFACE
8
0
10
183.226929
20
477.825409
30
17.623154
11
220.105896
21
396.177246
31
40.772232
12
148.667419
22
397.137177
32
-10.297945
13
148.667419
23
397.137177
33
-10.297945
0
3DFACE
8
0
10
220.105896
20
396.177246
30
40.772232
11
185.245163
21
317.516541
31
19.117531
12
148.667419
22
397.137177
32
-10.297945
13
148.667419
23
397.137177
33
-10.297945
0
3DFACE
8
0
10
153.723892
20
1422.749756
30
-6.019926
11
192.639053
21
1500.000000
31
24.407225
12
233.390472
22
1422.603394
32
46.222755
13
233.390472
23
1422.603394
33
46.222755
0
3DFACE
8
0
10
185.245163
20
317.516541
30
19.117531
11
229.116257
21
236.267303
31
44.680611
12
152.114349
22
234.910141
32
-7.377415
13
152.114349
23
234.910141
33
-7.377415
0
3DFACE
8
0
10
189.977066
20
156.116211
30
22.537973
11
276.455933
21
156.897415
31
48.889099
12
233.573273
22
78.111664
32
46.283920
13
233.573273
23
78.111664
33
46.283920
0
3DFACE
8
0
10
153.723892
20
1422.749756
30
-6.019926
11
84.428368
21
1423.084717
31
-63.400063
12
120.437492
22
1500.000000
32
-34.434265
13
120.437492
23
1500.000000
33
-34.434265
0
3DFACE
8
0
10
43.245220
20
1345.582275
30
-88.974022
11
84.428368
21
1423.084717
31
-63.400063
12
118.357285
22
1345.685303
32
-36.195309
13
118.357285
23
1345.685303
33
-36.195309
0
3DFACE
8
0
10
-191.453339
20
154.439011
30
23.579714
11
-233.632736
21
78.012390
31
46.303730
12
-276.490631
22
156.587753
32
48.882877
13
-276.490631
23
156.587753
33
48.882877
0
3DFACE
8
0
10
148.667419
20
397.137177
30
-10.297945
11
185.245163
21
317.516541
31
19.117531
12
115.492859
22
315.292755
32
-38.609196
13
115.492859
23
315.292755
33
-38.609196
0
3DFACE
8
0
10
229.116257
20
236.267303
30
44.680611
11
276.455933
21
156.897415
31
48.889099
12
189.977066
22
156.116211
32
22.537973
13
189.977066
23
156.116211
33
22.537973
0
3DFACE
8
0
10
231.214554
20
1270.487915
30
45.464195
11
189.798950
21
1344.378418
31
22.411444
12
276.440613
22
1343.173096
32
48.891842
13
276.440613
23
1343.173096
33
48.891842
0
3DFACE
8
0
10
-43.360432
20
1347.737793
30
-88.919418
11
-82.215591
21
1274.569580
31
-65.029343
12
-118.662254
22
1346.326904
32
-35.937527
13
-118.662254
23
1346.326904
33
-35.937527
0
3DFACE
8
0
10
-7.305057
20
394.347443
30
-99.645790
11
38.547623
21
313.451080
31
-91.102356
12
-49.999420
22
310.115112
32
-85.586899
13
-49.999420
23
310.115112
33
-85.586899
0
3DFACE
8
0
10
-273.387817
20
359.914154
30
49.394234
11
-351.234192
21
400.000000
31
15.455886
12
-273.524994
22
447.455719
32
49.373573
13
-273.524994
23
447.455719
33
49.373573
0
3DFACE
8
0
10
80.632065
20
705.708435
30
-66.181007
11
151.900360
21
728.005188
31
-7.558205
12
113.052437
22
639.471558
32
-40.654240
13
113.052437
23
639.471558
33
-40.654240
0
3DFACE
8
0
10
83.818962
20
77.209297
30
-63.851051
11
120.437492
21
0.000000
31
-34.434265
12
44.683029
22
0.000000
32
-88.284500
13
44.683029
23
0.000000
33
-88.284500
0
3DFACE
8
0
10
-233.632736
20
78.012390
30
46.303730
11
-192.639053
21
0.000000
31
24.407225
12
-279.567688
22
0.000000
32
48.286869
13
-279.567688
23
0.000000
33
48.286869
0
3DFACE
8
0
10
-233.390472
20
1422.603394
30
46.222755
11
-279.567688
21
1500.000000
31
48.286869
12
-192.639053
22
1500.000000
32
24.407225
13
-192.639053
23
1500.000000
33
24.407225
0
3DFACE
8
0
10
-228.148453
20
1269.925171
30
44.302418
11
-273.178680
21
1343.628906
31
49.425385
12
-189.518127
22
1344.608521
32
22.211586
13
-189.518127
23
1344.608521
33
22.211586
0
3DFACE
8
0
10
279.618225
20
1212.280640
30
48.276360
11
275.089081
21
1136.709351
31
49.125191
12
197.334808
22
1184.421509
32
27.599653
13
197.334808
23
1184.421509
33
27.599653
0
3DFACE
8
0
10
-188.341812
20
1184.646362
30
21.369637
11
-228.148453
21
1269.925171
31
44.302418
12
-152.725525
22
1265.570435
32
-6.861436
13
-152.725525
23
1265.570435
33
-6.861436
0
3DFACE
8
0
10
-323.100616
20
79.015404
30
31.928349
11
-233.632736
21
78.012390
31
46.303730
12
-279.567688
22
0.000000
32
48.286869
13
-279.567688
23
0.000000
33
48.286869
0
3DFACE
8
0
10
-323.100616
20
1420.984619
30
31.928349
11
-279.567688
21
1500.000000
31
48.286869
12
-233.390472
22
1422.603394
32
46.222755
13
-233.390472
23
1422.603394
33
46.222755
0
3DFACE
8
0
10
42.798950
20
154.799255
30
-89.184471
11
-5.767492
21
232.549698
31
-99.778084
12
80.583656
22
234.059570
32
-66.216019
13
80.583656
23
234.059570
33
-66.216019
0
3DFACE
8
0
10
396.221130
20
242.824982
30
-15.916788
11
437.800171
21
153.330811
31
-43.449249
12
360.105804
22
154.190506
32
9.612695
13
360.105804
23
154.190506
33
9.612695
0
3DFACE
8
0
10
396.076080
20
1257.160156
30
-15.812101
11
360.103241
21
1345.820923
31
9.614418
12
437.798737
22
1346.668335
32
-43.448494
13
437.798737
23
1346.668335
33
-43.448494
0
3DFACE
8
0
10
18.861301
20
1195.741821
30
-97.727013
11
21.825710
21
1110.378052
31
-96.985962
12
-51.466896
22
1151.809814
32
-84.802628
13
-51.466896
23
1151.809814
33
-84.802628
0
3DFACE
8
0
10
211.694595
20
1073.910278
30
36.404545
11
153.777176
21
1016.410278
31
-5.975073
12
145.095917
22
1114.544556
32
-13.339838
13
145.095917
23
1114.544556
33
-13.339838
0
3DFACE
8
0
10
-229.462082
20
235.771484
30
44.813206
11
-191.453339
21
154.439011
31
23.579714
12
-276.490631
22
156.587753
32
48.882877
13
-276.490631
23
156.587753
33
48.882877
0
3DFACE
8
0
10
-48.439083
20
152.715622
30
-86.402275
11
-90.445747
21
229.755310
31
-58.858990
12
-5.767492
22
232.549698
32
-99.778084
13
-5.767492
23
232.549698
33
-99.778084
0
3DFACE
8
0
10
233.573273
20
78.111664
30
46.283920
11
279.567688
21
0.000000
31
48.286869
12
192.639053
22
0.000000
32
24.407225
13
192.639053
23
0.000000
33
24.407225
0
3DFACE
8
0
10
233.390472
20
1422.603394
30
46.222755
11
192.639053
21
1500.000000
31
24.407225
12
279.567688
22
1500.000000
32
48.286869
13
279.567688
23
1500.000000
33
48.286869
0
3DFACE
8
0
10
42.798950
20
154.799255
30
-89.184471
11
-1.424352
21
76.405205
31
-99.986267
12
-48.439083
22
152.715622
32
-86.402275
13
-48.439083
23
152.715622
33
-86.402275
0
3DFACE
8
0
10
-155.881409
20
76.560204
30
-4.207508
11
-192.639053
21
0.000000
31
24.407225
12
-233.632736
22
78.012390
32
46.303730
13
-233.632736
23
78.012390
33
46.303730
0
3DFACE
8
0
10
0.043227
20
1422.756226
30
-99.999985
11
-44.683025
21
1500.000000
31
-88.284500
12
44.683029
22
1500.000000
32
-88.284500
13
44.683029
23
1500.000000
33
-88.284500
0
3DFACE
8
0
10
-1.424352
20
76.405205
30
-99.986267
11
44.683029
21
0.000000
31
-88.284500
12
-44.683025
22
0.000000
32
-88.284500
13
-44.683025
23
0.000000
33
-88.284500
0
3DFACE
8
0
10
323.100616
20
79.015404
30
31.928349
11
279.567688
21
0.000000
31
48.286869
12
233.573273
22
78.111664
32
46.283920
13
233.573273
23
78.111664
33
46.283920
0
3DFACE
8
0
10
323.100616
20
1420.984619
30
31.928349
11
233.390472
21
1422.603394
31
46.222755
12
279.567688
22
1500.000000
32
48.286869
13
279.567688
23
1500.000000
33
48.286869
0
3DFACE
8
0
10
360.103241
20
1345.820923
30
9.614418
11
276.440613
21
1343.173096
31
48.891842
12
323.100616
22
1420.984619
32
31.928349
13
323.100616
23
1420.984619
33
31.928349
0
3DFACE
8
0
10
360.105804
20
154.190506
30
9.612695
11
323.100616
21
79.015404
31
31.928349
12
276.455933
22
156.897415
32
48.889099
13
276.455933
23
156.897415
33
48.889099
0
3DFACE
8
0
10
-155.881409
20
76.560204
30
-4.207508
11
-233.632736
21
78.012390
31
46.303730
12
-191.453339
22
154.439011
32
23.579714
13
-191.453339
23
154.439011
33
23.579714
0
3DFACE
8
0
10
77.860603
20
395.928162
30
-68.166702
11
38.547623
21
313.451080
31
-91.102356
12
-7.305057
22
394.347443
32
-99.645790
13
-7.305057
23
394.347443
33
-99.645790
0
3DFACE
8
0
10
-276.490631
20
156.587753
30
48.882877
11
-233.632736
21
78.012390
31
46.303730
12
-323.100616
22
79.015404
32
31.928349
13
-323.100616
23
79.015404
33
31.928349
0
3DFACE
8
0
10
-273.178680
20
1343.628906
30
49.425385
11
-323.100616
21
1420.984619
31
31.928349
12
-233.390472
22
1422.603394
32
46.222755
13
-233.390472
23
1422.603394
33
46.222755
0
3DFACE
8
0
10
-194.754532
20
313.078308
30
25.862556
11
-157.682526
21
230.266479
31
-2.701449
12
-229.462082
22
235.771484
32
44.813206
13
-229.462082
23
235.771484
33
44.813206
0
3DFACE
8
0
10
-362.590820
20
156.724335
30
7.933153
11
-276.490631
21
156.587753
31
48.882877
12
-323.100616
22
79.015404
32
31.928349
13
-323.100616
23
79.015404
33
31.928349
0
3DFACE
8
0
10
-360.638184
20
1342.576904
30
9.254337
11
-323.100616
21
1420.984619
31
31.928349
12
-273.178680
22
1343.628906
32
49.425385
13
-273.178680
23
1343.628906
33
49.425385
0
3DFACE
8
0
10
152.975327
20
77.545700
30
-6.650720
11
233.573273
21
78.111664
31
46.283920
12
192.639053
22
0.000000
32
24.407225
13
192.639053
23
0.000000
33
24.407225
0
3DFACE
8
0
10
152.975327
20
77.545700
30
-6.650720
11
189.977066
21
156.116211
31
22.537973
12
233.573273
22
78.111664
32
46.283920
13
233.573273
23
78.111664
33
46.283920
0
3DFACE
8
0
10
276.440613
20
1343.173096
30
48.891842
11
233.390472
21
1422.603394
31
46.222755
12
323.100616
22
1420.984619
32
31.928349
13
323.100616
23
1420.984619
33
31.928349
0
3DFACE
8
0
10
276.455933
20
156.897415
30
48.889099
11
323.100616
21
79.015404
31
31.928349
12
233.573273
22
78.111664
32
46.283920
13
233.573273
23
78.111664
33
46.283920
0
3DFACE
8
0
10
152.975327
20
77.545700
30
-6.650720
11
118.230904
21
155.236343
31
-36.302090
12
189.977066
22
156.116211
32
22.537973
13
189.977066
23
156.116211
33
22.537973
0
3DFACE
8
0
10
365.271484
20
796.088135
30
6.102748
11
426.302673
21
749.750671
31
-36.719711
12
356.254456
22
699.074524
32
12.180142
13
356.254456
23
699.074524
33
12.180142
0
3DFACE
8
0
10
-155.881409
20
76.560204
30
-4.207508
11
-120.437492
21
0.000000
31
-34.434269
12
-192.639053
22
0.000000
32
24.407225
13
-192.639053
23
0.000000
33
24.407225
0
3DFACE
8
0
10
152.975327
20
77.545700
30
-6.650720
11
192.639053
21
0.000000
31
24.407225
12
120.437492
22
0.000000
32
-34.434265
13
120.437492
23
0.000000
33
-34.434265
0
3DFACE
8
0
10
-122.852684
20
1027.230103
30
-32.382366
11
-56.577549
21
1065.178589
31
-81.944077
12
-58.869678
22
970.575256
32
-80.600273
13
-58.869678
23
970.575256
33
-80.600273
0
3DFACE
8
0
10
43.245220
20
1345.582275
30
-88.974022
11
0.043227
21
1422.756226
31
-99.999985
12
84.428368
22
1423.084717
32
-63.400063
13
84.428368
23
1423.084717
33
-63.400063
0
3DFACE
8
0
10
42.798950
20
154.799255
30
-89.184471
11
80.583656
21
234.059570
31
-66.216019
12
118.230904
22
155.236343
32
-36.302090
13
118.230904
23
155.236343
33
-36.302090
0
3DFACE
8
0
10
366.766113
20
997.239990
30
5.074306
11
301.588745
21
1022.263794
31
41.691860
12
354.533417
22
1095.729370
32
13.312553
13
354.533417
23
1095.729370
33
13.312553
0
3DFACE
8
0
10
42.798950
20
154.799255
30
-89.184471
11
118.230904
21
155.236343
31
-36.302090
12
83.818962
22
77.209297
32
-63.851051
13
83.818962
23
77.209297
33
-63.851051
0
3DFACE
8
0
10
-84.770477
20
75.114037
30
-63.146145
11
-1.424352
21
76.405205
31
-99.986267
12
-44.683025
22
0.000000
32
-88.284500
13
-44.683025
23
0.000000
33
-88.284500
0
3DFACE
8
0
10
314.526154
20
235.903473
30
36.162334
11
396.221130
21
242.824982
31
-15.916788
12
360.105804
22
154.190506
32
9.612695
13
360.105804
23
154.190506
33
9.612695
0
3DFACE
8
0
10
320.563049
20
1272.213867
30
33.225098
11
360.103241
21
1345.820923
31
9.614418
12
396.076080
22
1257.160156
32
-15.812101
13
396.076080
23
1257.160156
33
-15.812101
0
3DFACE
8
0
10
-84.770477
20
75.114037
30
-63.146145
11
-48.439083
21
152.715622
31
-86.402275
12
-1.424352
22
76.405205
32
-99.986267
13
-1.424352
23
76.405205
33
-99.986267
0
3DFACE
8
0
10
18.861301
20
1195.741821
30
-97.727013
11
88.305832
21
1157.848877
31
-60.491642
12
21.825710
22
1110.378052
32
-96.985962
13
21.825710
23
1110.378052
33
-96.985962
0
3DFACE
8
0
10
43.245220
20
1345.582275
30
-88.974022
11
118.357285
21
1345.685303
31
-36.195309
12
84.753853
22
1256.633667
32
-63.158497
13
84.753853
23
1256.633667
33
-63.158497
0
3DFACE
8
0
10
-84.770477
20
75.114037
30
-63.146145
11
-44.683025
21
0.000000
31
-88.284500
12
-120.437492
22
0.000000
32
-34.434269
13
-120.437492
23
0.000000
33
-34.434269
0
3DFACE
8
0
10
-153.710052
20
1422.946655
30
-6.031590
11
-192.639053
21
1500.000000
31
24.407225
12
-120.437492
22
1500.000000
32
-34.434269
13
-120.437492
23
1500.000000
33
-34.434269
0
3DFACE
8
0
10
153.723892
20
1422.749756
30
-6.019926
11
120.437492
21
1500.000000
31
-34.434265
12
192.639053
22
1500.000000
32
24.407225
13
192.639053
23
1500.000000
33
24.407225
0
3DFACE
8
0
10
-43.360432
20
1347.737793
30
-88.919418
11
-84.449867
21
1423.400635
31
-63.384125
12
0.043227
22
1422.756226
32
-99.999985
13
0.043227
23
1422.756226
33
-99.999985
0
3DFACE
8
0
10
437.798737
20
1346.668335
30
-43.448494
11
500.000000
21
1400.000000
31
0.000000
12
500.000000
22
1300.000000
32
0.000000
13
500.000000
23
1300.000000
33
0.000000
0
3DFACE
8
0
10
43.245220
20
1345.582275
30
-88.974022
11
-43.360432
21
1347.737793
31
-88.919418
12
0.043227
22
1422.756226
32
-99.999985
13
0.043227
23
1422.756226
33
-99.999985
0
3DFACE
8
0
10
272.564453
20
471.616760
30
49.514416
11
183.226929
21
477.825409
31
17.623154
12
222.770630
22
560.816406
32
42.015995
13
222.770630
23
560.816406
33
42.015995
0
3DFACE
8
0
10
-84.770477
20
75.114037
30
-63.146145
11
-120.437492
21
0.000000
31
-34.434269
12
-155.881409
22
76.560204
32
-4.207508
13
-155.881409
23
76.560204
33
-4.207508
0
3DFACE
8
0
10
-157.682526
20
230.266479
30
-2.701449
11
-121.713425
21
152.309769
31
-33.351158
12
-191.453339
22
154.439011
32
23.579714
13
-191.453339
23
154.439011
33
23.579714
0
3DFACE
8
0
10
-122.852684
20
1027.230103
30
-32.382366
11
-121.757996
21
1112.832886
31
-33.313290
12
-56.577549
22
1065.178589
32
-81.944077
13
-56.577549
23
1065.178589
33
-81.944077
0
3DFACE
8
0
10
-84.449867
20
1423.400635
30
-63.384125
11
-44.683025
21
1500.000000
31
-88.284500
12
0.043227
22
1422.756226
32
-99.999985
13
0.043227
23
1422.756226
33
-99.999985
0
3DFACE
8
0
10
366.766113
20
997.239990
30
5.074306
11
354.533417
21
1095.729370
31
13.312553
12
427.567413
22
1050.478394
32
-37.513187
13
427.567413
23
1050.478394
33
-37.513187
0
3DFACE
8
0
10
-121.713425
20
152.309769
30
-33.351158
11
-84.770477
21
75.114037
31
-63.146145
12
-155.881409
22
76.560204
32
-4.207508
13
-155.881409
23
76.560204
33
-4.207508
0
3DFACE
8
0
10
-436.217194
20
143.808578
30
-42.597443
11
-500.000000
21
100.000000
31
0.000000
12
-500.000000
22
200.000000
32
0.000000
13
-500.000000
23
200.000000
33
0.000000
0
3DFACE
8
0
10
42.798950
20
154.799255
30
-89.184471
11
83.818962
21
77.209297
31
-63.851051
12
-1.424352
22
76.405205
32
-99.986267
13
-1.424352
23
76.405205
33
-99.986267
0
3DFACE
8
0
10
-122.852684
20
1027.230103
30
-32.382366
11
-124.110893
21
928.095947
31
-31.310717
12
-185.419601
22
988.518799
32
19.245737
13
-185.419601
23
988.518799
33
19.245737
0
3DFACE
8
0
10
84.428368
20
1423.084717
30
-63.400063
11
0.043227
21
1422.756226
31
-99.999985
12
44.683029
22
1500.000000
32
-88.284500
13
44.683029
23
1500.000000
33
-88.284500
0
3DFACE
8
0
10
2.004998
20
550.966675
30
-99.972847
11
33.847843
21
477.863861
31
-93.032539
12
-60.263165
22
486.469452
32
-79.765358
13
-60.263165
23
486.469452
33
-79.765358
0
3DFACE
8
0
10
197.334808
20
1184.421509
30
27.599653
11
154.651291
21
1269.513306
31
-5.239810
12
231.214554
22
1270.487915
32
45.464195
13
231.214554
23
1270.487915
33
45.464195
0
3DFACE
8
0
10
-107.000435
20
1201.912476
30
-45.671291
11
-188.341812
21
1184.646362
31
21.369637
12
-152.725525
22
1265.570435
32
-6.861436
13
-152.725525
23
1265.570435
33
-6.861436
0
3DFACE
8
0
10
297.764130
20
559.428711
30
43.108101
11
222.770630
21
560.816406
31
42.015995
12
272.215363
22
644.582642
32
49.563370
13
272.215363
23
644.582642
33
49.563370
0
3DFACE
8
0
10
-87.692780
20
385.484314
30
-60.955849
11
-49.999420
21
310.115112
31
-85.586899
12
-120.907570
22
307.071930
32
-34.035473
13
-120.907570
23
307.071930
33
-34.035473
0
3DFACE
8
0
10
83.818962
20
77.209297
30
-63.851051
11
44.683029
21
0.000000
31
-88.284500
12
-1.424352
22
76.405205
32
-99.986267
13
-1.424352
23
76.405205
33
-99.986267
0
3DFACE
8
0
10
-121.713425
20
152.309769
30
-33.351158
11
-155.881409
21
76.560204
31
-4.207508
12
-191.453339
22
154.439011
32
23.579714
13
-191.453339
23
154.439011
33
23.579714
0
3DFACE
8
0
10
-307.057037
20
1050.169678
30
39.488876
11
-354.743591
21
1099.167114
31
13.174774
12
-267.879272
22
1127.353516
32
50.070316
13
-267.879272
23
1127.353516
33
50.070316
0
3DFACE
8
0
10
-157.682526
20
230.266479
30
-2.701449
11
-90.445747
21
229.755310
31
-58.858990
12
-121.713425
22
152.309769
32
-33.351158
13
-121.713425
23
152.309769
33
-33.351158
0
3DFACE
8
0
10
314.526154
20
235.903473
30
36.162334
11
276.455933
21
156.897415
31
48.889099
12
229.116257
22
236.267303
32
44.680611
13
229.116257
23
236.267303
33
44.680611
0
3DFACE
8
0
10
262.153564
20
315.354309
30
50.441147
11
229.116257
21
236.267303
31
44.680611
12
185.245163
22
317.516541
32
19.117531
13
185.245163
23
317.516541
33
19.117531
0
3DFACE
8
0
10
80.632065
20
705.708435
30
-66.181007
11
23.538706
21
638.296021
31
-96.514000
12
16.147268
22
736.489990
32
-98.319122
13
16.147268
23
736.489990
33
-98.319122
0
3DFACE
8
0
10
320.563049
20
1272.213867
30
33.225098
11
231.214554
21
1270.487915
31
45.464195
12
276.440613
22
1343.173096
32
48.891842
13
276.440613
23
1343.173096
33
48.891842
0
3DFACE
8
0
10
-319.657867
20
228.225571
30
33.678963
11
-229.462082
21
235.771484
31
44.813206
12
-276.490631
22
156.587753
32
48.882877
13
-276.490631
23
156.587753
33
48.882877
0
3DFACE
8
0
10
-157.682526
20
230.266479
30
-2.701449
11
-120.907570
21
307.071930
31
-34.035473
12
-90.445747
22
229.755310
32
-58.858990
13
-90.445747
23
229.755310
33
-58.858990
0
3DFACE
8
0
10
2.004998
20
550.966675
30
-99.972847
11
23.538706
21
638.296021
31
-96.514000
12
75.482071
22
559.383118
32
-69.839264
13
75.482071
23
559.383118
33
-69.839264
0
3DFACE
8
0
10
-315.089081
20
1269.578125
30
35.897533
11
-360.638184
21
1342.576904
31
9.254337
12
-273.178680
22
1343.628906
32
49.425385
13
-273.178680
23
1343.628906
33
49.425385
0
3DFACE
8
0
10
135.318573
20
1198.931885
30
-21.714800
11
84.753853
21
1256.633667
31
-63.158497
12
154.651291
22
1269.513306
32
-5.239810
13
154.651291
23
1269.513306
33
-5.239810
0
3DFACE
8
0
10
80.632065
20
705.708435
30
-66.181007
11
90.652229
21
782.156677
31
-58.700462
12
151.900360
22
728.005188
32
-7.558205
13
151.900360
23
728.005188
33
-7.558205
0
3DFACE
8
0
10
-121.713425
20
152.309769
30
-33.351158
11
-90.445747
21
229.755310
31
-58.858990
12
-48.439083
22
152.715622
32
-86.402275
13
-48.439083
23
152.715622
33
-86.402275
0
3DFACE
8
0
10
291.005188
20
742.595886
30
45.344524
11
356.254456
21
699.074524
31
12.180142
12
272.215363
22
644.582642
32
49.563370
13
272.215363
23
644.582642
33
49.563370
0
3DFACE
8
0
10
-121.713425
20
152.309769
30
-33.351158
11
-48.439083
21
152.715622
31
-86.402275
12
-84.770477
22
75.114037
32
-63.146145
13
-84.770477
23
75.114037
33
-63.146145
0
3DFACE
8
0
10
-307.057037
20
1050.169678
30
39.488876
11
-239.738327
21
1047.936401
31
48.104298
12
-272.906830
22
956.642883
32
49.465244
13
-272.906830
23
956.642883
33
49.465244
0
3DFACE
8
0
10
-157.682526
20
230.266479
30
-2.701449
11
-191.453339
21
154.439011
31
23.579714
12
-229.462082
22
235.771484
32
44.813206
13
-229.462082
23
235.771484
33
44.813206
0
3DFACE
8
0
10
289.731140
20
383.812836
30
45.726242
11
349.742554
21
413.449371
31
16.412539
12
342.300354
22
321.229218
32
21.060726
13
342.300354
23
321.229218
33
21.060726
0
3DFACE
8
0
10
279.618225
20
1212.280640
30
48.276360
11
197.334808
21
1184.421509
31
27.599653
12
231.214554
22
1270.487915
32
45.464195
13
231.214554
23
1270.487915
33
45.464195
0
3DFACE
8
0
10
-266.700439
20
1206.906128
30
50.175030
11
-188.341812
21
1184.646362
31
21.369637
12
-267.879272
22
1127.353516
32
50.070316
13
-267.879272
23
1127.353516
33
50.070316
0
3DFACE
8
0
10
-307.057037
20
1050.169678
30
39.488876
11
-272.906830
21
956.642883
31
49.465244
12
-354.600739
22
1003.201355
32
13.268435
13
-354.600739
23
1003.201355
33
13.268435
0
3DFACE
8
0
10
297.764130
20
559.428711
30
43.108101
11
272.215363
21
644.582642
31
49.563370
12
355.131622
22
603.269043
32
12.920018
13
355.131622
23
603.269043
33
12.920018
0
3DFACE
8
0
10
-1.497377
20
1276.414062
30
-99.984825
11
84.753853
21
1256.633667
31
-63.158497
12
18.861301
22
1195.741821
32
-97.727013
13
18.861301
23
1195.741821
33
-97.727013
0
3DFACE
8
0
10
-146.319443
20
371.005890
30
-12.296203
11
-120.907570
21
307.071930
31
-34.035473
12
-194.754532
22
313.078308
32
25.862556
13
-194.754532
23
313.078308
33
25.862556
0
3DFACE
8
0
10
2.004998
20
550.966675
30
-99.972847
11
75.482071
21
559.383118
31
-69.839264
12
33.847843
22
477.863861
32
-93.032539
13
33.847843
23
477.863861
33
-93.032539
0
3DFACE
8
0
10
272.564453
20
471.616760
30
49.514416
11
220.105896
21
396.177246
31
40.772232
12
183.226929
22
477.825409
32
17.623154
13
183.226929
23
477.825409
33
17.623154
0
3DFACE
8
0
10
-45.178181
20
1220.382202
30
-88.043015
11
-107.000435
21
1201.912476
31
-45.671291
12
-82.215591
22
1274.569580
32
-65.029343
13
-82.215591
23
1274.569580
33
-65.029343
0
3DFACE
8
0
10
-107.000435
20
1201.912476
30
-45.671291
11
-51.466896
21
1151.809814
31
-84.802628
12
-121.757996
22
1112.832886
32
-33.313290
13
-121.757996
23
1112.832886
33
-33.313290
0
3DFACE
8
0
10
-107.000435
20
1201.912476
30
-45.671291
11
-152.725525
21
1265.570435
31
-6.861436
12
-82.215591
22
1274.569580
32
-65.029343
13
-82.215591
23
1274.569580
33
-65.029343
0
3DFACE
8
0
10
-1.497377
20
1276.414062
30
-99.984825
11
-82.215591
21
1274.569580
31
-65.029343
12
-43.360432
22
1347.737793
32
-88.919418
13
-43.360432
23
1347.737793
33
-88.919418
0
3DFACE
8
0
10
-194.754532
20
313.078308
30
25.862556
11
-273.387817
21
359.914154
31
49.394234
12
-196.524567
22
401.705658
32
27.058798
13
-196.524567
23
401.705658
33
27.058798
0
3DFACE
8
0
10
297.764130
20
559.428711
30
43.108101
11
353.472443
21
509.107574
31
14.005828
12
272.564453
22
471.616760
32
49.514416
13
272.564453
23
471.616760
33
49.514416
0
3DFACE
8
0
10
366.766113
20
997.239990
30
5.074306
11
427.567413
21
1050.478394
31
-37.513187
12
428.021637
22
948.255371
32
-37.795464
13
428.021637
23
948.255371
33
-37.795464
0
3DFACE
8
0
10
-45.178181
20
1220.382202
30
-88.043015
11
-51.466896
21
1151.809814
31
-84.802628
12
-107.000435
22
1201.912476
32
-45.671291
13
-107.000435
23
1201.912476
33
-45.671291
0
3DFACE
8
0
10
450.893402
20
1426.008057
30
-49.074783
11
393.481689
21
1422.285522
31
-13.938547
12
439.881348
22
1500.000000
32
-44.523674
13
439.881348
23
1500.000000
33
-44.523674
0
3DFACE
8
0
10
135.318573
20
1198.931885
30
-21.714800
11
145.095917
21
1114.544556
31
-13.339838
12
88.305832
22
1157.848877
32
-60.491642
13
88.305832
23
1157.848877
33
-60.491642
0
3DFACE
8
0
10
-1.497377
20
1276.414062
30
-99.984825
11
43.245220
21
1345.582275
31
-88.974022
12
84.753853
22
1256.633667
32
-63.158497
13
84.753853
23
1256.633667
33
-63.158497
0
3DFACE
8
0
10
-456.744812
20
68.197090
30
-50.401909
11
-393.855469
21
78.200935
31
-14.208560
12
-439.881348
22
0.000000
32
-44.523674
13
-439.881348
23
0.000000
33
-44.523674
0
3DFACE
8
0
10
450.893402
20
1426.008057
30
-49.074783
11
437.798737
21
1346.668335
31
-43.448494
12
393.481689
22
1422.285522
32
-13.938547
13
393.481689
23
1422.285522
33
-13.938547
0
3DFACE
8
0
10
314.526154
20
235.903473
30
36.162334
11
360.105804
21
154.190506
31
9.612695
12
276.455933
22
156.897415
32
48.889099
13
276.455933
23
156.897415
33
48.889099
0
3DFACE
8
0
10
320.563049
20
1272.213867
30
33.225098
11
276.440613
21
1343.173096
31
48.891842
12
360.103241
22
1345.820923
32
9.614418
13
360.103241
23
1345.820923
33
9.614418
0
3DFACE
8
0
10
-146.319443
20
371.005890
30
-12.296203
11
-194.754532
21
313.078308
31
25.862556
12
-196.524567
22
401.705658
32
27.058798
13
-196.524567
23
401.705658
33
27.058798
0
3DFACE
8
0
10
-266.700439
20
1206.906128
30
50.175030
11
-228.148453
21
1269.925171
31
44.302418
12
-188.341812
22
1184.646362
32
21.369637
13
-188.341812
23
1184.646362
33
21.369637
0
3DFACE
8
0
10
-319.657867
20
228.225571
30
33.678963
11
-276.490631
21
156.587753
31
48.882877
12
-362.590820
22
156.724335
32
7.933153
13
-362.590820
23
156.724335
33
7.933153
0
3DFACE
8
0
10
297.764130
20
559.428711
30
43.108101
11
272.564453
21
471.616760
31
49.514416
12
222.770630
22
560.816406
32
42.015995
13
222.770630
23
560.816406
33
42.015995
0
3DFACE
8
0
10
-315.089081
20
1269.578125
30
35.897533
11
-273.178680
21
1343.628906
31
49.425385
12
-228.148453
22
1269.925171
32
44.302418
13
-228.148453
23
1269.925171
33
44.302418
0
3DFACE
8
0
10
289.731140
20
383.812836
30
45.726242
11
342.300354
21
321.229218
31
21.060726
12
262.153564
22
315.354309
32
50.441147
13
262.153564
23
315.354309
33
50.441147
0
3DFACE
8
0
10
-456.744812
20
68.197090
30
-50.401909
11
-436.217194
21
143.808578
31
-42.597443
12
-393.855469
22
78.200935
32
-14.208560
13
-393.855469
23
78.200935
33
-14.208560
0
3DFACE
8
0
10
352.622559
20
891.562866
30
14.558449
11
365.271484
21
796.088135
31
6.102748
12
304.865570
22
823.864990
32
40.396229
13
304.865570
23
823.864990
33
40.396229
0
3DFACE
8
0
10
-87.692780
20
385.484314
30
-60.955849
11
-7.305057
21
394.347443
31
-99.645790
12
-49.999420
22
310.115112
32
-85.586899
13
-49.999420
23
310.115112
33
-85.586899
0
3DFACE
8
0
10
365.271484
20
796.088135
30
6.102748
11
427.447998
21
847.889160
31
-37.438736
12
426.302673
22
749.750671
32
-36.719711
13
426.302673
23
749.750671
33
-36.719711
0
3DFACE
8
0
10
450.893402
20
1426.008057
30
-49.074783
11
500.000000
21
1400.000000
31
0.000000
12
437.798737
22
1346.668335
32
-43.448494
13
437.798737
23
1346.668335
33
-43.448494
0
3DFACE
8
0
10
135.318573
20
1198.931885
30
-21.714800
11
197.334808
21
1184.421509
31
27.599653
12
145.095917
22
1114.544556
32
-13.339838
13
145.095917
23
1114.544556
33
-13.339838
0
3DFACE
8
0
10
218.580048
20
705.752075
30
40.028606
11
272.215363
21
644.582642
31
49.563370
12
183.608047
22
639.684143
32
17.906895
13
183.608047
23
639.684143
33
17.906895
0
3DFACE
8
0
10
262.153564
20
315.354309
30
50.441147
11
185.245163
21
317.516541
31
19.117531
12
220.105896
22
396.177246
32
40.772232
13
220.105896
23
396.177246
33
40.772232
0
3DFACE
8
0
10
-456.744812
20
68.197090
30
-50.401909
11
-500.000000
21
100.000000
31
0.000000
12
-436.217194
22
143.808578
32
-42.597443
13
-436.217194
23
143.808578
33
-42.597443
0
3DFACE
8
0
10
291.005188
20
742.595886
30
45.344524
11
221.974976
21
782.623718
31
41.652073
12
304.865570
22
823.864990
32
40.396229
13
304.865570
23
823.864990
33
40.396229
0
3DFACE
8
0
10
2.004998
20
550.966675
30
-99.972847
11
-60.263165
21
486.469452
31
-79.765358
12
-65.785843
22
590.756042
32
-76.328537
13
-65.785843
23
590.756042
33
-76.328537
0
3DFACE
8
0
10
352.622559
20
891.562866
30
14.558449
11
427.447998
21
847.889160
31
-37.438736
12
365.271484
22
796.088135
32
6.102748
13
365.271484
23
796.088135
33
6.102748
0
3DFACE
8
0
10
218.580048
20
705.752075
30
40.028606
11
183.608047
21
639.684143
31
17.906895
12
151.900360
22
728.005188
32
-7.558205
13
151.900360
23
728.005188
33
-7.558205
0
3DFACE
8
0
10
2.004998
20
550.966675
30
-99.972847
11
-65.785843
21
590.756042
31
-76.328537
12
23.538706
22
638.296021
32
-96.514000
13
23.538706
23
638.296021
33
-96.514000
0
3DFACE
8
0
10
-266.700439
20
1206.906128
30
50.175030
11
-267.879272
21
1127.353516
31
50.070316
12
-343.482880
22
1187.350952
32
20.336706
13
-343.482880
23
1187.350952
33
20.336706
0
3DFACE
8
0
10
297.764130
20
559.428711
30
43.108101
11
355.131622
21
603.269043
31
12.920018
12
353.472443
22
509.107574
32
14.005828
13
353.472443
23
509.107574
33
14.005828
0
3DFACE
8
0
10
218.580048
20
705.752075
30
40.028606
11
151.900360
21
728.005188
31
-7.558205
12
221.974976
22
782.623718
32
41.652073
13
221.974976
23
782.623718
33
41.652073
0
3DFACE
8
0
10
-1.497377
20
1276.414062
30
-99.984825
11
-43.360432
21
1347.737793
31
-88.919418
12
43.245220
22
1345.582275
32
-88.974022
13
43.245220
23
1345.582275
33
-88.974022
0
3DFACE
8
0
10
-146.319443
20
371.005890
30
-12.296203
11
-196.524567
21
401.705658
31
27.058798
12
-134.272308
22
446.614319
32
-22.612568
13
-134.272308
23
446.614319
33
-22.612568
0
3DFACE
8
0
10
289.731140
20
383.812836
30
45.726242
11
220.105896
21
396.177246
31
40.772232
12
272.564453
22
471.616760
32
49.514416
13
272.564453
23
471.616760
33
49.514416
0
3DFACE
8
0
10
-146.319443
20
371.005890
30
-12.296203
11
-87.692780
21
385.484314
31
-60.955849
12
-120.907570
22
307.071930
32
-34.035473
13
-120.907570
23
307.071930
33
-34.035473
0
3DFACE
8
0
10
-275.341187
20
286.970612
30
49.082973
11
-345.509521
21
311.350342
31
19.082754
12
-273.387817
22
359.914154
32
49.394234
13
-273.387817
23
359.914154
33
49.394234
0
3DFACE
8
0
10
279.618225
20
1212.280640
30
48.276360
11
341.602997
21
1189.446899
31
21.485001
12
275.089081
22
1136.709351
32
49.125191
13
275.089081
23
1136.709351
33
49.125191
0
3DFACE
8
0
10
80.632065
20
705.708435
30
-66.181007
11
16.147268
21
736.489990
31
-98.319122
12
90.652229
22
782.156677
32
-58.700462
13
90.652229
23
782.156677
33
-58.700462
0
3DFACE
8
0
10
-45.178181
20
1220.382202
30
-88.043015
11
18.861301
21
1195.741821
31
-97.727013
12
-51.466896
22
1151.809814
32
-84.802628
13
-51.466896
23
1151.809814
33
-84.802628
0
3DFACE
8
0
10
279.618225
20
1212.280640
30
48.276360
11
231.214554
21
1270.487915
31
45.464195
12
320.563049
22
1272.213867
32
33.225098
13
320.563049
23
1272.213867
33
33.225098
0
3DFACE
8
0
10
-307.057037
20
1050.169678
30
39.488876
11
-354.600739
21
1003.201355
31
13.268435
12
-354.743591
22
1099.167114
32
13.174774
13
-354.743591
23
1099.167114
33
13.174774
0
3DFACE
8
0
10
-275.341187
20
286.970612
30
49.082973
11
-194.754532
21
313.078308
31
25.862556
12
-229.462082
22
235.771484
32
44.813206
13
-229.462082
23
235.771484
33
44.813206
0
3DFACE
8
0
10
-275.341187
20
286.970612
30
49.082973
11
-229.462082
21
235.771484
31
44.813206
12
-319.657867
22
228.225571
32
33.678963
13
-319.657867
23
228.225571
33
33.678963
0
3DFACE
8
0
10
218.580048
20
705.752075
30
40.028606
11
291.005188
21
742.595886
31
45.344524
12
272.215363
22
644.582642
32
49.563370
13
272.215363
23
644.582642
33
49.563370
0
3DFACE
8
0
10
-275.341187
20
286.970612
30
49.082973
11
-273.387817
21
359.914154
31
49.394234
12
-194.754532
22
313.078308
32
25.862556
13
-194.754532
23
313.078308
33
25.862556
0
3DFACE
8
0
10
-266.700439
20
1206.906128
30
50.175030
11
-343.482880
21
1187.350952
31
20.336706
12
-315.089081
22
1269.578125
32
35.897533
13
-315.089081
23
1269.578125
33
35.897533
0
3DFACE
8
0
10
135.318573
20
1198.931885
30
-21.714800
11
154.651291
21
1269.513306
31
-5.239810
12
197.334808
22
1184.421509
32
27.599653
13
197.334808
23
1184.421509
33
27.599653
0
3DFACE
8
0
10
-45.178181
20
1220.382202
30
-88.043015
11
-82.215591
21
1274.569580
31
-65.029343
12
-1.497377
22
1276.414062
32
-99.984825
13
-1.497377
23
1276.414062
33
-99.984825
0
3DFACE
8
0
10
-146.319443
20
371.005890
30
-12.296203
11
-134.272308
21
446.614319
31
-22.612568
12
-87.692780
22
385.484314
32
-60.955849
13
-87.692780
23
385.484314
33
-60.955849
0
3DFACE
8
0
10
-275.341187
20
286.970612
30
49.082973
11
-319.657867
21
228.225571
31
33.678963
12
-345.509521
22
311.350342
32
19.082754
13
-345.509521
23
311.350342
33
19.082754
0
3DFACE
8
0
10
279.618225
20
1212.280640
30
48.276360
11
320.563049
21
1272.213867
31
33.225098
12
341.602997
22
1189.446899
32
21.485001
13
341.602997
23
1189.446899
33
21.485001
0
3DFACE
8
0
10
-45.178181
20
1220.382202
30
-88.043015
11
-1.497377
21
1276.414062
31
-99.984825
12
18.861301
22
1195.741821
32
-97.727013
13
18.861301
23
1195.741821
33
-97.727013
0
3DFACE
8
0
10
-266.700439
20
1206.906128
30
50.175030
11
-315.089081
21
1269.578125
31
35.897533
12
-228.148453
22
1269.925171
32
44.302418
13
-228.148453
23
1269.925171
33
44.302418
0
3DFACE
8
0
10
289.731140
20
383.812836
30
45.726242
11
262.153564
21
315.354309
31
50.441147
12
220.105896
22
396.177246
32
40.772232
13
220.105896
23
396.177246
33
40.772232
0
3DFACE
8
0
10
218.580048
20
705.752075
30
40.028606
11
221.974976
21
782.623718
31
41.652073
12
291.005188
22
742.595886
32
45.344524
13
291.005188
23
742.595886
33
45.344524
0
3DFACE
8
0
10
-474.056610
20
1411.736206
30
-49.510918
11
-500.000000
21
1300.000000
31
0.000000
12
-500.000000
22
1400.000000
32
0.000000
13
-500.000000
23
1400.000000
33
0.000000
0
3DFACE
8
0
10
-474.056610
20
1411.736206
30
-49.510918
11
-435.460419
21
1348.319702
31
-42.180450
12
-500.000000
22
1300.000000
32
0.000000
13
-500.000000
23
1300.000000
33
0.000000
0
3DFACE
8
0
10
474.302124
20
88.510086
30
-49.415653
11
500.000000
21
200.000000
31
0.000000
12
500.000000
22
100.000000
32
0.000000
13
500.000000
23
100.000000
33
0.000000
0
3DFACE
8
0
10
437.800171
20
153.330811
30
-43.449249
11
500.000000
21
300.000000
31
0.000000
12
500.000000
22
200.000000
32
0.000000
13
500.000000
23
200.000000
33
0.000000
0
3DFACE
8
0
10
474.302124
20
88.510086
30
-49.415653
11
437.800171
21
153.330811
31
-43.449249
12
500.000000
22
200.000000
32
0.000000
13
500.000000
23
200.000000
33
0.000000
0
3DFACE
8
0
10
396.221130
20
242.824982
30
-15.916788
11
500.000000
21
300.000000
31
0.000000
12
437.800171
22
153.330811
32
-43.449249
13
437.800171
23
153.330811
33
-43.449249
0
3DFACE
8
0
10
437.798737
20
1346.668335
30
-43.448494
11
500.000000
21
1300.000000
31
0.000000
12
500.000000
22
1200.000000
32
0.000000
13
500.000000
23
1200.000000
33
0.000000
0
3DFACE
8
0
10
396.076080
20
1257.160156
30
-15.812101
11
437.798737
21
1346.668335
31
-43.448494
12
500.000000
22
1200.000000
32
0.000000
13
500.000000
23
1200.000000
33
0.000000
0
3DFACE
8
0
10
352.622559
20
891.562866
30
14.558449
11
243.565811
21
874.871277
31
48.985222
12
303.702667
22
950.145874
32
40.864525
13
303.702667
23
950.145874
33
40.864525
0
3DFACE
8
0
10
352.622559
20
891.562866
30
14.558449
11
304.865570
21
823.864990
31
40.396229
12
243.565811
22
874.871277
32
48.985222
13
243.565811
23
874.871277
33
48.985222
0
3DFACE
8
0
10
500.000000
20
1300.000000
30
150.000000
11
500.000000
21
1350.000000
31
86.602539
12
500.000000
22
1406.441528
32
150.000000
13
500.000000
23
1406.441528
33
150.000000
0
3DFACE
8
0
10
500.000000
20
1300.000000
30
150.000000
11
500.000000
21
1406.441528
31
150.000000
12
500.000000
22
1350.000000
32
213.397461
13
500.000000
23
1350.000000
33
213.397461
0
3DFACE
8
0
10
500.000000
20
200.522278
30
150.000000
11
500.000000
21
154.903809
31
216.228683
12
500.000000
22
94.385078
32
150.000000
13
500.000000
23
94.385078
33
150.000000
0
3DFACE
8
0
10
500.000000
20
200.522278
30
150.000000
11
500.000000
21
94.385078
31
150.000000
12
500.000000
22
154.903809
32
83.771324
13
500.000000
23
154.903809
33
83.771324
0
3DFACE
8
0
10
500.000000
20
1150.000000
30
86.602539
11
500.000000
21
1200.000000
31
0.000000
12
500.000000
22
1250.000000
32
86.602539
13
500.000000
23
1250.000000
33
86.602539
0
3DFACE
8
0
10
500.000000
20
1150.000000
30
86.602539
11
500.000000
21
1100.000000
31
0.000000
12
500.000000
22
1200.000000
32
0.000000
13
500.000000
23
1200.000000
33
0.000000
0
3DFACE
8
0
10
500.000000
20
850.000000
30
86.602539
11
500.000000
21
900.000000
31
0.000000
12
500.000000
22
950.000000
32
86.602539
13
500.000000
23
950.000000
33
86.602539
0
3DFACE
8
0
10
500.000000
20
550.000000
30
86.602539
11
500.000000
21
600.000000
31
0.000000
12
500.000000
22
650.000000
32
86.602539
13
500.000000
23
650.000000
33
86.602539
0
3DFACE
8
0
10
500.000000
20
850.000000
30
213.397461
11
500.000000
21
950.000000
31
213.397461
12
500.000000
22
900.000000
32
300.000000
13
500.000000
23
900.000000
33
300.000000
0
3DFACE
8
0
10
500.000000
20
850.000000
30
213.397461
11
500.000000
21
900.000000
31
300.000000
12
500.000000
22
800.000000
32
300.000000
13
500.000000
23
800.000000
33
300.000000
0
3DFACE
8
0
10
500.000000
20
1050.000000
30
86.602539
11
500.000000
21
1000.000000
31
0.000000
12
500.000000
22
1100.000000
32
0.000000
13
500.000000
23
1100.000000
33
0.000000
0
3DFACE
8
0
10
500.000000
20
1050.000000
30
213.397461
11
500.000000
21
1100.000000
31
300.000000
12
500.000000
22
1000.000000
32
300.000000
13
500.000000
23
1000.000000
33
300.000000
0
3DFACE
8
0
10
500.000000
20
650.000000
30
213.397461
11
500.000000
21
700.000000
31
300.000000
12
500.000000
22
600.000000
32
300.000000
13
500.000000
23
600.000000
33
300.000000
0
3DFACE
8
0
10
500.000000
20
1250.000000
30
86.602539
11
500.000000
21
1200.000000
31
0.000000
12
500.000000
22
1300.000000
32
0.000000
13
500.000000
23
1300.000000
33
0.000000
0
3DFACE
8
0
10
500.000000
20
1350.000000
30
86.602539
11
500.000000
21
1300.000000
31
0.000000
12
500.000000
22
1400.000000
32
0.000000
13
500.000000
23
1400.000000
33
0.000000
0
3DFACE
8
0
10
500.000000
20
550.000000
30
86.602539
11
500.000000
21
500.000000
31
0.000000
12
500.000000
22
600.000000
32
0.000000
13
500.000000
23
600.000000
33
0.000000
0
3DFACE
8
0
10
500.000000
20
850.000000
30
86.602539
11
500.000000
21
800.000000
31
0.000000
12
500.000000
22
900.000000
32
0.000000
13
500.000000
23
900.000000
33
0.000000
0
3DFACE
8
0
10
500.000000
20
1150.000000
30
86.602539
11
500.000000
21
1050.000000
31
86.602539
12
500.000000
22
1100.000000
32
0.000000
13
500.000000
23
1100.000000
33
0.000000
0
3DFACE
8
0
10
500.000000
20
350.000000
30
86.602539
11
500.000000
21
400.000000
31
0.000000
12
500.000000
22
450.000000
32
86.602539
13
500.000000
23
450.000000
33
86.602539
0
3DFACE
8
0
10
500.000000
20
350.000000
30
86.602539
11
500.000000
21
300.000000
31
0.000000
12
500.000000
22
400.000000
32
0.000000
13
500.000000
23
400.000000
33
0.000000
0
3DFACE
8
0
10
500.000000
20
1350.000000
30
213.397461
11
500.000000
21
1400.000000
31
300.000000
12
500.000000
22
1300.000000
32
300.000000
13
500.000000
23
1300.000000
33
300.000000
0
3DFACE
8
0
10
500.000000
20
94.385078
30
150.000000
11
500.000000
21
0.000000
31
200.000000
12
500.000000
22
0.000000
32
100.000000
13
500.000000
23
0.000000
33
100.000000
0
3DFACE
8
0
10
500.000000
20
1350.000000
30
86.602539
11
500.000000
21
1250.000000
31
86.602539
12
500.000000
22
1300.000000
32
0.000000
13
500.000000
23
1300.000000
33
0.000000
0
3DFACE
8
0
10
500.000000
20
1250.000000
30
213.397461
11
500.000000
21
1200.000000
31
300.000000
12
500.000000
22
1150.000000
32
213.397461
13
500.000000
23
1150.000000
33
213.397461
0
3DFACE
8
0
10
500.000000
20
1050.000000
30
213.397461
11
500.000000
21
1000.000000
31
300.000000
12
500.000000
22
950.000000
32
213.397461
13
500.000000
23
950.000000
33
213.397461
0
3DFACE
8
0
10
500.000000
20
650.000000
30
213.397461
11
500.000000
21
600.000000
31
300.000000
12
500.000000
22
550.000000
32
213.397461
13
500.000000
23
550.000000
33
213.397461
0
3DFACE
8
0
10
500.000000
20
1050.000000
30
213.397461
11
500.000000
21
1150.000000
31
213.397461
12
500.000000
22
1100.000000
32
300.000000
13
500.000000
23
1100.000000
33
300.000000
0
3DFACE
8
0
10
500.000000
20
650.000000
30
213.397461
11
500.000000
21
750.000000
31
213.397461
12
500.000000
22
700.000000
32
300.000000
13
500.000000
23
700.000000
33
300.000000
0
3DFACE
8
0
10
500.000000
20
251.471008
30
84.013519
11
500.000000
21
200.000000
31
0.000000
12
500.000000
22
300.000000
32
0.000000
13
500.000000
23
300.000000
33
0.000000
0
3DFACE
8
0
10
500.000000
20
650.000000
30
86.602539
11
500.000000
21
600.000000
31
0.000000
12
500.000000
22
700.000000
32
0.000000
13
500.000000
23
700.000000
33
0.000000
0
3DFACE
8
0
10
500.000000
20
950.000000
30
86.602539
11
500.000000
21
900.000000
31
0.000000
12
500.000000
22
1000.000000
32
0.000000
13
500.000000
23
1000.000000
33
0.000000
0
3DFACE
8
0
10
500.000000
20
450.000000
30
86.602539
11
500.000000
21
400.000000
31
0.000000
12
500.000000
22
500.000000
32
0.000000
13
500.000000
23
500.000000
33
0.000000
0
3DFACE
8
0
10
500.000000
20
750.000000
30
86.602539
11
500.000000
21
650.000000
31
86.602539
12
500.000000
22
700.000000
32
0.000000
13
500.000000
23
700.000000
33
0.000000
0
3DFACE
8
0
10
500.000000
20
750.000000
30
86.602539
11
500.000000
21
700.000000
31
0.000000
12
500.000000
22
800.000000
32
0.000000
13
500.000000
23
800.000000
33
0.000000
0
3DFACE
8
0
10
500.000000
20
350.000000
30
86.602539
11
500.000000
21
251.471008
31
84.013519
12
500.000000
22
300.000000
32
0.000000
13
500.000000
23
300.000000
33
0.000000
0
3DFACE
8
0
10
500.000000
20
251.471008
30
215.986481
11
500.000000
21
300.000000
31
300.000000
12
500.000000
22
200.000000
32
300.000000
13
500.000000
23
200.000000
33
300.000000
0
3DFACE
8
0
10
500.000000
20
1250.000000
30
213.397461
11
500.000000
21
1300.000000
31
300.000000
12
500.000000
22
1200.000000
32
300.000000
13
500.000000
23
1200.000000
33
300.000000
0
3DFACE
8
0
10
500.000000
20
1050.000000
30
86.602539
11
500.000000
21
950.000000
31
86.602539
12
500.000000
22
1000.000000
32
0.000000
13
500.000000
23
1000.000000
33
0.000000
0
3DFACE
8
0
10
500.000000
20
550.000000
30
86.602539
11
500.000000
21
450.000000
31
86.602539
12
500.000000
22
500.000000
32
0.000000
13
500.000000
23
500.000000
33
0.000000
0
3DFACE
8
0
10
500.000000
20
450.000000
30
213.397461
11
500.000000
21
400.000000
31
300.000000
12
500.000000
22
350.000000
32
213.397461
13
500.000000
23
350.000000
33
213.397461
0
3DFACE
8
0
10
500.000000
20
1250.000000
30
213.397461
11
500.000000
21
1350.000000
31
213.397461
12
500.000000
22
1300.000000
32
300.000000
13
500.000000
23
1300.000000
33
300.000000
0
3DFACE
8
0
10
500.000000
20
850.000000
30
86.602539
11
500.000000
21
750.000000
31
86.602539
12
500.000000
22
800.000000
32
0.000000
13
500.000000
23
800.000000
33
0.000000
0
3DFACE
8
0
10
500.000000
20
450.000000
30
213.397461
11
500.000000
21
500.000000
31
300.000000
12
500.000000
22
400.000000
32
300.000000
13
500.000000
23
400.000000
33
300.000000
0
3DFACE
8
0
10
500.000000
20
550.000000
30
213.397461
11
500.000000
21
600.000000
31
300.000000
12
500.000000
22
500.000000
32
300.000000
13
500.000000
23
500.000000
33
300.000000
0
3DFACE
8
0
10
500.000000
20
1150.000000
30
213.397461
11
500.000000
21
1200.000000
31
300.000000
12
500.000000
22
1100.000000
32
300.000000
13
500.000000
23
1100.000000
33
300.000000
0
3DFACE
8
0
10
500.000000
20
750.000000
30
213.397461
11
500.000000
21
800.000000
31
300.000000
12
500.000000
22
700.000000
32
300.000000
13
500.000000
23
700.000000
33
300.000000
0
3DFACE
8
0
10
500.000000
20
950.000000
30
213.397461
11
500.000000
21
1000.000000
31
300.000000
12
500.000000
22
900.000000
32
300.000000
13
500.000000
23
900.000000
33
300.000000
0
3DFACE
8
0
10
500.000000
20
350.000000
30
213.397461
11
500.000000
21
400.000000
31
300.000000
12
500.000000
22
300.000000
32
300.000000
13
500.000000
23
300.000000
33
300.000000
0
3DFACE
8
0
10
500.000000
20
450.000000
30
213.397461
11
500.000000
21
550.000000
31
213.397461
12
500.000000
22
500.000000
32
300.000000
13
500.000000
23
500.000000
33
300.000000
0
3DFACE
8
0
10
500.000000
20
850.000000
30
213.397461
11
500.000000
21
800.000000
31
300.000000
12
500.000000
22
750.000000
32
213.397461
13
500.000000
23
750.000000
33
213.397461
0
3DFACE
8
0
10
500.000000
20
251.471008
30
215.986481
11
500.000000
21
350.000000
31
213.397461
12
500.000000
22
300.000000
32
300.000000
13
500.000000
23
300.000000
33
300.000000
0
3DFACE
8
0
10
500.000000
20
154.903809
30
83.771324
11
500.000000
21
100.000000
31
0.000000
12
500.000000
22
200.000000
32
0.000000
13
500.000000
23
200.000000
33
0.000000
0
3DFACE
8
0
10
500.000000
20
154.903809
30
216.228683
11
500.000000
21
200.000000
31
300.000000
12
500.000000
22
100.000000
32
300.000000
13
500.000000
23
100.000000
33
300.000000
0
3DFACE
8
0
10
500.000000
20
154.903809
30
216.228683
11
500.000000
21
251.471008
31
215.986481
12
500.000000
22
200.000000
32
300.000000
13
500.000000
23
200.000000
33
300.000000
0
3DFACE
8
0
10
500.000000
20
154.903809
30
83.771324
11
500.000000
21
200.000000
31
0.000000
12
500.000000
22
251.471008
32
84.013519
13
500.000000
23
251.471008
33
84.013519
0
3DFACE
8
0
10
500.000000
20
1406.441528
30
150.000000
11
500.000000
21
1500.000000
31
100.000000
12
500.000000
22
1500.000000
32
200.000000
13
500.000000
23
1500.000000
33
200.000000
0
3DFACE
8
0
10
500.000000
20
73.205078
30
226.794922
11
500.000000
21
0.000000
31
300.000000
12
500.000000
22
0.000000
32
200.000000
13
500.000000
23
0.000000
33
200.000000
0
3DFACE
8
0
10
500.000000
20
73.205078
30
226.794922
11
500.000000
21
100.000000
31
300.000000
12
500.000000
22
0.000000
32
300.000000
13
500.000000
23
0.000000
33
300.000000
0
3DFACE
8
0
10
500.000000
20
73.205078
30
73.205078
11
500.000000
21
0.000000
31
0.000000
12
500.000000
22
100.000000
32
0.000000
13
500.000000
23
100.000000
33
0.000000
0
3DFACE
8
0
10
500.000000
20
73.205078
30
73.205078
11
500.000000
21
0.000000
31
100.000000
12
500.000000
22
0.000000
32
0.000000
13
500.000000
23
0.000000
33
0.000000
0
3DFACE
8
0
10
500.000000
20
1427.304077
30
227.304077
11
500.000000
21
1500.000000
31
200.000000
12
500.000000
22
1500.000000
32
300.000000
13
500.000000
23
1500.000000
33
300.000000
0
3DFACE
8
0
10
500.000000
20
1427.304077
30
227.304077
11
500.000000
21
1500.000000
31
300.000000
12
500.000000
22
1400.000000
32
300.000000
13
500.000000
23
1400.000000
33
300.000000
0
3DFACE
8
0
10
500.000000
20
1427.304077
30
72.695923
11
500.000000
21
1400.000000
31
0.000000
12
500.000000
22
1500.000000
32
0.000000
13
500.000000
23
1500.000000
33
0.000000
0
3DFACE
8
0
10
500.000000
20
1427.304077
30
72.695923
11
500.000000
21
1500.000000
31
0.000000
12
500.000000
22
1500.000000
32
100.000000
13
500.000000
23
1500.000000
33
100.000000
0
3DFACE
8
0
10
500.000000
20
1100.000000
30
150.000000
11
500.000000
21
1200.000000
31
150.000000
12
500.000000
22
1150.000000
32
213.397461
13
500.000000
23
1150.000000
33
213.397461
0
3DFACE
8
0
10
500.000000
20
1200.000000
30
150.000000
11
500.000000
21
1150.000000
31
86.602539
12
500.000000
22
1250.000000
32
86.602539
13
500.000000
23
1250.000000
33
86.602539
0
3DFACE
8
0
10
500.000000
20
800.000000
30
150.000000
11
500.000000
21
850.000000
31
86.602539
12
500.000000
22
900.000000
32
150.000000
13
500.000000
23
900.000000
33
150.000000
0
3DFACE
8
0
10
500.000000
20
900.000000
30
150.000000
11
500.000000
21
950.000000
31
213.397461
12
500.000000
22
850.000000
32
213.397461
13
500.000000
23
850.000000
33
213.397461
0
3DFACE
8
0
10
500.000000
20
800.000000
30
150.000000
11
500.000000
21
900.000000
31
150.000000
12
500.000000
22
850.000000
32
213.397461
13
500.000000
23
850.000000
33
213.397461
0
3DFACE
8
0
10
500.000000
20
700.000000
30
150.000000
11
500.000000
21
600.000000
31
150.000000
12
500.000000
22
650.000000
32
86.602539
13
500.000000
23
650.000000
33
86.602539
0
3DFACE
8
0
10
500.000000
20
600.000000
30
150.000000
11
500.000000
21
550.000000
31
86.602539
12
500.000000
22
650.000000
32
86.602539
13
500.000000
23
650.000000
33
86.602539
0
3DFACE
8
0
10
500.000000
20
900.000000
30
150.000000
11
500.000000
21
850.000000
31
86.602539
12
500.000000
22
950.000000
32
86.602539
13
500.000000
23
950.000000
33
86.602539
0
3DFACE
8
0
10
500.000000
20
1200.000000
30
150.000000
11
500.000000
21
1250.000000
31
213.397461
12
500.000000
22
1150.000000
32
213.397461
13
500.000000
23
1150.000000
33
213.397461
0
3DFACE
8
0
10
500.000000
20
700.000000
30
150.000000
11
500.000000
21
650.000000
31
213.397461
12
500.000000
22
600.000000
32
150.000000
13
500.000000
23
600.000000
33
150.000000
0
3DFACE
8
0
10
500.000000
20
1100.000000
30
150.000000
11
500.000000
21
1150.000000
31
86.602539
12
500.000000
22
1200.000000
32
150.000000
13
500.000000
23
1200.000000
33
150.000000
0
3DFACE
8
0
10
500.000000
20
400.000000
30
150.000000
11
500.000000
21
350.000000
31
86.602539
12
500.000000
22
450.000000
32
86.602539
13
500.000000
23
450.000000
33
86.602539
0
3DFACE
8
0
10
500.000000
20
400.000000
30
150.000000
11
500.000000
21
450.000000
31
213.397461
12
500.000000
22
350.000000
32
213.397461
13
500.000000
23
350.000000
33
213.397461
0
3DFACE
8
0
10
500.000000
20
1300.000000
30
150.000000
11
500.000000
21
1250.000000
31
213.397461
12
500.000000
22
1200.000000
32
150.000000
13
500.000000
23
1200.000000
33
150.000000
0
3DFACE
8
0
10
500.000000
20
700.000000
30
150.000000
11
500.000000
21
750.000000
31
213.397461
12
500.000000
22
650.000000
32
213.397461
13
500.000000
23
650.000000
33
213.397461
0
3DFACE
8
0
10
500.000000
20
1300.000000
30
150.000000
11
500.000000
21
1200.000000
31
150.000000
12
500.000000
22
1250.000000
32
86.602539
13
500.000000
23
1250.000000
33
86.602539
0
3DFACE
8
0
10
500.000000
20
1100.000000
30
150.000000
11
500.000000
21
1150.000000
31
213.397461
12
500.000000
22
1050.000000
32
213.397461
13
500.000000
23
1050.000000
33
213.397461
0
3DFACE
8
0
10
500.000000
20
500.000000
30
150.000000
11
500.000000
21
600.000000
31
150.000000
12
500.000000
22
550.000000
32
213.397461
13
500.000000
23
550.000000
33
213.397461
0
3DFACE
8
0
10
500.000000
20
500.000000
30
150.000000
11
500.000000
21
550.000000
31
213.397461
12
500.000000
22
450.000000
32
213.397461
13
500.000000
23
450.000000
33
213.397461
0
3DFACE
8
0
10
500.000000
20
300.000000
30
150.000000
11
500.000000
21
251.471008
31
84.013519
12
500.000000
22
350.000000
32
86.602539
13
500.000000
23
350.000000
33
86.602539
0
3DFACE
8
0
10
500.000000
20
600.000000
30
150.000000
11
500.000000
21
650.000000
31
213.397461
12
500.000000
22
550.000000
32
213.397461
13
500.000000
23
550.000000
33
213.397461
0
3DFACE
8
0
10
500.000000
20
700.000000
30
150.000000
11
500.000000
21
650.000000
31
86.602539
12
500.000000
22
750.000000
32
86.602539
13
500.000000
23
750.000000
33
86.602539
0
3DFACE
8
0
10
500.000000
20
1000.000000
30
150.000000
11
500.000000
21
1050.000000
31
213.397461
12
500.000000
22
950.000000
32
213.397461
13
500.000000
23
950.000000
33
213.397461
0
3DFACE
8
0
10
500.000000
20
500.000000
30
150.000000
11
500.000000
21
550.000000
31
86.602539
12
500.000000
22
600.000000
32
150.000000
13
500.000000
23
600.000000
33
150.000000
0
3DFACE
8
0
10
500.000000
20
300.000000
30
150.000000
11
500.000000
21
400.000000
31
150.000000
12
500.000000
22
350.000000
32
213.397461
13
500.000000
23
350.000000
33
213.397461
0
3DFACE
8
0
10
500.000000
20
1000.000000
30
150.000000
11
500.000000
21
950.000000
31
213.397461
12
500.000000
22
900.000000
32
150.000000
13
500.000000
23
900.000000
33
150.000000
0
3DFACE
8
0
10
500.000000
20
300.000000
30
150.000000
11
500.000000
21
350.000000
31
86.602539
12
500.000000
22
400.000000
32
150.000000
13
500.000000
23
400.000000
33
150.000000
0
3DFACE
8
0
10
500.000000
20
500.000000
30
150.000000
11
500.000000
21
400.000000
31
150.000000
12
500.000000
22
450.000000
32
86.602539
13
500.000000
23
450.000000
33
86.602539
0
3DFACE
8
0
10
500.000000
20
500.000000
30
150.000000
11
500.000000
21
450.000000
31
213.397461
12
500.000000
22
400.000000
32
150.000000
13
500.000000
23
400.000000
33
150.000000
0
3DFACE
8
0
10
500.000000
20
1000.000000
30
150.000000
11
500.000000
21
900.000000
31
150.000000
12
500.000000
22
950.000000
32
86.602539
13
500.000000
23
950.000000
33
86.602539
0
3DFACE
8
0
10
500.000000
20
1300.000000
30
150.000000
11
500.000000
21
1350.000000
31
213.397461
12
500.000000
22
1250.000000
32
213.397461
13
500.000000
23
1250.000000
33
213.397461
0
3DFACE
8
0
10
500.000000
20
1300.000000
30
150.000000
11
500.000000
21
1250.000000
31
86.602539
12
500.000000
22
1350.000000
32
86.602539
13
500.000000
23
1350.000000
33
86.602539
0
3DFACE
8
0
10
500.000000
20
800.000000
30
150.000000
11
500.000000
21
750.000000
31
86.602539
12
500.000000
22
850.000000
32
86.602539
13
500.000000
23
850.000000
33
86.602539
0
3DFACE
8
0
10
500.000000
20
500.000000
30
150.000000
11
500.000000
21
450.000000
31
86.602539
12
500.000000
22
550.000000
32
86.602539
13
500.000000
23
550.000000
33
86.602539
0
3DFACE
8
0
10
500.000000
20
1000.000000
30
150.000000
11
500.000000
21
950.000000
31
86.602539
12
500.000000
22
1050.000000
32
86.602539
13
500.000000
23
1050.000000
33
86.602539
0
3DFACE
8
0
10
500.000000
20
1100.000000
30
150.000000
11
500.000000
21
1050.000000
31
213.397461
12
500.000000
22
1000.000000
32
150.000000
13
500.000000
23
1000.000000
33
150.000000
0
3DFACE
8
0
10
500.000000
20
1100.000000
30
150.000000
11
500.000000
21
1000.000000
31
150.000000
12
500.000000
22
1050.000000
32
86.602539
13
500.000000
23
1050.000000
33
86.602539
0
3DFACE
8
0
10
500.000000
20
300.000000
30
150.000000
11
500.000000
21
350.000000
31
213.397461
12
500.000000
22
251.471008
32
215.986481
13
500.000000
23
251.471008
33
215.986481
0
3DFACE
8
0
10
500.000000
20
800.000000
30
150.000000
11
500.000000
21
750.000000
31
213.397461
12
500.000000
22
700.000000
32
150.000000
13
500.000000
23
700.000000
33
150.000000
0
3DFACE
8
0
10
500.000000
20
1100.000000
30
150.000000
11
500.000000
21
1050.000000
31
86.602539
12
500.000000
22
1150.000000
32
86.602539
13
500.000000
23
1150.000000
33
86.602539
0
3DFACE
8
0
10
500.000000
20
800.000000
30
150.000000
11
500.000000
21
850.000000
31
213.397461
12
500.000000
22
750.000000
32
213.397461
13
500.000000
23
750.000000
33
213.397461
0
3DFACE
8
0
10
500.000000
20
800.000000
30
150.000000
11
500.000000
21
700.000000
31
150.000000
12
500.000000
22
750.000000
32
86.602539
13
500.000000
23
750.000000
33
86.602539
0
3DFACE
8
0
10
500.000000
20
73.205078
30
73.205078
11
500.000000
21
100.000000
31
0.000000
12
500.000000
22
154.903809
32
83.771324
13
500.000000
23
154.903809
33
83.771324
0
3DFACE
8
0
10
500.000000
20
73.205078
30
226.794922
11
500.000000
21
154.903809
31
216.228683
12
500.000000
22
100.000000
32
300.000000
13
500.000000
23
100.000000
33
300.000000
0
3DFACE
8
0
10
500.000000
20
200.522278
30
150.000000
11
500.000000
21
251.471008
31
84.013519
12
500.000000
22
300.000000
32
150.000000
13
500.000000
23
300.000000
33
150.000000
0
3DFACE
8
0
10
500.000000
20
200.522278
30
150.000000
11
500.000000
21
300.000000
31
150.000000
12
500.000000
22
251.471008
32
215.986481
13
500.000000
23
251.471008
33
215.986481
0
3DFACE
8
0
10
500.000000
20
1427.304077
30
72.695923
11
500.000000
21
1350.000000
31
86.602539
12
500.000000
22
1400.000000
32
0.000000
13
500.000000
23
1400.000000
33
0.000000
0
3DFACE
8
0
10
500.000000
20
1427.304077
30
227.304077
11
500.000000
21
1400.000000
31
300.000000
12
500.000000
22
1350.000000
32
213.397461
13
500.000000
23
1350.000000
33
213.397461
0
3DFACE
8
0
10
500.000000
20
73.205078
30
226.794922
11
500.000000
21
0.000000
31
200.000000
12
500.000000
22
94.385078
32
150.000000
13
500.000000
23
94.385078
33
150.000000
0
3DFACE
8
0
10
500.000000
20
73.205078
30
73.205078
11
500.000000
21
94.385078
31
150.000000
12
500.000000
22
0.000000
32
100.000000
13
500.000000
23
0.000000
33
100.000000
0
3DFACE
8
0
10
500.000000
20
200.522278
30
150.000000
11
500.000000
21
251.471008
31
215.986481
12
500.000000
22
154.903809
32
216.228683
13
500.000000
23
154.903809
33
216.228683
0
3DFACE
8
0
10
500.000000
20
200.522278
30
150.000000
11
500.000000
21
154.903809
31
83.771324
12
500.000000
22
251.471008
32
84.013519
13
500.000000
23
251.471008
33
84.013519
0
3DFACE
8
0
10
500.000000
20
73.205078
30
73.205078
11
500.000000
21
154.903809
31
83.771324
12
500.000000
22
94.385078
32
150.000000
13
500.000000
23
94.385078
33
150.000000
0
3DFACE
8
0
10
500.000000
20
73.205078
30
226.794922
11
500.000000
21
94.385078
31
150.000000
12
500.000000
22
154.903809
32
216.228683
13
500.000000
23
154.903809
33
216.228683
0
3DFACE
8
0
10
500.000000
20
1427.304077
30
72.695923
11
500.000000
21
1406.441528
31
150.000000
12
500.000000
22
1350.000000
32
86.602539
13
500.000000
23
1350.000000
33
86.602539
0
3DFACE
8
0
10
500.000000
20
1427.304077
30
227.304077
11
500.000000
21
1350.000000
31
213.397461
12
500.000000
22
1406.441528
32
150.000000
13
500.000000
23
1406.441528
33
150.000000
0
3DFACE
8
0
10
500.000000
20
1427.304077
30
227.304077
11
500.000000
21
1406.441528
31
150.000000
12
500.000000
22
1500.000000
32
200.000000
13
500.000000
23
1500.000000
33
200.000000
0
3DFACE
8
0
10
500.000000
20
1427.304077
30
72.695923
11
500.000000
21
1500.000000
31
100.000000
12
500.000000
22
1406.441528
32
150.000000
13
500.000000
23
1406.441528
33
150.000000
0
3DFACE
8
0
10
106.681160
20
0.000000
30
63.342567
11
201.626862
21
0.000000
31
124.801857
12
112.167206
22
0.000000
32
149.836487
13
112.167206
23
0.000000
33
149.836487
0
3DFACE
8
0
10
-215.422989
20
0.000000
30
111.629448
11
-109.559410
21
0.000000
31
60.687477
12
-127.486931
22
0.000000
32
150.968918
13
-127.486931
23
0.000000
33
150.968918
0
3DFACE
8
0
10
-192.639053
20
0.000000
30
24.407225
11
-109.559410
21
0.000000
31
60.687477
12
-215.422989
22
0.000000
32
111.629448
13
-215.422989
23
0.000000
33
111.629448
0
3DFACE
8
0
10
106.681160
20
0.000000
30
63.342567
11
192.639053
21
0.000000
31
24.407225
12
201.626862
22
0.000000
32
124.801857
13
201.626862
23
0.000000
33
124.801857
0
3DFACE
8
0
10
-48.947216
20
0.000000
30
205.681458
11
27.254360
21
0.000000
31
135.630783
12
59.941605
22
0.000000
32
219.269501
13
59.941605
23
0.000000
33
219.269501
0
3DFACE
8
0
10
27.254360
20
0.000000
30
135.630783
11
-48.947216
21
0.000000
31
205.681458
12
-52.903450
22
0.000000
32
122.790634
13
-52.903450
23
0.000000
33
122.790634
0
3DFACE
8
0
10
201.626862
20
0.000000
30
124.801857
11
250.000000
21
0.000000
31
213.397461
12
161.410309
22
0.000000
32
221.109085
13
161.410309
23
0.000000
33
221.109085
0
3DFACE
8
0
10
112.167206
20
0.000000
30
149.836487
11
201.626862
21
0.000000
31
124.801857
12
161.410309
22
0.000000
32
221.109085
13
161.410309
23
0.000000
33
221.109085
0
3DFACE
8
0
10
100.000000
20
0.000000
30
300.000000
11
59.941605
21
0.000000
31
219.269501
12
161.410309
22
0.000000
32
221.109085
13
161.410309
23
0.000000
33
221.109085
0
3DFACE
8
0
10
59.941605
20
0.000000
30
219.269501
11
112.167206
21
0.000000
31
149.836487
12
161.410309
22
0.000000
32
221.109085
13
161.410309
23
0.000000
33
221.109085
0
3DFACE
8
0
10
349.843109
20
0.000000
30
207.217499
11
357.149658
21
0.000000
31
101.110306
12
427.628693
22
0.000000
32
150.000000
13
427.628693
23
0.000000
33
150.000000
0
3DFACE
8
0
10
-359.301910
20
0.000000
30
102.660271
11
-351.561249
21
0.000000
31
206.308701
12
-427.628693
22
0.000000
32
150.000000
13
-427.628693
23
0.000000
33
150.000000
0
3DFACE
8
0
10
-279.567688
20
0.000000
30
48.286869
11
-215.422989
21
0.000000
31
111.629448
12
-295.717224
22
0.000000
32
144.928070
13
-295.717224
23
0.000000
33
144.928070
0
3DFACE
8
0
10
357.149658
20
0.000000
30
101.110306
11
349.843109
21
0.000000
31
207.217499
12
288.992889
22
0.000000
32
143.391113
13
288.992889
23
0.000000
33
143.391113
0
3DFACE
8
0
10
439.881348
20
0.000000
30
-44.523674
11
500.000000
21
0.000000
31
0.000000
12
434.029297
22
0.000000
32
50.000000
13
434.029297
23
0.000000
33
50.000000
0
3DFACE
8
0
10
-500.000000
20
0.000000
30
0.000000
11
-439.881348
21
0.000000
31
-44.523674
12
-434.029297
22
0.000000
32
50.000000
13
-434.029297
23
0.000000
33
50.000000
0
3DFACE
8
0
10
106.681160
20
0.000000
30
63.342567
11
-4.240421
21
0.000000
31
52.569267
12
59.194084
22
0.000000
32
-1.140969
13
59.194084
23
0.000000
33
-1.140969
0
3DFACE
8
0
10
106.681160
20
0.000000
30
63.342567
11
27.254360
21
0.000000
31
135.630783
12
-4.240421
22
0.000000
32
52.569267
13
-4.240421
23
0.000000
33
52.569267
0
3DFACE
8
0
10
-351.561249
20
0.000000
30
206.308701
11
-359.301910
21
0.000000
31
102.660271
12
-295.717224
22
0.000000
32
144.928070
13
-295.717224
23
0.000000
33
144.928070
0
3DFACE
8
0
10
362.836212
20
0.000000
30
7.766372
11
439.881348
21
0.000000
31
-44.523674
12
434.029297
22
0.000000
32
50.000000
13
434.029297
23
0.000000
33
50.000000
0
3DFACE
8
0
10
-439.881348
20
0.000000
30
-44.523674
11
-362.836212
21
0.000000
31
7.766373
12
-434.029297
22
0.000000
32
50.000000
13
-434.029297
23
0.000000
33
50.000000
0
3DFACE
8
0
10
106.681160
20
0.000000
30
63.342567
11
112.167206
21
0.000000
31
149.836487
12
27.254360
22
0.000000
32
135.630783
13
27.254360
23
0.000000
33
135.630783
0
3DFACE
8
0
10
349.843109
20
0.000000
30
207.217499
11
300.000000
21
0.000000
31
300.000000
12
250.000000
22
0.000000
32
213.397461
13
250.000000
23
0.000000
33
213.397461
0
3DFACE
8
0
10
-359.301910
20
0.000000
30
102.660271
11
-279.567688
21
0.000000
31
48.286869
12
-295.717224
22
0.000000
32
144.928070
13
-295.717224
23
0.000000
33
144.928070
0
3DFACE
8
0
10
-300.000000
20
0.000000
30
300.000000
11
-351.561249
21
0.000000
31
206.308701
12
-251.270981
22
0.000000
32
214.131256
13
-251.270981
23
0.000000
33
214.131256
0
3DFACE
8
0
10
-215.422989
20
0.000000
30
111.629448
11
-251.270981
21
0.000000
31
214.131256
12
-295.717224
22
0.000000
32
144.928070
13
-295.717224
23
0.000000
33
144.928070
0
3DFACE
8
0
10
400.000000
20
0.000000
30
300.000000
11
300.000000
21
0.000000
31
300.000000
12
349.843109
22
0.000000
32
207.217499
13
349.843109
23
0.000000
33
207.217499
0
3DFACE
8
0
10
-300.000000
20
0.000000
30
300.000000
11
-400.000000
21
0.000000
31
300.000000
12
-351.561249
22
0.000000
32
206.308701
13
-351.561249
23
0.000000
33
206.308701
0
3DFACE
8
0
10
300.000000
20
0.000000
30
300.000000
11
200.000000
21
0.000000
31
300.000000
12
250.000000
22
0.000000
32
213.397461
13
250.000000
23
0.000000
33
213.397461
0
3DFACE
8
0
10
-251.270981
20
0.000000
30
214.131256
11
-215.422989
21
0.000000
31
111.629448
12
-187.576202
22
0.000000
32
177.214951
13
-187.576202
23
0.000000
33
177.214951
0
3DFACE
8
0
10
-0.000000
20
0.000000
30
300.000000
11
-100.000000
21
0.000000
31
300.000000
12
-48.947216
22
0.000000
32
205.681458
13
-48.947216
23
0.000000
33
205.681458
0
3DFACE
8
0
10
-192.639053
20
0.000000
30
24.407225
11
-120.437492
21
0.000000
31
-34.434269
12
-109.559410
22
0.000000
32
60.687477
13
-109.559410
23
0.000000
33
60.687477
0
3DFACE
8
0
10
-200.000000
20
0.000000
30
300.000000
11
-300.000000
21
0.000000
31
300.000000
12
-251.270981
22
0.000000
32
214.131256
13
-251.270981
23
0.000000
33
214.131256
0
3DFACE
8
0
10
-0.000000
20
0.000000
30
300.000000
11
-48.947216
21
0.000000
31
205.681458
12
59.941605
22
0.000000
32
219.269501
13
59.941605
23
0.000000
33
219.269501
0
3DFACE
8
0
10
500.000000
20
0.000000
30
0.000000
11
500.000000
21
0.000000
31
100.000000
12
434.029297
22
0.000000
32
50.000000
13
434.029297
23
0.000000
33
50.000000
0
3DFACE
8
0
10
-500.000000
20
0.000000
30
100.000000
11
-500.000000
21
0.000000
31
0.000000
12
-434.029297
22
0.000000
32
50.000000
13
-434.029297
23
0.000000
33
50.000000
0
3DFACE
8
0
10
120.437492
20
0.000000
30
-34.434265
11
192.639053
21
0.000000
31
24.407225
12
106.681160
22
0.000000
32
63.342567
13
106.681160
23
0.000000
33
63.342567
0
3DFACE
8
0
10
27.254360
20
0.000000
30
135.630783
11
112.167206
21
0.000000
31
149.836487
12
59.941605
22
0.000000
32
219.269501
13
59.941605
23
0.000000
33
219.269501
0
3DFACE
8
0
10
-362.836212
20
0.000000
30
7.766373
11
-279.567688
21
0.000000
31
48.286869
12
-359.301910
22
0.000000
32
102.660271
13
-359.301910
23
0.000000
33
102.660271
0
3DFACE
8
0
10
279.567688
20
0.000000
30
48.286869
11
362.836212
21
0.000000
31
7.766372
12
357.149658
22
0.000000
32
101.110306
13
357.149658
23
0.000000
33
101.110306
0
3DFACE
8
0
10
100.000000
20
0.000000
30
300.000000
11
-0.000000
21
0.000000
31
300.000000
12
59.941605
22
0.000000
32
219.269501
13
59.941605
23
0.000000
33
219.269501
0
3DFACE
8
0
10
-44.683025
20
0.000000
30
-88.284500
11
44.683029
21
0.000000
31
-88.284500
12
-1.155610
22
0.000000
32
-21.675175
13
-1.155610
23
0.000000
33
-21.675175
0
3DFACE
8
0
10
-279.567688
20
0.000000
30
48.286869
11
-192.639053
21
0.000000
31
24.407225
12
-215.422989
22
0.000000
32
111.629448
13
-215.422989
23
0.000000
33
111.629448
0
3DFACE
8
0
10
192.639053
20
0.000000
30
24.407225
11
279.567688
21
0.000000
31
48.286869
12
201.626862
22
0.000000
32
124.801857
13
201.626862
23
0.000000
33
124.801857
0
3DFACE
8
0
10
-127.486931
20
0.000000
30
150.968918
11
-48.947216
21
0.000000
31
205.681458
12
-150.000000
22
0.000000
32
232.697357
13
-150.000000
23
0.000000
33
232.697357
0
3DFACE
8
0
10
250.000000
20
0.000000
30
213.397461
11
201.626862
21
0.000000
31
124.801857
12
288.992889
22
0.000000
32
143.391113
13
288.992889
23
0.000000
33
143.391113
0
3DFACE
8
0
10
-434.029297
20
0.000000
30
50.000000
11
-359.301910
21
0.000000
31
102.660271
12
-427.628693
22
0.000000
32
150.000000
13
-427.628693
23
0.000000
33
150.000000
0
3DFACE
8
0
10
357.149658
20
0.000000
30
101.110306
11
434.029297
21
0.000000
31
50.000000
12
427.628693
22
0.000000
32
150.000000
13
427.628693
23
0.000000
33
150.000000
0
3DFACE
8
0
10
-200.000000
20
0.000000
30
300.000000
11
-251.270981
21
0.000000
31
214.131256
12
-150.000000
22
0.000000
32
232.697357
13
-150.000000
23
0.000000
33
232.697357
0
3DFACE
8
0
10
-48.947216
20
0.000000
30
205.681458
11
-100.000000
21
0.000000
31
300.000000
12
-150.000000
22
0.000000
32
232.697357
13
-150.000000
23
0.000000
33
232.697357
0
3DFACE
8
0
10
-48.947216
20
0.000000
30
205.681458
11
-127.486931
21
0.000000
31
150.968918
12
-52.903450
22
0.000000
32
122.790634
13
-52.903450
23
0.000000
33
122.790634
0
3DFACE
8
0
10
200.000000
20
0.000000
30
300.000000
11
100.000000
21
0.000000
31
300.000000
12
161.410309
22
0.000000
32
221.109085
13
161.410309
23
0.000000
33
221.109085
0
3DFACE
8
0
10
279.567688
20
0.000000
30
48.286869
11
357.149658
21
0.000000
31
101.110306
12
288.992889
22
0.000000
32
143.391113
13
288.992889
23
0.000000
33
143.391113
0
3DFACE
8
0
10
201.626862
20
0.000000
30
124.801857
11
279.567688
21
0.000000
31
48.286869
12
288.992889
22
0.000000
32
143.391113
13
288.992889
23
0.000000
33
143.391113
0
3DFACE
8
0
10
500.000000
20
0.000000
30
200.000000
11
500.000000
21
0.000000
31
300.000000
12
428.480560
22
0.000000
32
228.339203
13
428.480560
23
0.000000
33
228.339203
0
3DFACE
8
0
10
-500.000000
20
0.000000
30
300.000000
11
-500.000000
21
0.000000
31
200.000000
12
-428.570007
22
0.000000
32
228.291885
13
-428.570007
23
0.000000
33
228.291885
0
3DFACE
8
0
10
500.000000
20
0.000000
30
300.000000
11
400.000000
21
0.000000
31
300.000000
12
428.480560
22
0.000000
32
228.339203
13
428.480560
23
0.000000
33
228.339203
0
3DFACE
8
0
10
-400.000000
20
0.000000
30
300.000000
11
-500.000000
21
0.000000
31
300.000000
12
-428.570007
22
0.000000
32
228.291885
13
-428.570007
23
0.000000
33
228.291885
0
3DFACE
8
0
10
349.843109
20
0.000000
30
207.217499
11
250.000000
21
0.000000
31
213.397461
12
288.992889
22
0.000000
32
143.391113
13
288.992889
23
0.000000
33
143.391113
0
3DFACE
8
0
10
-127.486931
20
0.000000
30
150.968918
11
-109.559410
21
0.000000
31
60.687477
12
-52.903450
22
0.000000
32
122.790634
13
-52.903450
23
0.000000
33
122.790634
0
3DFACE
8
0
10
-52.903450
20
0.000000
30
122.790634
11
-109.559410
21
0.000000
31
60.687477
12
-4.240421
22
0.000000
32
52.569267
13
-4.240421
23
0.000000
33
52.569267
0
3DFACE
8
0
10
-4.240421
20
0.000000
30
52.569267
11
-109.559410
21
0.000000
31
60.687477
12
-60.589012
22
0.000000
32
-1.411898
13
-60.589012
23
0.000000
33
-1.411898
0
3DFACE
8
0
10
-362.836212
20
0.000000
30
7.766373
11
-359.301910
21
0.000000
31
102.660271
12
-434.029297
22
0.000000
32
50.000000
13
-434.029297
23
0.000000
33
50.000000
0
3DFACE
8
0
10
357.149658
20
0.000000
30
101.110306
11
362.836212
21
0.000000
31
7.766372
12
434.029297
22
0.000000
32
50.000000
13
434.029297
23
0.000000
33
50.000000
0
3DFACE
8
0
10
-120.437492
20
0.000000
30
-34.434269
11
-44.683025
21
0.000000
31
-88.284500
12
-60.589012
22
0.000000
32
-1.411898
13
-60.589012
23
0.000000
33
-1.411898
0
3DFACE
8
0
10
44.683029
20
0.000000
30
-88.284500
11
120.437492
21
0.000000
31
-34.434265
12
59.194084
22
0.000000
32
-1.140969
13
59.194084
23
0.000000
33
-1.140969
0
3DFACE
8
0
10
-44.683025
20
0.000000
30
-88.284500
11
-1.155610
21
0.000000
31
-21.675175
12
-60.589012
22
0.000000
32
-1.411898
13
-60.589012
23
0.000000
33
-1.411898
0
3DFACE
8
0
10
-1.155610
20
0.000000
30
-21.675175
11
44.683029
21
0.000000
31
-88.284500
12
59.194084
22
0.000000
32
-1.140969
13
59.194084
23
0.000000
33
-1.140969
0
3DFACE
8
0
10
-500.000000
20
0.000000
30
100.000000
11
-434.029297
21
0.000000
31
50.000000
12
-427.628693
22
0.000000
32
150.000000
13
-427.628693
23
0.000000
33
150.000000
0
3DFACE
8
0
10
434.029297
20
0.000000
30
50.000000
11
500.000000
21
0.000000
31
100.000000
12
427.628693
22
0.000000
32
150.000000
13
427.628693
23
0.000000
33
150.000000
0
3DFACE
8
0
10
-500.000000
20
0.000000
30
200.000000
11
-500.000000
21
0.000000
31
100.000000
12
-427.628693
22
0.000000
32
150.000000
13
-427.628693
23
0.000000
33
150.000000
0
3DFACE
8
0
10
500.000000
20
0.000000
30
100.000000
11
500.000000
21
0.000000
31
200.000000
12
427.628693
22
0.000000
32
150.000000
13
427.628693
23
0.000000
33
150.000000
0
3DFACE
8
0
10
-150.000000
20
0.000000
30
232.697357
11
-251.270981
21
0.000000
31
214.131256
12
-187.576202
22
0.000000
32
177.214951
13
-187.576202
23
0.000000
33
177.214951
0
3DFACE
8
0
10
-100.000000
20
0.000000
30
300.000000
11
-200.000000
21
0.000000
31
300.000000
12
-150.000000
22
0.000000
32
232.697357
13
-150.000000
23
0.000000
33
232.697357
0
3DFACE
8
0
10
250.000000
20
0.000000
30
213.397461
11
200.000000
21
0.000000
31
300.000000
12
161.410309
22
0.000000
32
221.109085
13
161.410309
23
0.000000
33
221.109085
0
3DFACE
8
0
10
-251.270981
20
0.000000
30
214.131256
11
-351.561249
21
0.000000
31
206.308701
12
-295.717224
22
0.000000
32
144.928070
13
-295.717224
23
0.000000
33
144.928070
0
3DFACE
8
0
10
349.843109
20
0.000000
30
207.217499
11
427.628693
21
0.000000
31
150.000000
12
428.480560
22
0.000000
32
228.339203
13
428.480560
23
0.000000
33
228.339203
0
3DFACE
8
0
10
-427.628693
20
0.000000
30
150.000000
11
-351.561249
21
0.000000
31
206.308701
12
-428.570007
22
0.000000
32
228.291885
13
-428.570007
23
0.000000
33
228.291885
0
3DFACE
8
0
10
-215.422989
20
0.000000
30
111.629448
11
-127.486931
21
0.000000
31
150.968918
12
-187.576202
22
0.000000
32
177.214951
13
-187.576202
23
0.000000
33
177.214951
0
3DFACE
8
0
10
400.000000
20
0.000000
30
300.000000
11
349.843109
21
0.000000
31
207.217499
12
428.480560
22
0.000000
32
228.339203
13
428.480560
23
0.000000
33
228.339203
0
3DFACE
8
0
10
-351.561249
20
0.000000
30
206.308701
11
-400.000000
21
0.000000
31
300.000000
12
-428.570007
22
0.000000
32
228.291885
13
-428.570007
23
0.000000
33
228.291885
0
3DFACE
8
0
10
-4.240421
20
0.000000
30
52.569267
11
-1.155610
21
0.000000
31
-21.675175
12
59.194084
22
0.000000
32
-1.140969
13
59.194084
23
0.000000
33
-1.140969
0
3DFACE
8
0
10
-109.559410
20
0.000000
30
60.687477
11
-120.437492
21
0.000000
31
-34.434269
12
-60.589012
22
0.000000
32
-1.411898
13
-60.589012
23
0.000000
33
-1.411898
0
3DFACE
8
0
10
120.437492
20
0.000000
30
-34.434265
11
106.681160
21
0.000000
31
63.342567
12
59.194084
22
0.000000
32
-1.140969
13
59.194084
23
0.000000
33
-1.140969
0
3DFACE
8
0
10
-500.000000
20
0.000000
30
200.000000
11
-427.628693
21
0.000000
31
150.000000
12
-428.570007
22
0.000000
32
228.291885
13
-428.570007
23
0.000000
33
228.291885
0
3DFACE
8
0
10
427.628693
20
0.000000
30
150.000000
11
500.000000
21
0.000000
31
200.000000
12
428.480560
22
0.000000
32
228.339203
13
428.480560
23
0.000000
33
228.339203
0
3DFACE
8
0
10
27.254360
20
0.000000
30
135.630783
11
-52.903450
21
0.000000
31
122.790634
12
-4.240421
22
0.000000
32
52.569267
13
-4.240421
23
0.000000
33
52.569267
0
3DFACE
8
0
10
-1.155610
20
0.000000
30
-21.675175
11
-4.240421
21
0.000000
31
52.569267
12
-60.589012
22
0.000000
32
-1.411898
13
-60.589012
23
0.000000
33
-1.411898
0
3DFACE
8
0
10
-127.486931
20
0.000000
30
150.968918
11
-150.000000
21
0.000000
31
232.697357
12
-187.576202
22
0.000000
32
177.214951
13
-187.576202
23
0.000000
33
177.214951
0
3DFACE
8
0
10
-500.000000
20
1200.000000
30
300.000000
11
-500.000000
21
1100.000000
31
300.000000
12
-500.000000
22
1300.000000
32
300.000000
13
-500.000000
23
1300.000000
33
300.000000
0
3DFACE
8
0
10
-500.000000
20
1400.000000
30
300.000000
11
-500.000000
21
1300.000000
31
300.000000
12
-500.000000
22
1500.000000
32
300.000000
13
-500.000000
23
1500.000000
33
300.000000
0
3DFACE
8
0
10
-500.000000
20
600.000000
30
300.000000
11
-500.000000
21
500.000000
31
300.000000
12
-500.000000
22
700.000000
32
300.000000
13
-500.000000
23
700.000000
33
300.000000
0
3DFACE
8
0
10
-500.000000
20
1100.000000
30
300.000000
11
-500.000000
21
1000.000000
31
300.000000
12
-500.000000
22
1300.000000
32
300.000000
13
-500.000000
23
1300.000000
33
300.000000
0
3DFACE
8
0
10
-500.000000
20
900.000000
30
300.000000
11
-500.000000
21
800.000000
31
300.000000
12
-500.000000
22
1000.000000
32
300.000000
13
-500.000000
23
1000.000000
33
300.000000
0
3DFACE
8
0
10
-500.000000
20
400.000000
30
300.000000
11
-500.000000
21
300.000000
31
300.000000
12
-500.000000
22
500.000000
32
300.000000
13
-500.000000
23
500.000000
33
300.000000
0
3DFACE
8
0
10
-500.000000
20
300.000000
30
300.000000
11
-500.000000
21
200.000000
31
300.000000
12
-500.000000
22
500.000000
32
300.000000
13
-500.000000
23
500.000000
33
300.000000
0
3DFACE
8
0
10
-500.000000
20
800.000000
30
300.000000
11
-500.000000
21
700.000000
31
300.000000
12
-500.000000
22
1000.000000
32
300.000000
13
-500.000000
23
1000.000000
33
300.000000
0
3DFACE
8
0
10
-500.000000
20
200.000000
30
300.000000
11
-500.000000
21
100.000000
31
300.000000
12
-500.000000
22
500.000000
32
300.000000
13
-500.000000
23
500.000000
33
300.000000
0
3DFACE
8
0
10
-500.000000
20
1500.000000
30
100.000000
11
-500.000000
21
1500.000000
31
200.000000
12
-500.000000
22
1500.000000
32
0.000000
13
-500.000000
23
1500.000000
33
0.000000
0
3DFACE
8
0
10
-500.000000
20
100.000000
30
300.000000
11
-500.000000
21
0.000000
31
300.000000
12
-500.000000
22
500.000000
32
300.000000
13
-500.000000
23
500.000000
33
300.000000
0
3DFACE
8
0
10
-500.000000
20
1500.000000
30
200.000000
11
-500.000000
21
1500.000000
31
300.000000
12
-500.000000
22
1500.000000
32
0.000000
13
-500.000000
23
1500.000000
33
0.000000
0
3DFACE
8
0
10
500.000000
20
1500.000000
30
0.000000
11
439.881348
21
1500.000000
31
-44.523674
12
500.000000
22
1500.000000
32
100.000000
13
500.000000
23
1500.000000
33
100.000000
0
3DFACE
8
0
10
-362.836212
20
1500.000000
30
7.766373
11
-439.881348
21
1500.000000
31
-44.523674
12
-279.567688
22
1500.000000
32
48.286869
13
-279.567688
23
1500.000000
33
48.286869
0
3DFACE
8
0
10
439.881348
20
1500.000000
30
-44.523674
11
362.836212
21
1500.000000
31
7.766372
12
500.000000
22
1500.000000
32
100.000000
13
500.000000
23
1500.000000
33
100.000000
0
3DFACE
8
0
10
-439.881348
20
1500.000000
30
-44.523674
11
-500.000000
21
1500.000000
31
0.000000
12
-279.567688
22
1500.000000
32
48.286869
13
-279.567688
23
1500.000000
33
48.286869
0
3DFACE
8
0
10
362.836212
20
1500.000000
30
7.766372
11
279.567688
21
1500.000000
31
48.286869
12
500.000000
22
1500.000000
32
100.000000
13
500.000000
23
1500.000000
33
100.000000
0
3DFACE
8
0
10
-44.683025
20
1500.000000
30
-88.284500
11
-120.437492
21
1500.000000
31
-34.434269
12
44.683029
22
1500.000000
32
-88.284500
13
44.683029
23
1500.000000
33
-88.284500
0
3DFACE
8
0
10
120.437492
20
1500.000000
30
-34.434265
11
44.683029
21
1500.000000
31
-88.284500
12
192.639053
22
1500.000000
32
24.407225
13
192.639053
23
1500.000000
33
24.407225
0
3DFACE
8
0
10
-192.639053
20
1500.000000
30
24.407225
11
-279.567688
21
1500.000000
31
48.286869
12
-120.437492
22
1500.000000
32
-34.434269
13
-120.437492
23
1500.000000
33
-34.434269
0
3DFACE
8
0
10
279.567688
20
1500.000000
30
48.286869
11
192.639053
21
1500.000000
31
24.407225
12
500.000000
22
1500.000000
32
100.000000
13
500.000000
23
1500.000000
33
100.000000
0
3DFACE
8
0
10
500.000000
20
800.000000
30
300.000000
11
500.000000
21
900.000000
31
300.000000
12
500.000000
22
700.000000
32
300.000000
13
500.000000
23
700.000000
33
300.000000
0
3DFACE
8
0
10
500.000000
20
1000.000000
30
300.000000
11
500.000000
21
1100.000000
31
300.000000
12
500.000000
22
900.000000
32
300.000000
13
500.000000
23
900.000000
33
300.000000
0
3DFACE
8
0
10
500.000000
20
600.000000
30
300.000000
11
500.000000
21
700.000000
31
300.000000
12
500.000000
22
500.000000
32
300.000000
13
500.000000
23
500.000000
33
300.000000
0
3DFACE
8
0
10
500.000000
20
1300.000000
30
300.000000
11
500.000000
21
1400.000000
31
300.000000
12
500.000000
22
1200.000000
32
300.000000
13
500.000000
23
1200.000000
33
300.000000
0
3DFACE
8
0
10
500.000000
20
200.000000
30
300.000000
11
500.000000
21
300.000000
31
300.000000
12
500.000000
22
100.000000
32
300.000000
13
500.000000
23
100.000000
33
300.000000
0
3DFACE
8
0
10
500.000000
20
400.000000
30
300.000000
11
500.000000
21
500.000000
31
300.000000
12
500.000000
22
300.000000
32
300.000000
13
500.000000
23
300.000000
33
300.000000
0
3DFACE
8
0
10
500.000000
20
1100.000000
30
300.000000
11
500.000000
21
1200.000000
31
300.000000
12
500.000000
22
900.000000
32
300.000000
13
500.000000
23
900.000000
33
300.000000
0
3DFACE
8
0
10
500.000000
20
1500.000000
30
200.000000
11
500.000000
21
1500.000000
31
100.000000
12
500.000000
22
1500.000000
32
300.000000
13
500.000000
23
1500.000000
33
300.000000
0
3DFACE
8
0
10
500.000000
20
0.000000
30
300.000000
11
500.000000
21
100.000000
31
300.000000
12
400.000000
22
0.000000
32
300.000000
13
400.000000
23
0.000000
33
300.000000
0
3DFACE
8
0
10
500.000000
20
1400.000000
30
300.000000
11
500.000000
21
1500.000000
31
300.000000
12
500.000000
22
1200.000000
32
300.000000
13
500.000000
23
1200.000000
33
300.000000
0
3DFACE
8
0
10
300.000000
20
0.000000
30
300.000000
11
400.000000
21
0.000000
31
300.000000
12
200.000000
22
0.000000
32
300.000000
13
200.000000
23
0.000000
33
300.000000
0
3DFACE
8
0
10
-400.000000
20
0.000000
30
300.000000
11
-300.000000
21
0.000000
31
300.000000
12
-500.000000
22
0.000000
32
300.000000
13
-500.000000
23
0.000000
33
300.000000
0
3DFACE
8
0
10
-100.000000
20
0.000000
30
300.000000
11
-0.000000
21
0.000000
31
300.000000
12
-200.000000
22
0.000000
32
300.000000
13
-200.000000
23
0.000000
33
300.000000
0
3DFACE
8
0
10
-300.000000
20
0.000000
30
300.000000
11
-200.000000
21
0.000000
31
300.000000
12
-500.000000
22
0.000000
32
300.000000
13
-500.000000
23
0.000000
33
300.000000
0
3DFACE
8
0
10
-0.000000
20
0.000000
30
300.000000
11
100.000000
21
0.000000
31
300.000000
12
-200.000000
22
0.000000
32
300.000000
13
-200.000000
23
0.000000
33
300.000000
0
3DFACE
8
0
10
100.000000
20
0.000000
30
300.000000
11
200.000000
21
0.000000
31
300.000000
12
-200.000000
22
0.000000
32
300.000000
13
-200.000000
23
0.000000
33
300.000000
0
3DFACE
8
0
10
-500.000000
20
1500.000000
30
300.000000
11
-500.000000
21
1300.000000
31
300.000000
12
-500.000000
22
1000.000000
32
300.000000
13
-500.000000
23
1000.000000
33
300.000000
0
3DFACE
8
0
10
-500.000000
20
700.000000
30
300.000000
11
-500.000000
21
500.000000
31
300.000000
12
-500.000000
22
0.000000
32
300.000000
13
-500.000000
23
0.000000
33
300.000000
0
3DFACE
8
0
10
-500.000000
20
1000.000000
30
300.000000
11
-500.000000
21
700.000000
31
300.000000
12
-500.000000
22
0.000000
32
300.000000
13
-500.000000
23
0.000000
33
300.000000
0
3DFACE
8
0
10
-500.000000
20
1500.000000
30
0.000000
11
-500.000000
21
1500.000000
31
300.000000
12
-500.000000
22
1000.000000
32
300.000000
13
-500.000000
23
1000.000000
33
300.000000
0
3DFACE
8
0
10
-279.567688
20
1500.000000
30
48.286869
11
-500.000000
21
1500.000000
31
0.000000
12
-500.000000
22
1000.000000
32
300.000000
13
-500.000000
23
1000.000000
33
300.000000
0
3DFACE
8
0
10
44.683029
20
1500.000000
30
-88.284500
11
-120.437492
21
1500.000000
31
-34.434269
12
-279.567688
22
1500.000000
32
48.286869
13
-279.567688
23
1500.000000
33
48.286869
0
3DFACE
8
0
10
192.639053
20
1500.000000
30
24.407225
11
44.683029
21
1500.000000
31
-88.284500
12
-279.567688
22
1500.000000
32
48.286869
13
-279.567688
23
1500.000000
33
48.286869
0
3DFACE
8
0
10
500.000000
20
1500.000000
30
100.000000
11
192.639053
21
1500.000000
31
24.407225
12
-279.567688
22
1500.000000
32
48.286869
13
-279.567688
23
1500.000000
33
48.286869
0
3DFACE
8
0
10
500.000000
20
700.000000
30
300.000000
11
500.000000
21
900.000000
31
300.000000
12
500.000000
22
1200.000000
32
300.000000
13
500.000000
23
1200.000000
33
300.000000
0
3DFACE
8
0
10
500.000000
20
500.000000
30
300.000000
11
500.000000
21
700.000000
31
300.000000
12
500.000000
22
1200.000000
32
300.000000
13
500.000000
23
1200.000000
33
300.000000
0
3DFACE
8
0
10
500.000000
20
100.000000
30
300.000000
11
500.000000
21
300.000000
31
300.000000
12
500.000000
22
500.000000
32
300.000000
13
500.000000
23
500.000000
33
300.000000
0
3DFACE
8
0
10
500.000000
20
1500.000000
30
300.000000
11
500.000000
21
1500.000000
31
100.000000
12
-279.567688
22
1500.000000
32
48.286869
13
-279.567688
23
1500.000000
33
48.286869
0
3DFACE
8
0
10
400.000000
20
0.000000
30
300.000000
11
500.000000
21
100.000000
31
300.000000
12
500.000000
22
500.000000
32
300.000000
13
500.000000
23
500.000000
33
300.000000
0
3DFACE
8
0
10
500.000000
20
1200.000000
30
300.000000
11
500.000000
21
1500.000000
31
300.000000
12
-279.567688
22
1500.000000
32
48.286869
13
-279.567688
23
1500.000000
33
48.286869
0
3DFACE
8
0
10
200.000000
20
0.000000
30
300.000000
11
400.000000
21
0.000000
31
300.000000
12
500.000000
22
500.000000
32
300.000000
13
500.000000
23
500.000000
33
300.000000
0
3DFACE
8
0
10
-500.000000
20
0.000000
30
300.000000
11
-200.000000
21
0.000000
31
300.000000
12
200.000000
22
0.000000
32
300.000000
13
200.000000
23
0.000000
33
300.000000
0
3DFACE
8
0
10
-500.000000
20
1000.000000
30
300.000000
11
-500.000000
21
0.000000
31
300.000000
12
-279.567688
22
1500.000000
32
48.286869
13
-279.567688
23
1500.000000
33
48.286869
0
3DFACE
8
0
10
500.000000
20
500.000000
30
300.000000
11
500.000000
21
1200.000000
31
300.000000
12
200.000000
22
0.000000
32
300.000000
13
200.000000
23
0.000000
33
300.000000
0
3DFACE
8
0
10
500.000000
20
1200.000000
30
300.000000
11
-279.567688
21
1500.000000
31
48.286869
12
200.000000
22
0.000000
32
300.000000
13
200.000000
23
0.000000
33
300.000000
0
3DFACE
8
0
10
-500.000000
20
0.000000
30
300.000000
11
200.000000
21
0.000000
31
300.000000
12
-279.567688
22
1500.000000
32
48.286869
13
-279.567688
23
1500.000000
33
48.286869
0
ENDSEC
0
EOF
