solid  Processed by ADMesh version 1.0.0
  facet normal  0.00000000E+00  1.00000000E+00  0.00000000E+00
    outer loop
      vertex  2.39685040E+01  4.96850395E+00  6.96850395E+00
      vertex  2.39685040E+01  4.96850395E+00  3.03149605E+00
      vertex  2.00314960E+01  4.96850395E+00  3.03149605E+00
    endloop
  endfacet
  facet normal  0.00000000E+00  0.00000000E+00  1.00000000E+00
    outer loop
      vertex -1.96850395E+00  1.96850395E+00  1.96850395E+00
      vertex -1.96850395E+00 -1.96850395E+00  1.96850395E+00
      vertex  1.96850395E+00 -1.96850395E+00  1.96850395E+00
    endloop
  endfacet
  facet normal  0.00000000E+00 -0.00000000E+00  1.00000000E+00
    outer loop
      vertex  1.96850395E+00 -1.96850395E+00  1.96850395E+00
      vertex  1.96850395E+00  1.96850395E+00  1.96850395E+00
      vertex -1.96850395E+00  1.96850395E+00  1.96850395E+00
    endloop
  endfacet
  facet normal  0.00000000E+00 -0.00000000E+00 -1.00000000E+00
    outer loop
      vertex  1.96850395E+00  1.96850395E+00 -1.96850395E+00
      vertex  1.96850395E+00 -1.96850395E+00 -1.96850395E+00
      vertex -1.96850395E+00 -1.96850395E+00 -1.96850395E+00
    endloop
  endfacet
  facet normal  0.00000000E+00  0.00000000E+00 -1.00000000E+00
    outer loop
      vertex -1.96850395E+00 -1.96850395E+00 -1.96850395E+00
      vertex -1.96850395E+00  1.96850395E+00 -1.96850395E+00
      vertex  1.96850395E+00  1.96850395E+00 -1.96850395E+00
    endloop
  endfacet
  facet normal -1.00000000E+00  0.00000000E+00  0.00000000E+00
    outer loop
      vertex -1.96850395E+00  1.96850395E+00 -1.96850395E+00
      vertex -1.96850395E+00 -1.96850395E+00 -1.96850395E+00
      vertex -1.96850395E+00 -1.96850395E+00  1.96850395E+00
    endloop
  endfacet
  facet normal -1.00000000E+00  0.00000000E+00  0.00000000E+00
    outer loop
      vertex -1.96850395E+00 -1.96850395E+00  1.96850395E+00
      vertex -1.96850395E+00  1.96850395E+00  1.96850395E+00
      vertex -1.96850395E+00  1.96850395E+00 -1.96850395E+00
    endloop
  endfacet
  facet normal  1.00000000E+00  0.00000000E+00  0.00000000E+00
    outer loop
      vertex  1.96850395E+00  1.96850395E+00  1.96850395E+00
      vertex  1.96850395E+00 -1.96850395E+00  1.96850395E+00
      vertex  1.96850395E+00 -1.96850395E+00 -1.96850395E+00
    endloop
  endfacet
  facet normal  1.00000000E+00  0.00000000E+00  0.00000000E+00
    outer loop
      vertex  1.96850395E+00 -1.96850395E+00 -1.96850395E+00
      vertex  1.96850395E+00  1.96850395E+00 -1.96850395E+00
      vertex  1.96850395E+00  1.96850395E+00  1.96850395E+00
    endloop
  endfacet
  facet normal  0.00000000E+00 -1.00000000E+00  0.00000000E+00
    outer loop
      vertex -1.96850395E+00 -1.96850395E+00  1.96850395E+00
      vertex -1.96850395E+00 -1.96850395E+00 -1.96850395E+00
      vertex  1.96850395E+00 -1.96850395E+00 -1.96850395E+00
    endloop
  endfacet
  facet normal  0.00000000E+00 -1.00000000E+00  0.00000000E+00
    outer loop
      vertex  1.96850395E+00 -1.96850395E+00 -1.96850395E+00
      vertex  1.96850395E+00 -1.96850395E+00  1.96850395E+00
      vertex -1.96850395E+00 -1.96850395E+00  1.96850395E+00
    endloop
  endfacet
  facet normal  0.00000000E+00  1.00000000E+00  0.00000000E+00
    outer loop
      vertex -1.96850395E+00  1.96850395E+00 -1.96850395E+00
      vertex -1.96850395E+00  1.96850395E+00  1.96850395E+00
      vertex  1.96850395E+00  1.96850395E+00  1.96850395E+00
    endloop
  endfacet
  facet normal  0.00000000E+00  1.00000000E+00  0.00000000E+00
    outer loop
      vertex  1.96850395E+00  1.96850395E+00  1.96850395E+00
      vertex  1.96850395E+00  1.96850395E+00 -1.96850395E+00
      vertex -1.96850395E+00  1.96850395E+00 -1.96850395E+00
    endloop
  endfacet
  facet normal  0.00000000E+00  0.00000000E+00  1.00000000E+00
    outer loop
      vertex  2.00314960E+01  4.96850395E+00  6.96850395E+00
      vertex  2.00314960E+01  1.03149605E+00  6.96850395E+00
      vertex  2.39685040E+01  1.03149605E+00  6.96850395E+00
    endloop
  endfacet
  facet normal  0.00000000E+00 -0.00000000E+00  1.00000000E+00
    outer loop
      vertex  2.39685040E+01  1.03149605E+00  6.96850395E+00
      vertex  2.39685040E+01  4.96850395E+00  6.96850395E+00
      vertex  2.00314960E+01  4.96850395E+00  6.96850395E+00
    endloop
  endfacet
  facet normal  0.00000000E+00 -0.00000000E+00 -1.00000000E+00
    outer loop
      vertex  2.39685040E+01  4.96850395E+00  3.03149605E+00
      vertex  2.39685040E+01  1.03149605E+00  3.03149605E+00
      vertex  2.00314960E+01  1.03149605E+00  3.03149605E+00
    endloop
  endfacet
  facet normal  0.00000000E+00  0.00000000E+00 -1.00000000E+00
    outer loop
      vertex  2.00314960E+01  1.03149605E+00  3.03149605E+00
      vertex  2.00314960E+01  4.96850395E+00  3.03149605E+00
      vertex  2.39685040E+01  4.96850395E+00  3.03149605E+00
    endloop
  endfacet
  facet normal -1.00000000E+00  0.00000000E+00  0.00000000E+00
    outer loop
      vertex  2.00314960E+01  4.96850395E+00  3.03149605E+00
      vertex  2.00314960E+01  1.03149605E+00  3.03149605E+00
      vertex  2.00314960E+01  1.03149605E+00  6.96850395E+00
    endloop
  endfacet
  facet normal -1.00000000E+00  0.00000000E+00  0.00000000E+00
    outer loop
      vertex  2.00314960E+01  1.03149605E+00  6.96850395E+00
      vertex  2.00314960E+01  4.96850395E+00  6.96850395E+00
      vertex  2.00314960E+01  4.96850395E+00  3.03149605E+00
    endloop
  endfacet
  facet normal  1.00000000E+00  0.00000000E+00  0.00000000E+00
    outer loop
      vertex  2.39685040E+01  4.96850395E+00  6.96850395E+00
      vertex  2.39685040E+01  1.03149605E+00  6.96850395E+00
      vertex  2.39685040E+01  1.03149605E+00  3.03149605E+00
    endloop
  endfacet
  facet normal  1.00000000E+00  0.00000000E+00  0.00000000E+00
    outer loop
      vertex  2.39685040E+01  1.03149605E+00  3.03149605E+00
      vertex  2.39685040E+01  4.96850395E+00  3.03149605E+00
      vertex  2.39685040E+01  4.96850395E+00  6.96850395E+00
    endloop
  endfacet
  facet normal  0.00000000E+00 -1.00000000E+00  0.00000000E+00
    outer loop
      vertex  2.00314960E+01  1.03149605E+00  6.96850395E+00
      vertex  2.00314960E+01  1.03149605E+00  3.03149605E+00
      vertex  2.39685040E+01  1.03149605E+00  3.03149605E+00
    endloop
  endfacet
  facet normal  0.00000000E+00 -1.00000000E+00  0.00000000E+00
    outer loop
      vertex  2.39685040E+01  1.03149605E+00  3.03149605E+00
      vertex  2.39685040E+01  1.03149605E+00  6.96850395E+00
      vertex  2.00314960E+01  1.03149605E+00  6.96850395E+00
    endloop
  endfacet
  facet normal  0.00000000E+00  1.00000000E+00  0.00000000E+00
    outer loop
      vertex  2.00314960E+01  4.96850395E+00  3.03149605E+00
      vertex  2.00314960E+01  4.96850395E+00  6.96850395E+00
      vertex  2.39685040E+01  4.96850395E+00  6.96850395E+00
    endloop
  endfacet
endsolid  Processed by ADMesh version 1.0.0
