solid  Processed by ADMesh version 1.0.0
  facet normal  0.00000000E+00  0.00000000E+00  1.00000000E+00
    outer loop
      vertex -3.93700790E+00  5.90551186E+00  7.87401581E+00
      vertex -3.93700790E+00 -5.90551186E+00  7.87401581E+00
      vertex  3.93700790E+00 -5.90551186E+00  7.87401581E+00
    endloop
  endfacet
  facet normal  0.00000000E+00 -0.00000000E+00  1.00000000E+00
    outer loop
      vertex  3.93700790E+00 -5.90551186E+00  7.87401581E+00
      vertex  3.93700790E+00  5.90551186E+00  7.87401581E+00
      vertex -3.93700790E+00  5.90551186E+00  7.87401581E+00
    endloop
  endfacet
  facet normal  0.00000000E+00 -0.00000000E+00 -1.00000000E+00
    outer loop
      vertex  3.93700790E+00  5.90551186E+00 -7.87401581E+00
      vertex  3.93700790E+00 -5.90551186E+00 -7.87401581E+00
      vertex -3.93700790E+00 -5.90551186E+00 -7.87401581E+00
    endloop
  endfacet
  facet normal  0.00000000E+00  0.00000000E+00 -1.00000000E+00
    outer loop
      vertex -3.93700790E+00 -5.90551186E+00 -7.87401581E+00
      vertex -3.93700790E+00  5.90551186E+00 -7.87401581E+00
      vertex  3.93700790E+00  5.90551186E+00 -7.87401581E+00
    endloop
  endfacet
  facet normal -1.00000000E+00  0.00000000E+00  0.00000000E+00
    outer loop
      vertex -3.93700790E+00  5.90551186E+00 -7.87401581E+00
      vertex -3.93700790E+00 -5.90551186E+00 -7.87401581E+00
      vertex -3.93700790E+00 -5.90551186E+00  7.87401581E+00
    endloop
  endfacet
  facet normal -1.00000000E+00  0.00000000E+00  0.00000000E+00
    outer loop
      vertex -3.93700790E+00 -5.90551186E+00  7.87401581E+00
      vertex -3.93700790E+00  5.90551186E+00  7.87401581E+00
      vertex -3.93700790E+00  5.90551186E+00 -7.87401581E+00
    endloop
  endfacet
  facet normal  1.00000000E+00  0.00000000E+00  0.00000000E+00
    outer loop
      vertex  3.93700790E+00  5.90551186E+00  7.87401581E+00
      vertex  3.93700790E+00 -5.90551186E+00  7.87401581E+00
      vertex  3.93700790E+00 -5.90551186E+00 -7.87401581E+00
    endloop
  endfacet
  facet normal  1.00000000E+00  0.00000000E+00  0.00000000E+00
    outer loop
      vertex  3.93700790E+00 -5.90551186E+00 -7.87401581E+00
      vertex  3.93700790E+00  5.90551186E+00 -7.87401581E+00
      vertex  3.93700790E+00  5.90551186E+00  7.87401581E+00
    endloop
  endfacet
  facet normal  0.00000000E+00 -1.00000000E+00  0.00000000E+00
    outer loop
      vertex -3.93700790E+00 -5.90551186E+00  7.87401581E+00
      vertex -3.93700790E+00 -5.90551186E+00 -7.87401581E+00
      vertex  3.93700790E+00 -5.90551186E+00 -7.87401581E+00
    endloop
  endfacet
  facet normal  0.00000000E+00 -1.00000000E+00  0.00000000E+00
    outer loop
      vertex  3.93700790E+00 -5.90551186E+00 -7.87401581E+00
      vertex  3.93700790E+00 -5.90551186E+00  7.87401581E+00
      vertex -3.93700790E+00 -5.90551186E+00  7.87401581E+00
    endloop
  endfacet
  facet normal  0.00000000E+00  1.00000000E+00  0.00000000E+00
    outer loop
      vertex -3.93700790E+00  5.90551186E+00 -7.87401581E+00
      vertex -3.93700790E+00  5.90551186E+00  7.87401581E+00
      vertex  3.93700790E+00  5.90551186E+00  7.87401581E+00
    endloop
  endfacet
  facet normal  0.00000000E+00  1.00000000E+00  0.00000000E+00
    outer loop
      vertex  3.93700790E+00  5.90551186E+00  7.87401581E+00
      vertex  3.93700790E+00  5.90551186E+00 -7.87401581E+00
      vertex -3.93700790E+00  5.90551186E+00 -7.87401581E+00
    endloop
  endfacet
endsolid  Processed by ADMesh version 1.0.0
