solid  Processed by ADMesh version 1.0.0
  facet normal  0.00000000E+00  0.00000000E+00  1.00000000E+00
    outer loop
      vertex  2.00000000E+00  6.93700790E+00  7.93700790E+00
      vertex  2.00000000E+00  3.00000000E+00  7.93700790E+00
      vertex  5.93700790E+00  3.00000000E+00  7.93700790E+00
    endloop
  endfacet
  facet normal  0.00000000E+00 -0.00000000E+00  1.00000000E+00
    outer loop
      vertex  5.93700790E+00  3.00000000E+00  7.93700790E+00
      vertex  5.93700790E+00  6.93700790E+00  7.93700790E+00
      vertex  2.00000000E+00  6.93700790E+00  7.93700790E+00
    endloop
  endfacet
  facet normal  0.00000000E+00 -0.00000000E+00 -1.00000000E+00
    outer loop
      vertex  5.93700790E+00  6.93700790E+00  4.00000000E+00
      vertex  5.93700790E+00  3.00000000E+00  4.00000000E+00
      vertex  2.00000000E+00  3.00000000E+00  4.00000000E+00
    endloop
  endfacet
  facet normal  0.00000000E+00  0.00000000E+00 -1.00000000E+00
    outer loop
      vertex  2.00000000E+00  3.00000000E+00  4.00000000E+00
      vertex  2.00000000E+00  6.93700790E+00  4.00000000E+00
      vertex  5.93700790E+00  6.93700790E+00  4.00000000E+00
    endloop
  endfacet
  facet normal -1.00000000E+00  0.00000000E+00  0.00000000E+00
    outer loop
      vertex  2.00000000E+00  6.93700790E+00  4.00000000E+00
      vertex  2.00000000E+00  3.00000000E+00  4.00000000E+00
      vertex  2.00000000E+00  3.00000000E+00  7.93700790E+00
    endloop
  endfacet
  facet normal -1.00000000E+00  0.00000000E+00  0.00000000E+00
    outer loop
      vertex  2.00000000E+00  3.00000000E+00  7.93700790E+00
      vertex  2.00000000E+00  6.93700790E+00  7.93700790E+00
      vertex  2.00000000E+00  6.93700790E+00  4.00000000E+00
    endloop
  endfacet
  facet normal  1.00000000E+00  0.00000000E+00  0.00000000E+00
    outer loop
      vertex  5.93700790E+00  6.93700790E+00  7.93700790E+00
      vertex  5.93700790E+00  3.00000000E+00  7.93700790E+00
      vertex  5.93700790E+00  3.00000000E+00  4.00000000E+00
    endloop
  endfacet
  facet normal  1.00000000E+00  0.00000000E+00  0.00000000E+00
    outer loop
      vertex  5.93700790E+00  3.00000000E+00  4.00000000E+00
      vertex  5.93700790E+00  6.93700790E+00  4.00000000E+00
      vertex  5.93700790E+00  6.93700790E+00  7.93700790E+00
    endloop
  endfacet
  facet normal  0.00000000E+00 -1.00000000E+00  0.00000000E+00
    outer loop
      vertex  2.00000000E+00  3.00000000E+00  7.93700790E+00
      vertex  2.00000000E+00  3.00000000E+00  4.00000000E+00
      vertex  5.93700790E+00  3.00000000E+00  4.00000000E+00
    endloop
  endfacet
  facet normal  0.00000000E+00 -1.00000000E+00  0.00000000E+00
    outer loop
      vertex  5.93700790E+00  3.00000000E+00  4.00000000E+00
      vertex  5.93700790E+00  3.00000000E+00  7.93700790E+00
      vertex  2.00000000E+00  3.00000000E+00  7.93700790E+00
    endloop
  endfacet
  facet normal  0.00000000E+00  1.00000000E+00  0.00000000E+00
    outer loop
      vertex  2.00000000E+00  6.93700790E+00  4.00000000E+00
      vertex  2.00000000E+00  6.93700790E+00  7.93700790E+00
      vertex  5.93700790E+00  6.93700790E+00  7.93700790E+00
    endloop
  endfacet
  facet normal  0.00000000E+00  1.00000000E+00  0.00000000E+00
    outer loop
      vertex  5.93700790E+00  6.93700790E+00  7.93700790E+00
      vertex  5.93700790E+00  6.93700790E+00  4.00000000E+00
      vertex  2.00000000E+00  6.93700790E+00  4.00000000E+00
    endloop
  endfacet
endsolid  Processed by ADMesh version 1.0.0
