solid  Processed by ADMesh version 1.0.0
  facet normal  0.00000000E+00  0.00000000E+00  1.00000000E+00
    outer loop
      vertex  3.14960480E-02  4.96850395E+00  5.96850395E+00
      vertex  3.14960480E-02  1.03149605E+00  5.96850395E+00
      vertex  3.96850395E+00  1.03149605E+00  5.96850395E+00
    endloop
  endfacet
  facet normal  0.00000000E+00 -0.00000000E+00  1.00000000E+00
    outer loop
      vertex  3.96850395E+00  1.03149605E+00  5.96850395E+00
      vertex  3.96850395E+00  4.96850395E+00  5.96850395E+00
      vertex  3.14960480E-02  4.96850395E+00  5.96850395E+00
    endloop
  endfacet
  facet normal  0.00000000E+00 -0.00000000E+00 -1.00000000E+00
    outer loop
      vertex  3.96850395E+00  4.96850395E+00  2.03149605E+00
      vertex  3.96850395E+00  1.03149605E+00  2.03149605E+00
      vertex  3.14960480E-02  1.03149605E+00  2.03149605E+00
    endloop
  endfacet
  facet normal  0.00000000E+00  0.00000000E+00 -1.00000000E+00
    outer loop
      vertex  3.14960480E-02  1.03149605E+00  2.03149605E+00
      vertex  3.14960480E-02  4.96850395E+00  2.03149605E+00
      vertex  3.96850395E+00  4.96850395E+00  2.03149605E+00
    endloop
  endfacet
  facet normal -1.00000000E+00  0.00000000E+00  0.00000000E+00
    outer loop
      vertex  3.14960480E-02  4.96850395E+00  2.03149605E+00
      vertex  3.14960480E-02  1.03149605E+00  2.03149605E+00
      vertex  3.14960480E-02  1.03149605E+00  5.96850395E+00
    endloop
  endfacet
  facet normal -1.00000000E+00  0.00000000E+00  0.00000000E+00
    outer loop
      vertex  3.14960480E-02  1.03149605E+00  5.96850395E+00
      vertex  3.14960480E-02  4.96850395E+00  5.96850395E+00
      vertex  3.14960480E-02  4.96850395E+00  2.03149605E+00
    endloop
  endfacet
  facet normal  1.00000000E+00  0.00000000E+00  0.00000000E+00
    outer loop
      vertex  3.96850395E+00  4.96850395E+00  5.96850395E+00
      vertex  3.96850395E+00  1.03149605E+00  5.96850395E+00
      vertex  3.96850395E+00  1.03149605E+00  2.03149605E+00
    endloop
  endfacet
  facet normal  1.00000000E+00  0.00000000E+00  0.00000000E+00
    outer loop
      vertex  3.96850395E+00  1.03149605E+00  2.03149605E+00
      vertex  3.96850395E+00  4.96850395E+00  2.03149605E+00
      vertex  3.96850395E+00  4.96850395E+00  5.96850395E+00
    endloop
  endfacet
  facet normal  0.00000000E+00 -1.00000000E+00  0.00000000E+00
    outer loop
      vertex  3.14960480E-02  1.03149605E+00  5.96850395E+00
      vertex  3.14960480E-02  1.03149605E+00  2.03149605E+00
      vertex  3.96850395E+00  1.03149605E+00  2.03149605E+00
    endloop
  endfacet
  facet normal  0.00000000E+00 -1.00000000E+00  0.00000000E+00
    outer loop
      vertex  3.96850395E+00  1.03149605E+00  2.03149605E+00
      vertex  3.96850395E+00  1.03149605E+00  5.96850395E+00
      vertex  3.14960480E-02  1.03149605E+00  5.96850395E+00
    endloop
  endfacet
  facet normal  0.00000000E+00  1.00000000E+00  0.00000000E+00
    outer loop
      vertex  3.14960480E-02  4.96850395E+00  2.03149605E+00
      vertex  3.14960480E-02  4.96850395E+00  5.96850395E+00
      vertex  3.96850395E+00  4.96850395E+00  5.96850395E+00
    endloop
  endfacet
  facet normal  0.00000000E+00  1.00000000E+00  0.00000000E+00
    outer loop
      vertex  3.96850395E+00  4.96850395E+00  5.96850395E+00
      vertex  3.96850395E+00  4.96850395E+00  2.03149605E+00
      vertex  3.14960480E-02  4.96850395E+00  2.03149605E+00
    endloop
  endfacet
endsolid  Processed by ADMesh version 1.0.0
