solid  Processed by ADMesh version 1.0.0
  facet normal -1.49308228E-08 -5.00000000E-01  8.66025388E-01
    outer loop
      vertex -1.96850395E+00  7.20522463E-01  2.68902636E+00
      vertex -1.96850395E+00 -2.68902636E+00  7.20522463E-01
      vertex  1.96850395E+00 -2.68902636E+00  7.20522463E-01
    endloop
  endfacet
  facet normal -1.49308228E-08 -5.00000000E-01  8.66025388E-01
    outer loop
      vertex  1.96850395E+00 -2.68902636E+00  7.20522463E-01
      vertex  1.96850395E+00  7.20522463E-01  2.68902636E+00
      vertex -1.96850395E+00  7.20522463E-01  2.68902636E+00
    endloop
  endfacet
  facet normal -1.49308228E-08  5.00000000E-01 -8.66025388E-01
    outer loop
      vertex  1.96850395E+00  2.68902636E+00 -7.20522463E-01
      vertex  1.96850395E+00 -7.20522463E-01 -2.68902636E+00
      vertex -1.96850395E+00 -7.20522463E-01 -2.68902636E+00
    endloop
  endfacet
  facet normal -1.49308228E-08  5.00000000E-01 -8.66025388E-01
    outer loop
      vertex -1.96850395E+00 -7.20522463E-01 -2.68902636E+00
      vertex -1.96850395E+00  2.68902636E+00 -7.20522463E-01
      vertex  1.96850395E+00  2.68902636E+00 -7.20522463E-01
    endloop
  endfacet
  facet normal -1.00000000E+00 -0.00000000E+00  0.00000000E+00
    outer loop
      vertex -1.96850395E+00  2.68902636E+00 -7.20522463E-01
      vertex -1.96850395E+00 -7.20522463E-01 -2.68902636E+00
      vertex -1.96850395E+00 -2.68902636E+00  7.20522463E-01
    endloop
  endfacet
  facet normal -1.00000000E+00  0.00000000E+00  0.00000000E+00
    outer loop
      vertex -1.96850395E+00 -2.68902636E+00  7.20522463E-01
      vertex -1.96850395E+00  7.20522463E-01  2.68902636E+00
      vertex -1.96850395E+00  2.68902636E+00 -7.20522463E-01
    endloop
  endfacet
  facet normal  1.00000000E+00  0.00000000E+00  0.00000000E+00
    outer loop
      vertex  1.96850395E+00  7.20522463E-01  2.68902636E+00
      vertex  1.96850395E+00 -2.68902636E+00  7.20522463E-01
      vertex  1.96850395E+00 -7.20522463E-01 -2.68902636E+00
    endloop
  endfacet
  facet normal  1.00000000E+00  0.00000000E+00  0.00000000E+00
    outer loop
      vertex  1.96850395E+00 -7.20522463E-01 -2.68902636E+00
      vertex  1.96850395E+00  2.68902636E+00 -7.20522463E-01
      vertex  1.96850395E+00  7.20522463E-01  2.68902636E+00
    endloop
  endfacet
  facet normal  1.49308228E-08 -8.66025388E-01 -5.00000000E-01
    outer loop
      vertex -1.96850395E+00 -2.68902636E+00  7.20522463E-01
      vertex -1.96850395E+00 -7.20522463E-01 -2.68902636E+00
      vertex  1.96850395E+00 -7.20522463E-01 -2.68902636E+00
    endloop
  endfacet
  facet normal  1.49308228E-08 -8.66025388E-01 -5.00000000E-01
    outer loop
      vertex  1.96850395E+00 -7.20522463E-01 -2.68902636E+00
      vertex  1.96850395E+00 -2.68902636E+00  7.20522463E-01
      vertex -1.96850395E+00 -2.68902636E+00  7.20522463E-01
    endloop
  endfacet
  facet normal  1.49308228E-08  8.66025388E-01  5.00000000E-01
    outer loop
      vertex -1.96850395E+00  2.68902636E+00 -7.20522463E-01
      vertex -1.96850395E+00  7.20522463E-01  2.68902636E+00
      vertex  1.96850395E+00  7.20522463E-01  2.68902636E+00
    endloop
  endfacet
  facet normal  1.49308228E-08  8.66025388E-01  5.00000000E-01
    outer loop
      vertex  1.96850395E+00  7.20522463E-01  2.68902636E+00
      vertex  1.96850395E+00  2.68902636E+00 -7.20522463E-01
      vertex -1.96850395E+00  2.68902636E+00 -7.20522463E-01
    endloop
  endfacet
endsolid  Processed by ADMesh version 1.0.0
