solid  Processed by ADMesh version 1.0.0
  facet normal  6.25000000E-01 -2.16506347E-01  7.50000000E-01
    outer loop
      vertex -6.72256649E-01  4.43860114E-01  3.31301713E+00
      vertex  1.80130601E-01 -3.00102162E+00  1.60824275E+00
      vertex  3.13288641E+00 -1.29624736E+00 -3.60261202E-01
    endloop
  endfacet
  facet normal  6.25000000E-01 -2.16506347E-01  7.50000000E-01
    outer loop
      vertex  3.13288641E+00 -1.29624736E+00 -3.60261202E-01
      vertex  2.28049922E+00  2.14863467E+00  1.34451318E+00
      vertex -6.72256649E-01  4.43860114E-01  3.31301713E+00
    endloop
  endfacet
  facet normal -6.25000000E-01  2.16506332E-01 -7.50000000E-01
    outer loop
      vertex -1.80130601E-01  3.00102162E+00 -1.60824275E+00
      vertex  6.72256649E-01 -4.43860114E-01 -3.31301713E+00
      vertex -2.28049922E+00 -2.14863467E+00 -1.34451318E+00
    endloop
  endfacet
  facet normal -6.25000000E-01  2.16506332E-01 -7.50000000E-01
    outer loop
      vertex -2.28049922E+00 -2.14863467E+00 -1.34451318E+00
      vertex -3.13288641E+00  1.29624736E+00  3.60261202E-01
      vertex -1.80130601E-01  3.00102162E+00 -1.60824275E+00
    endloop
  endfacet
  facet normal -7.50000000E-01 -4.33012694E-01  5.00000000E-01
    outer loop
      vertex -3.13288641E+00  1.29624736E+00  3.60261202E-01
      vertex -2.28049922E+00 -2.14863467E+00 -1.34451318E+00
      vertex  1.80130601E-01 -3.00102162E+00  1.60824275E+00
    endloop
  endfacet
  facet normal -7.50000060E-01 -4.33012724E-01  4.99999940E-01
    outer loop
      vertex  1.80130601E-01 -3.00102162E+00  1.60824275E+00
      vertex -6.72256649E-01  4.43860114E-01  3.31301713E+00
      vertex -3.13288641E+00  1.29624736E+00  3.60261202E-01
    endloop
  endfacet
  facet normal  7.50000000E-01  4.33012694E-01 -4.99999970E-01
    outer loop
      vertex  2.28049922E+00  2.14863467E+00  1.34451318E+00
      vertex  3.13288641E+00 -1.29624736E+00 -3.60261202E-01
      vertex  6.72256649E-01 -4.43860114E-01 -3.31301713E+00
    endloop
  endfacet
  facet normal  7.50000000E-01  4.33012694E-01 -4.99999970E-01
    outer loop
      vertex  6.72256649E-01 -4.43860114E-01 -3.31301713E+00
      vertex -1.80130601E-01  3.00102162E+00 -1.60824275E+00
      vertex  2.28049922E+00  2.14863467E+00  1.34451318E+00
    endloop
  endfacet
  facet normal  2.16506422E-01 -8.75000000E-01 -4.33012664E-01
    outer loop
      vertex  1.80130601E-01 -3.00102162E+00  1.60824275E+00
      vertex -2.28049922E+00 -2.14863467E+00 -1.34451318E+00
      vertex  6.72256649E-01 -4.43860114E-01 -3.31301713E+00
    endloop
  endfacet
  facet normal  2.16506347E-01 -8.75000000E-01 -4.33012664E-01
    outer loop
      vertex  6.72256649E-01 -4.43860114E-01 -3.31301713E+00
      vertex  3.13288641E+00 -1.29624736E+00 -3.60261202E-01
      vertex  1.80130601E-01 -3.00102162E+00  1.60824275E+00
    endloop
  endfacet
  facet normal -2.16506392E-01  8.75000000E-01  4.33012724E-01
    outer loop
      vertex -3.13288641E+00  1.29624736E+00  3.60261202E-01
      vertex -6.72256649E-01  4.43860114E-01  3.31301713E+00
      vertex  2.28049922E+00  2.14863467E+00  1.34451318E+00
    endloop
  endfacet
  facet normal -2.16506377E-01  8.75000000E-01  4.33012664E-01
    outer loop
      vertex  2.28049922E+00  2.14863467E+00  1.34451318E+00
      vertex -1.80130601E-01  3.00102162E+00 -1.60824275E+00
      vertex -3.13288641E+00  1.29624736E+00  3.60261202E-01
    endloop
  endfacet
endsolid  Processed by ADMesh version 1.0.0
